<svg xmlns="http://www.w3.org/2000/svg" viewBox="0 0 111.19 108.97"><defs><style>.cls-1{fill:#0199c7;}</style></defs><title>Asset 1</title><g id="Layer_2" data-name="Layer 2"><g id="Layer_1-2" data-name="Layer 1"><path class="cls-1" d="M33.65,74.52l.3,0,11.5-2a1.72,1.72,0,0,0-.6-3.38l-9.28,1.64,2.15-22.89,3.22-4.41c-.21,2.27-.33,4.39-.33,6.27,0,6.93,1.1,11.94,3.37,15.33a1.74,1.74,0,0,0,1.43.76,1.79,1.79,0,0,0,1-.29,1.72,1.72,0,0,0,.46-2.38C45,60.35,44,55.83,44,49.69c0-7.49,1.91-19,4.87-29.29A77.52,77.52,0,0,1,53.4,8.06c2-4.08,3.18-4.58,3.32-4.63S58.05,4,60,8.06A79.54,79.54,0,0,1,64.53,20.4c3,10.31,4.86,21.8,4.86,29.29,0,6-.89,10.42-2.64,13.2a1.71,1.71,0,1,0,2.89,1.83c2.14-3.38,3.18-8.29,3.18-15,0-2-.13-4.31-.37-6.77L76,47.83l2.16,22.89L68.9,69.08a1.72,1.72,0,0,0-.6,3.38l11.51,2,.3,0a1.72,1.72,0,0,0,1.71-1.87L79.4,47a1.77,1.77,0,0,0-.32-.85L71.66,36a1.46,1.46,0,0,0-.16-.19A146.86,146.86,0,0,0,67.7,19,78.37,78.37,0,0,0,62.91,6.11C60.8,1.94,58.84,0,56.72,0s-4.09,1.94-6.19,6.11A79.21,79.21,0,0,0,45.73,19a146,146,0,0,0-3.87,17.31l-7.19,9.85a1.77,1.77,0,0,0-.32.85L31.94,72.65a1.72,1.72,0,0,0,.54,1.42A1.75,1.75,0,0,0,33.65,74.52Z"/><path class="cls-1" d="M63.44,40.18a1.76,1.76,0,0,0,.51,0,1.73,1.73,0,0,0,1.55-1.78c0-.52-.06-1.05-.09-1.57a1.76,1.76,0,0,0-1.29-1.6A1.72,1.72,0,0,0,62,37.05c0,.48.07,1,.09,1.45A1.77,1.77,0,0,0,63.44,40.18Z"/><path class="cls-1" d="M62.9,33.11l.31,0a1.72,1.72,0,0,0,1.38-2,86.43,86.43,0,0,0-5.35-17.69,1.71,1.71,0,1,0-3.13,1.39,85.47,85.47,0,0,1,5.1,16.92A1.71,1.71,0,0,0,62.9,33.11Z"/><path class="cls-1" d="M57.66,71.75a1.29,1.29,0,0,0-1.36,1.71v.92a1.29,1.29,0,0,0,1.36,1.71,1.61,1.61,0,0,0,1.64-1.71v-.92A1.62,1.62,0,0,0,57.66,71.75Z"/><path class="cls-1" d="M59.3,53.33a1.62,1.62,0,0,0-1.64-1.71,1.29,1.29,0,0,0-1.36,1.71V67.52a1.29,1.29,0,0,0,1.36,1.71,1.62,1.62,0,0,0,1.64-1.71Z"/><path class="cls-1" d="M28.26,87.66a13.17,13.17,0,0,0-4.47-.49c0-.1,0-.21,0-.31A4.32,4.32,0,0,1,31.3,84a1.77,1.77,0,0,0,1.31.56,1.75,1.75,0,0,0,1.28-.62,10.36,10.36,0,0,1,17.68,3,1.72,1.72,0,0,0,3.22-1.19A9.88,9.88,0,0,0,51.3,81V66.37c.52-1-.25-1.71-1.19-1.71a1.85,1.85,0,0,0-1.81,1.71v12a13.09,13.09,0,0,0-6.45-1.67,13.75,13.75,0,0,0-9.4,3.7,7.76,7.76,0,0,0-12.1,6.43,8.43,8.43,0,0,0,.06,1,11.26,11.26,0,0,0-5.06,4.46A10.74,10.74,0,0,0,2,108.25a1.7,1.7,0,0,0,1.4.72,1.67,1.67,0,0,0,1-.32,1.71,1.71,0,0,0,.4-2.39A7.31,7.31,0,0,1,14,95.51a11.13,11.13,0,0,0-.31,2.59,1.72,1.72,0,0,0,3.44,0,7.74,7.74,0,0,1,5-7.25,10.18,10.18,0,0,1,5,.07,1.68,1.68,0,0,0,.54.08,1.71,1.71,0,0,0,.54-3.34Z"/><path class="cls-1" d="M100.45,91.28a10.24,10.24,0,0,0-2.14.23,11.1,11.1,0,0,0-4.51-3.64,8.42,8.42,0,0,0,.07-1,7.76,7.76,0,0,0-12.1-6.43A13.82,13.82,0,0,0,65.3,78.67V66.37a1.68,1.68,0,0,0-1.7-1.71c-.94,0-1.71.76-1.3,1.71V81.24c-.41.1-.4.19-.38.28a13.74,13.74,0,0,0-2.24,3.56,1.72,1.72,0,0,0,3.16,1.36,10.36,10.36,0,0,1,17.48-2.55,1.72,1.72,0,0,0,2.59.06,4.33,4.33,0,0,1,7.53,2.91s0,.09,0,.14a13.6,13.6,0,0,0-5.2.43,1.71,1.71,0,0,0,.55,3.34,1.57,1.57,0,0,0,.52-.08,10.18,10.18,0,0,1,5-.06,7.76,7.76,0,0,1,5.71,7.47,1.72,1.72,0,1,0,3.43,0,11,11,0,0,0-.53-3.36,4.26,4.26,0,0,1,.5,0,7.31,7.31,0,0,1,6,11.54,1.71,1.71,0,0,0,.4,2.39,1.67,1.67,0,0,0,1,.32,1.7,1.7,0,0,0,1.4-.72,10.74,10.74,0,0,0-8.75-17Z"/><path class="cls-1" d="M58.82,95.6A11.48,11.48,0,0,0,37.08,97a8.34,8.34,0,0,0-8,7.82,1.71,1.71,0,1,0,3.42.21,4.89,4.89,0,1,1,9.77.59,1.71,1.71,0,0,0,1.61,1.81H44a1.73,1.73,0,0,0,1.72-1.61,8.34,8.34,0,0,0-5.26-8.24,8,8,0,0,1,15.43.13,5.32,5.32,0,0,0-.89,3.92A1.71,1.71,0,0,0,56.71,103l.29,0a1.73,1.73,0,0,0,1.41-2,1.89,1.89,0,0,1,3.16-1.68,1.72,1.72,0,1,0,2.37-2.48A5.29,5.29,0,0,0,58.82,95.6Z"/></g></g></svg>