<?xml version="1.0" encoding="utf-8"?>
<!-- Generator: Adobe Illustrator 24.0.1, SVG Export Plug-In . SVG Version: 6.00 Build 0)  -->
<svg version="1.1" id="Layer_1" xmlns="http://www.w3.org/2000/svg" xmlns:xlink="http://www.w3.org/1999/xlink" x="0px" y="0px"
	 viewBox="0 0 283.7 271.6" style="enable-background:new 0 0 283.7 271.6;" xml:space="preserve">
<style type="text/css">
	.st0{fill:#0199C7;}
</style>
<g id="Layer_1_1_">
	<path class="st0" d="M184.3,211.3l35.9-38.5c1.2-1.3,1.6-3.1,1.1-4.8c-0.4-1.6-1.8-2.8-3.4-3.2l-49.8-7.9l-22.3-49.4
		c-0.8-2.1-3.2-3.1-5.3-2.3c-1,0.4-1.9,1.2-2.3,2.3L116.1,157l-49.8,7.9c-1.6,0.3-3,1.5-3.4,3.2c-0.5,1.7-0.1,3.5,1.1,4.8l35.9,38.5
		l-8.5,54.3c-0.3,1.7,0.3,3.4,1.7,4.5c1.3,1,3,1.2,4.5,0.4l44.5-25.7l44.6,25.7c0.6,0.3,1.3,0.5,2,0.5c0.9,0,1.7-0.3,2.4-0.9
		c1.3-1.1,2-2.8,1.7-4.5L184.3,211.3z M144.1,235.5c-0.6-0.3-1.3-0.5-2-0.5c-0.7,0-1.4,0.2-2,0.5l-38.9,22.4l7.4-47.5
		c0.2-1.5-0.2-3-1.2-4.1L76,172.7l43.5-6.9c1.4-0.2,2.6-1.1,3.2-2.4l19.5-43.2l19.5,43.1c0.6,1.3,1.8,2.2,3.2,2.4l43.5,6.9
		l-31.5,33.7c-1,1.1-1.5,2.6-1.2,4.1l7.4,47.5L144.1,235.5z"/>
	<path class="st0" d="M85.3,217.2H14.2L28.4,201c1.6-1.8,1.6-4.6,0-6.4l-14.2-16.1h36.3c2.6-0.3,4.4-2.5,4.2-5.1
		c-0.2-2.2-2-3.9-4.2-4.2H4.3c-1.8,0-3.3,1.2-3.9,2.8c-0.7,1.7-0.4,3.7,0.8,5.1l18.2,20.7L1.2,218.6c-1.2,1.4-1.5,3.3-0.8,5
		c0.6,1.7,2.1,2.8,3.9,2.8h81c2.6-0.3,4.4-2.5,4.2-5.1C89.1,219.1,87.4,217.4,85.3,217.2L85.3,217.2z"/>
	<path class="st0" d="M264.3,197.8l18.2-20.7c1.2-1.4,1.5-3.3,0.9-5c-0.6-1.7-2.1-2.8-3.9-2.8h-46.2c-2.6,0.3-4.4,2.5-4.2,5.1
		c0.2,2.2,2,3.9,4.2,4.2h36.3l-14.2,16.1c-1.6,1.8-1.6,4.5,0,6.4l14.2,16.1h-71.1c-2.6,0.3-4.4,2.5-4.2,5.1c0.2,2.2,2,3.9,4.2,4.2
		h81c1.8-0.1,3.3-1.2,3.9-2.8c0.6-1.7,0.3-3.6-0.9-5L264.3,197.8z"/>
	<path class="st0" d="M142.8,62.2c15.5,0,28.2-13.8,28.2-30.8S158.3,0.5,142.8,0.5s-28.2,13.8-28.2,30.8S127.3,62.2,142.8,62.2z
		 M142.8,9.7c10.9,0,19.7,9.7,19.7,21.6s-8.9,21.6-19.7,21.6s-19.7-9.7-19.7-21.6S131.9,9.7,142.8,9.7L142.8,9.7z"/>
	<path class="st0" d="M96.5,152.9c0.3,0,0.6,0,0.9,0c2.1-0.1,3.8-1.6,4.1-3.6l9.7-49.5c2.6-13.5,13.7-23.2,26.2-23.2h11.5
		c12.7,0,23.8,9.9,26.3,23.6l8.9,49c0.3,2.3,2.4,4,4.8,3.6c0.1,0,0.1,0,0.2,0c2.4-0.6,3.8-3,3.3-5.4l-8.9-49
		c-3.3-18-17.8-31.1-34.6-31.1h-11.5c-16.5,0-31,12.8-34.5,30.5l-9.7,49.5C92.6,149.7,94,152.2,96.5,152.9z"/>
	<path class="st0" d="M55.7,87.2c13.7,0,24.8-12.2,24.8-27.2S69.3,32.9,55.7,32.9S30.9,45.1,30.9,60.1S41.9,87.2,55.7,87.2z
		 M55.7,42.1c9,0,16.4,8,16.4,17.9S64.7,78,55.7,78s-16.4-8-16.4-17.9S46.7,42.1,55.7,42.1z"/>
	<path class="st0" d="M17.3,162.2c0.3,0,0.5,0,0.8,0c2.1-0.1,3.9-1.7,4.1-3.8l6.8-39.4c2.2-11.2,11.4-19.4,21.9-19.4h9.9
		c10.7,0,19.9,8.3,22,19.8c0.3,2.3,2.4,4,4.8,3.6c0.1,0,0.1,0,0.2,0c2.4-0.6,3.8-3,3.3-5.4c-2.9-15.8-15.6-27.2-30.3-27.2H51
		c-14.4,0-27.2,11.2-30.2,26.7v0.2l-6.9,39.4C13.4,159.1,14.9,161.5,17.3,162.2z"/>
	<path class="st0" d="M228.7,87.2c13.7,0,24.8-12.2,24.8-27.2s-11.1-27.2-24.8-27.2c-13.7,0-24.8,12.2-24.8,27.2
		S215.1,87.2,228.7,87.2z M228.7,42.1c9,0,16.4,8,16.4,17.9S237.7,78,228.7,78s-16.4-8-16.4-17.9S219.7,42.1,228.7,42.1z"/>
	<path class="st0" d="M196.5,123.2c2.3,0.4,4.5-1.1,4.9-3.4c0-0.1,0-0.1,0-0.2c2.1-11.5,11.4-19.8,22-19.8h10
		c10.5,0,19.7,8.1,21.9,19.4l6.8,39.4c0.3,2.1,2,3.7,4.1,3.8c0.3,0,0.5,0,0.8,0c2.4-0.6,3.8-3,3.3-5.4l-6.9-39.5l0,0
		c-3-15.5-15.7-26.7-30.2-26.7h-9.9c-14.7,0-27.4,11.4-30.3,27.2C192.8,120.2,194.2,122.5,196.5,123.2z"/>
</g>
</svg>
