<?xml version="1.0" standalone="no"?>
<!DOCTYPE svg PUBLIC "-//W3C//DTD SVG 20010904//EN"
 "http://www.w3.org/TR/2001/REC-SVG-20010904/DTD/svg10.dtd">
<svg version="1.0" xmlns="http://www.w3.org/2000/svg"
 width="1280.000000pt" height="756.000000pt" viewBox="0 0 1280.000000 756.000000"
 preserveAspectRatio="xMidYMid meet">
<metadata>
Created by potrace 1.16, written by Peter Selinger 2001-2019
</metadata>
<g transform="translate(0.000000,756.000000) scale(0.100000,-0.100000)"
fill="#000000" stroke="none">
<path d="M0 3780 l0 -3780 3548 0 c2573 1 3542 4 3527 12 -31 17 -45 39 -45
73 0 30 30 75 50 75 6 0 10 454 10 1240 l0 1240 -130 0 -130 0 0 -673 0 -673
65 -66 65 -65 0 -305 0 -304 30 -22 c24 -18 30 -30 30 -62 0 -71 -82 -106
-130 -55 -34 37 -31 82 8 115 l32 26 0 300 0 300 -60 59 -60 59 0 683 0 683
-150 0 -150 0 0 -598 0 -598 -55 -54 -55 -54 0 -348 0 -347 29 -15 c16 -9 31
-23 35 -31 33 -86 -66 -154 -129 -90 -36 35 -32 71 10 111 l35 33 0 353 0 354
50 49 50 49 0 593 0 593 -120 0 -120 0 0 -425 c0 -289 3 -425 10 -425 23 0 60
-50 60 -80 0 -66 -85 -105 -130 -60 -42 42 -35 109 15 132 l25 11 0 424 0 423
-245 0 -245 0 0 -303 0 -302 100 -100 100 -100 0 -308 0 -309 30 -28 c22 -21
30 -37 30 -63 0 -65 -85 -102 -130 -57 -41 41 -35 93 15 126 l25 16 0 312 -1
311 -94 95 -95 95 0 308 0 307 -105 0 -105 0 0 -398 0 -397 -95 -95 -95 -95 0
-412 c0 -269 3 -413 10 -413 21 0 50 -41 50 -71 0 -43 -15 -65 -50 -78 -82
-28 -141 66 -83 132 9 9 22 17 30 17 11 0 13 74 13 418 l0 417 95 95 95 95 0
392 0 393 -45 0 -45 0 0 -128 0 -127 -130 -130 -130 -130 0 -528 0 -528 30
-26 c53 -44 34 -122 -35 -139 -29 -7 -68 14 -85 47 -17 31 -2 79 31 98 l29 16
0 535 0 535 130 130 130 130 0 122 0 123 -115 0 -115 0 0 -41 c0 -33 6 -47 30
-69 40 -37 42 -89 4 -119 -50 -40 -114 -18 -130 44 -7 28 14 68 46 85 15 8 20
21 20 55 l0 45 -282 2 -283 3 -3 28 -3 27 1421 0 1421 0 -3 -28 -3 -27 -117
-3 c-110 -2 -118 -4 -118 -22 0 -19 7 -20 125 -20 l125 0 0 36 c0 45 24 42 28
-4 3 -28 7 -32 33 -32 30 0 129 44 129 58 0 4 17 14 38 22 28 10 104 15 320
17 155 2 282 1 282 -3 0 -3 -9 -19 -21 -35 l-20 -29 -235 0 c-231 0 -235 0
-284 -25 l-50 -25 0 -616 0 -616 -80 -82 -80 -82 0 -61 c0 -54 2 -61 25 -71
14 -7 30 -23 35 -38 21 -55 -16 -108 -77 -108 -72 0 -100 89 -43 137 28 24 30
31 30 89 l0 63 80 80 80 80 0 603 0 604 -44 -26 c-26 -15 -60 -26 -80 -26
l-36 0 0 -376 0 -375 30 -26 c22 -18 30 -34 30 -57 0 -93 -118 -115 -151 -28
-13 33 10 87 40 97 21 6 21 12 21 386 l0 379 -125 0 -125 0 0 -1172 0 -1173
29 -16 c55 -32 48 -115 -12 -139 -13 -5 1166 -9 2821 -9 l2842 -1 0 3780 0
3780 -3547 -1 c-2006 0 -3539 -4 -3527 -9 28 -11 54 -48 54 -76 0 -26 -36 -74
-56 -74 -12 0 -14 -172 -14 -1240 l0 -1240 130 0 130 0 0 678 0 678 -60 59
-60 59 0 308 0 308 -24 12 c-36 16 -52 60 -36 98 22 53 77 66 124 29 38 -30
36 -82 -4 -119 l-30 -28 0 -299 0 -299 60 -59 60 -59 0 -683 0 -683 150 0 150
0 0 598 0 598 50 49 50 49 0 358 c0 293 -2 358 -13 358 -24 0 -47 36 -47 73 0
46 29 77 71 77 43 0 65 -15 78 -51 13 -38 -3 -79 -37 -94 l-22 -10 0 -355 0
-356 -50 -49 -50 -49 0 -598 0 -598 115 0 115 0 0 423 0 423 -30 22 c-80 60 6
183 88 126 49 -34 47 -107 -3 -134 l-25 -13 0 -424 0 -423 240 0 240 0 0 308
0 307 -95 95 -95 95 0 311 0 312 -25 16 c-30 20 -48 60 -39 88 10 31 46 58 79
58 73 0 104 -98 45 -142 l-30 -22 0 -311 0 -310 95 -95 95 -95 0 -307 0 -308
105 0 105 0 0 398 0 397 95 95 95 95 0 412 c0 407 0 412 -21 418 -11 4 -27 21
-36 39 -13 29 -14 37 -2 62 20 41 62 59 100 44 35 -15 49 -37 49 -79 0 -30
-29 -71 -50 -71 -7 0 -10 -146 -10 -418 l0 -417 -100 -100 -100 -100 0 -387 0
-388 50 0 50 0 0 128 0 127 130 130 130 130 0 532 c0 531 0 532 -21 538 -11 4
-27 22 -35 40 -24 58 10 109 71 109 47 0 75 -28 75 -76 0 -37 -26 -78 -50 -78
-7 0 -10 -184 -10 -533 l0 -532 -130 -130 -130 -130 0 -127 0 -128 115 0 115
0 0 44 c0 36 -5 47 -25 60 -69 45 -41 145 41 146 72 0 102 -98 44 -142 -25
-18 -30 -29 -30 -65 l0 -43 283 -2 282 -3 3 -27 3 -28 -1420 0 -1421 0 0 30 0
30 120 0 c113 0 120 1 120 20 0 19 -7 20 -125 20 l-125 0 0 -35 c0 -24 -5 -35
-15 -35 -10 0 -15 11 -15 35 0 32 -2 35 -30 35 -34 0 -130 -45 -130 -60 0 -6
-10 -10 -23 -10 -13 0 -32 -7 -43 -15 -16 -12 -69 -14 -303 -15 l-284 0 25 33
26 32 243 5 c236 5 245 6 287 29 l42 25 0 616 0 615 80 80 80 80 0 60 c0 53
-3 61 -22 70 -57 25 -61 97 -6 138 46 34 118 -5 118 -64 0 -30 -34 -79 -56
-79 -11 0 -14 -16 -14 -73 l0 -73 -75 -74 -75 -74 0 -604 0 -604 44 26 c26 15
60 26 80 26 l36 0 0 378 0 379 -25 11 c-25 11 -45 47 -45 78 0 9 14 29 30 46
26 25 36 29 63 24 70 -13 91 -94 37 -139 l-30 -26 0 -375 0 -376 125 0 125 0
0 1175 c0 1011 -2 1175 -14 1175 -22 0 -56 49 -56 80 0 26 29 62 60 73 8 3
-1266 6 -2832 6 l-2848 1 0 -3780z m8380 995 l0 -35 -177 0 -178 0 -99 -55
-99 -55 -385 0 -385 0 -54 30 -53 30 -563 0 -564 0 -54 -30 -54 -30 -386 0
-386 0 -99 55 -99 55 -187 0 -188 0 0 35 0 35 2005 0 2005 0 0 -35z m0 -125
l0 -40 -162 0 -163 0 -104 -55 -104 -55 -274 0 c-150 0 -273 3 -273 6 0 3 12
21 26 40 l26 34 242 0 241 0 95 55 95 54 178 0 177 1 0 -40z m-2632 -566 c26
-18 28 -32 6 -41 -9 -3 -21 3 -30 16 -17 23 -44 27 -62 9 -7 -7 -12 -38 -12
-70 0 -58 0 -58 30 -58 17 0 30 -4 30 -10 0 -5 -13 -10 -29 -10 l-28 0 -5
-148 c-5 -164 -17 -206 -71 -244 -54 -39 -177 -34 -177 7 0 25 21 28 37 6 23
-34 72 -25 96 17 17 28 21 59 25 198 l5 164 -32 0 c-38 0 -41 17 -3 22 24 3
28 8 32 50 6 48 30 84 65 99 33 13 99 10 123 -7z m1513 6 c21 -12 26 -50 6
-50 -7 0 -18 9 -25 20 -7 11 -23 20 -37 20 -31 0 -47 -36 -43 -94 3 -38 5 -41
36 -44 43 -4 41 -22 -3 -22 l-35 0 0 -147 c0 -126 -3 -152 -20 -188 -24 -50
-81 -85 -136 -85 -63 0 -84 9 -84 36 0 29 11 30 35 4 30 -33 76 -23 97 20 15
29 18 63 18 198 l0 162 -25 0 c-14 0 -25 5 -25 10 0 6 11 10 24 10 20 0 24 6
30 48 7 49 27 81 61 100 25 14 100 15 126 2z m3493 4 c13 -5 16 -24 16 -100 0
-94 6 -108 31 -78 38 46 108 36 130 -19 21 -50 17 -174 -6 -222 -22 -44 -76
-85 -109 -84 -12 0 -15 3 -8 6 22 9 40 56 46 128 12 131 -20 210 -65 156 -16
-20 -19 -39 -19 -132 0 -106 0 -109 -24 -115 -13 -3 -34 -1 -45 6 -20 10 -21
18 -21 220 0 193 -1 210 -17 210 -16 1 -16 2 1 15 20 15 63 20 90 9z m986 -13
c6 -12 10 -103 10 -225 0 -198 -1 -206 -21 -216 -11 -7 -32 -9 -45 -6 l-24 6
0 211 c0 207 0 211 -21 216 -21 6 -21 6 2 19 37 20 86 18 99 -5z m-11367 -12
c37 -17 52 -56 32 -86 -23 -34 -48 -26 -55 17 -8 46 -17 60 -39 60 -29 0 -67
-46 -82 -98 -8 -26 -14 -90 -14 -142 0 -106 21 -179 58 -205 31 -21 89 -19
120 5 15 12 28 16 32 11 8 -14 -63 -58 -108 -67 -26 -4 -52 -1 -83 11 -87 33
-132 138 -121 280 8 107 49 184 111 211 38 16 117 18 149 3z m2335 -1 c9 -9
12 -70 12 -215 0 -190 -1 -203 -19 -213 -27 -14 -47 -13 -65 6 -13 13 -16 46
-16 210 0 217 -1 219 -65 188 -64 -30 -74 -86 -13 -82 24 2 33 -1 36 -15 9
-43 -53 -64 -90 -30 -40 36 -12 109 54 142 48 24 146 29 166 9z m3916 6 c14
-5 16 -34 16 -213 0 -218 -3 -231 -46 -231 -40 0 -43 18 -46 226 l-3 199 -30
-2 c-41 -3 -79 -34 -83 -68 -3 -26 -2 -27 31 -21 26 5 36 3 41 -9 8 -23 -4
-45 -29 -51 -37 -9 -59 -1 -73 29 -31 65 57 147 159 147 26 0 54 -3 63 -6z
m3521 -19 c0 -22 -6 -22 -73 -5 -24 6 -47 8 -53 5 -5 -4 -9 -94 -9 -210 l0
-205 -27 -6 c-55 -14 -58 -6 -61 220 l-2 206 -28 -6 c-77 -19 -112 -44 -112
-82 0 -22 3 -24 34 -18 26 5 35 3 40 -9 20 -52 -68 -79 -100 -30 -22 34 -10
79 32 113 52 42 96 51 234 49 118 -2 125 -3 125 -22z m-8733 -67 c3 -40 5 -43
36 -46 31 -3 32 -2 26 22 -4 19 -2 26 9 26 12 0 27 -19 27 -35 0 -15 -38 -35
-66 -35 l-34 0 0 -109 c0 -144 8 -163 53 -123 19 16 20 16 9 -4 -15 -29 -34
-43 -70 -50 -25 -5 -36 -1 -56 19 -25 25 -26 31 -26 147 0 100 -2 120 -15 120
-27 0 -16 19 20 34 20 9 43 29 53 46 23 40 30 38 34 -12z m848 -3 c0 -43 1
-45 29 -45 31 0 50 15 29 23 -10 3 -10 7 -1 17 14 16 33 4 33 -20 0 -23 -28
-40 -64 -40 l-26 0 0 -119 c0 -126 7 -146 41 -115 25 23 25 0 -1 -26 -28 -28
-69 -36 -99 -19 -26 15 -26 17 -29 147 -2 124 -4 132 -22 132 -26 0 -26 17 0
25 29 9 80 54 80 71 0 8 7 14 15 14 11 0 15 -12 15 -45z m2210 0 c0 -45 0 -45
35 -45 34 0 46 12 24 26 -7 4 -7 10 -1 16 14 14 32 1 32 -22 0 -23 -28 -40
-65 -40 l-26 0 3 -122 c3 -125 10 -144 42 -113 9 9 16 12 16 6 0 -18 -38 -50
-67 -57 -16 -4 -36 -2 -52 7 -26 15 -26 17 -29 147 -2 124 -4 132 -22 132 -27
0 -25 17 3 25 28 9 77 54 77 72 0 7 7 13 15 13 11 0 15 -12 15 -45z m4240 0
c0 -45 0 -45 35 -45 34 0 46 12 24 26 -7 4 -7 10 -1 16 14 14 32 1 32 -22 0
-23 -28 -40 -65 -40 l-26 0 3 -122 c3 -125 10 -144 42 -113 9 9 16 12 16 6 0
-18 -38 -50 -67 -57 -16 -4 -36 -2 -52 7 -26 15 -26 17 -29 147 -2 124 -4 132
-22 132 -27 0 -25 17 3 25 28 9 77 54 77 72 0 7 7 13 15 13 11 0 15 -12 15
-45z m3688 -16 c2 -15 -5 -32 -17 -43 -18 -16 -18 -20 -5 -53 39 -92 -39 -184
-142 -168 -39 5 -44 4 -44 -13 0 -21 33 -32 102 -32 81 0 128 -39 114 -95 -14
-54 48 -55 108 -2 l36 32 -38 111 c-47 140 -83 209 -106 208 -28 -3 1 23 34
30 52 10 74 -7 108 -83 17 -38 37 -90 43 -115 6 -26 15 -46 20 -46 18 0 42
113 36 176 -4 49 -1 64 10 68 25 10 33 -3 33 -52 0 -108 -49 -237 -118 -314
-50 -55 -106 -79 -179 -77 -32 2 -79 -1 -105 -6 -86 -14 -168 10 -168 50 0 8
12 25 26 38 22 21 23 25 10 37 -23 18 -20 52 6 80 15 16 18 25 10 28 -20 6
-42 58 -42 97 0 89 86 143 178 112 23 -8 44 -12 47 -9 9 10 5 52 -6 52 -5 0
-7 5 -4 11 13 20 50 5 53 -22z m-11760 -46 c79 -50 84 -201 7 -261 -64 -50
-164 -28 -198 43 -21 43 -22 126 -3 163 39 75 125 99 194 55z m193 17 c10 -6
19 -17 19 -25 0 -20 14 -19 31 1 38 46 108 36 130 -19 21 -50 17 -174 -6 -222
-22 -44 -76 -85 -109 -84 -12 0 -15 3 -8 6 23 9 41 59 47 134 11 129 -22 204
-66 150 -16 -20 -19 -39 -19 -131 0 -110 -4 -120 -43 -120 -37 1 -42 18 -47
152 -4 99 -8 132 -17 131 -28 -6 -11 17 20 26 43 12 45 13 68 1z m378 -1 c44
-15 57 -79 16 -79 -21 0 -28 19 -15 35 10 12 9 16 -3 21 -25 9 -51 0 -55 -18
-2 -11 17 -40 47 -71 64 -67 76 -97 57 -141 -26 -62 -131 -71 -181 -16 -21 24
-17 25 19 6 32 -16 63 -11 76 14 10 18 0 35 -62 112 -38 48 -43 78 -18 110 18
24 35 32 76 37 6 0 25 -4 43 -10z m466 1 c66 -15 75 -35 75 -162 0 -109 0
-110 23 -105 20 6 20 4 -6 -19 -34 -29 -60 -31 -88 -3 -20 20 -21 20 -41 3
-26 -24 -92 -24 -115 -1 -23 23 -23 89 0 115 10 10 37 27 60 37 56 25 77 44
77 70 0 28 -18 45 -50 45 -36 0 -54 -20 -33 -35 23 -17 9 -47 -19 -43 -17 2
-24 11 -26 31 -4 35 11 54 52 66 41 12 44 12 91 1z m226 0 c10 -6 19 -17 19
-25 0 -20 14 -19 31 1 35 43 106 36 127 -11 19 -42 25 -120 12 -179 -15 -71
-58 -123 -110 -133 l-35 -6 22 19 c26 22 44 97 42 178 -1 66 -10 97 -32 110
-15 9 -22 6 -38 -13 -16 -20 -19 -39 -19 -131 0 -110 -4 -120 -43 -120 -37 1
-42 18 -47 152 -4 108 -8 132 -19 130 -12 -3 -12 0 -2 12 11 13 24 18 64 25 5
0 17 -4 28 -9z m984 -15 c16 -18 26 -22 30 -14 4 6 23 17 42 25 69 29 111 -21
112 -136 1 -30 -4 -73 -10 -95 -15 -52 -77 -115 -114 -115 l-27 0 21 18 c27
21 40 76 41 163 0 79 -15 129 -39 129 -35 0 -41 -21 -41 -137 0 -104 -2 -113
-21 -123 -11 -7 -32 -9 -45 -6 -24 6 -24 8 -24 134 0 125 -7 161 -29 148 -6
-4 -11 -4 -11 -1 0 7 60 34 78 35 7 0 24 -11 37 -25z m328 1 l21 -24 28 21
c37 27 86 27 109 -2 38 -47 37 -190 -1 -259 -24 -42 -65 -72 -100 -72 l-22 0
21 18 c27 21 40 76 41 169 0 80 -14 123 -41 123 -29 0 -34 -18 -39 -139 -5
-124 -13 -140 -63 -127 l-26 6 -3 138 c-3 123 -5 137 -20 136 -27 -2 -22 5 15
21 45 20 55 18 80 -9z m445 -3 c83 -52 82 -206 -1 -267 -20 -15 -43 -21 -75
-20 -92 1 -137 60 -130 170 3 54 9 68 33 94 48 50 117 59 173 23z m181 10 c16
-13 25 -40 36 -102 22 -127 56 -161 87 -88 14 35 18 139 5 173 -5 16 -3 23 9
28 28 11 34 -3 34 -73 0 -90 -24 -167 -65 -208 -78 -78 -138 -9 -172 202 -7
38 -13 50 -26 49 -26 -3 -20 5 16 21 42 19 51 18 76 -2z m383 7 c59 -17 68
-38 68 -163 0 -108 0 -109 23 -104 20 6 20 4 -6 -19 -34 -29 -60 -31 -88 -3
-18 18 -23 19 -37 6 -45 -39 -107 -31 -128 18 -24 57 -1 100 69 130 56 25 77
44 77 70 0 29 -18 45 -51 45 -33 0 -45 -15 -29 -35 18 -21 4 -47 -22 -43 -17
2 -24 11 -26 31 -4 35 11 54 52 66 42 12 55 13 98 1z m450 -13 c13 -21 9 -272
-4 -285 -16 -16 -53 -15 -66 1 -7 8 -13 68 -14 143 -3 116 -5 129 -20 128 -27
-2 -22 5 15 21 34 15 77 11 89 -8z m279 -3 c59 -30 80 -160 36 -225 -82 -123
-247 -63 -247 89 0 128 100 193 211 136z m190 16 c10 -6 19 -17 19 -25 0 -20
3 -19 47 11 59 40 102 21 123 -56 34 -122 -21 -259 -110 -276 l-35 -7 23 19
c28 24 46 115 39 203 -6 72 -26 103 -55 85 -14 -9 -18 -32 -22 -128 -5 -117
-11 -135 -47 -136 -40 0 -43 8 -43 140 0 94 -3 130 -13 139 -8 6 -18 7 -23 3
-4 -4 -3 1 5 10 11 14 24 20 64 27 5 0 17 -4 28 -9z m787 -17 c83 -52 82 -206
-1 -267 -36 -26 -111 -27 -149 -2 -73 48 -79 197 -10 259 41 38 110 42 160 10z
m204 3 c4 -6 8 -17 8 -25 0 -8 14 -1 35 18 40 34 37 33 59 25 11 -4 16 -19 16
-42 0 -28 -3 -33 -12 -24 -17 17 -44 15 -73 -4 -24 -16 -25 -21 -25 -125 0
-106 0 -109 -24 -115 -13 -3 -33 -1 -45 5 -19 11 -21 22 -23 144 -2 99 -6 131
-15 130 -28 -6 -11 17 20 26 35 10 68 5 79 -13z m680 0 c4 -6 9 -15 11 -21 3
-5 16 1 31 14 33 31 80 32 109 2 19 -18 23 -35 25 -110 3 -73 0 -97 -16 -135
-21 -47 -70 -86 -107 -86 -19 1 -19 2 -3 14 28 21 38 62 38 162 0 125 -17 158
-62 117 -15 -14 -18 -32 -18 -129 0 -112 0 -114 -24 -120 -13 -3 -33 -1 -45 5
-19 11 -21 22 -23 144 -3 118 -5 132 -20 131 -28 -3 -10 15 25 25 35 10 68 5
79 -13z m638 -5 c34 -24 60 -78 60 -126 0 -51 -31 -119 -64 -140 -64 -42 -152
-21 -190 44 -28 48 -26 137 3 185 13 20 23 36 24 36 1 0 20 7 42 15 45 16 88
12 125 -14z m188 13 c12 -8 22 -22 22 -31 0 -11 10 -6 35 16 20 17 39 31 43
31 26 0 44 -61 22 -75 -5 -3 -10 -1 -10 4 0 16 -42 13 -68 -5 -20 -14 -22 -23
-22 -124 l0 -110 -27 -6 c-51 -13 -58 1 -63 147 -4 119 -7 134 -22 133 -40 -3
13 27 62 35 3 1 16 -6 28 -15z m243 6 c10 -6 19 -17 19 -25 0 -20 7 -19 39 4
48 34 77 36 106 7 l26 -26 28 19 c43 31 74 35 102 13 23 -19 24 -27 28 -142 2
-99 6 -120 17 -116 28 11 13 -11 -20 -29 -29 -16 -39 -17 -60 -7 -26 11 -26
13 -26 124 0 131 -6 149 -44 128 -25 -13 -26 -16 -26 -121 0 -110 -9 -139 -45
-139 -42 0 -45 8 -45 129 0 133 -6 151 -44 133 -26 -11 -26 -13 -26 -121 0
-115 -9 -141 -48 -141 -42 1 -47 14 -52 152 -4 108 -8 132 -19 130 -12 -3 -12
0 -2 12 11 13 24 18 64 25 5 0 17 -4 28 -9z m581 0 c59 -17 68 -38 68 -163 0
-108 0 -109 23 -104 20 6 20 4 -6 -19 -34 -29 -60 -31 -88 -3 -18 18 -23 19
-37 6 -39 -34 -104 -31 -123 5 -16 30 -13 87 5 107 9 10 36 26 59 36 56 25 77
44 77 70 0 29 -18 45 -51 45 -33 0 -45 -15 -29 -35 18 -21 4 -47 -22 -43 -17
2 -24 11 -26 31 -4 35 11 54 52 66 42 12 55 13 98 1z m450 -13 c13 -21 9 -272
-4 -285 -16 -16 -53 -15 -66 1 -7 8 -13 68 -14 143 -3 116 -5 129 -20 128 -27
-2 -22 5 15 21 34 15 77 11 89 -8z m279 -3 c59 -30 80 -160 36 -225 -82 -123
-247 -63 -247 89 0 128 100 193 211 136z m190 16 c10 -6 19 -17 19 -25 0 -20
3 -19 47 11 59 40 102 21 123 -56 34 -122 -21 -259 -110 -276 l-35 -7 23 19
c28 24 46 115 39 203 -6 72 -26 103 -55 85 -14 -9 -18 -32 -22 -128 -5 -117
-11 -135 -47 -136 -40 0 -43 8 -43 140 0 94 -3 130 -13 139 -8 6 -18 7 -23 3
-4 -4 -3 1 5 10 11 14 24 20 64 27 5 0 17 -4 28 -9z m925 -5 c31 -13 35 -18
32 -47 -3 -28 -11 -37 -68 -70 -36 -21 -66 -44 -68 -52 -6 -26 26 -73 58 -86
27 -11 37 -11 68 4 l37 18 -24 -26 c-48 -51 -131 -58 -186 -14 -96 75 -57 242
64 278 38 12 48 11 87 -5z m297 -13 c33 -30 10 -89 -30 -75 -7 3 -13 18 -13
34 0 60 -62 44 -81 -20 -17 -58 -4 -128 31 -163 32 -32 57 -35 103 -12 l32 15
-31 -29 c-84 -79 -215 -30 -231 86 -14 105 76 202 172 185 17 -3 38 -12 48
-21z m478 18 c10 -6 19 -17 19 -25 0 -20 14 -19 31 1 35 43 106 36 127 -11 19
-42 25 -120 12 -179 -15 -71 -58 -123 -110 -133 l-35 -6 23 19 c19 16 26 36
34 100 19 139 -15 233 -63 175 -16 -20 -19 -39 -19 -131 0 -110 -4 -120 -43
-120 -37 1 -42 18 -47 152 -4 108 -8 132 -19 130 -12 -3 -12 0 -2 12 11 13 24
18 64 25 5 0 17 -4 28 -9z m456 -16 c58 -37 79 -131 45 -207 -49 -111 -185
-115 -239 -7 -27 52 -29 95 -7 150 32 80 128 110 201 64z m481 -1 c83 -52 82
-206 -1 -267 -36 -26 -111 -27 -149 -2 -73 48 -79 197 -10 259 41 38 110 42
160 10z m-6514 -875 c-4 -7 -17 -25 -28 -40 l-20 -28 -240 0 -241 0 -99 -55
-99 -55 -174 0 -173 0 0 40 0 40 163 0 162 0 100 55 100 54 278 1 c220 0 277
-3 271 -12z m303 -148 l53 -30 560 0 561 0 59 30 59 30 383 0 383 0 99 -55 99
-55 189 0 189 0 -3 -32 -3 -33 -2002 -3 -2003 -2 0 35 0 35 178 0 177 0 95 55
95 54 389 0 389 1 54 -30z"/>
<path d="M539 3904 c-9 -11 -15 -47 -17 -103 -3 -94 10 -136 43 -136 30 0 45
42 45 125 0 106 -33 159 -71 114z"/>
<path d="M3556 3898 c-12 -16 -16 -47 -16 -108 0 -61 4 -92 16 -108 41 -58 79
10 72 130 -6 102 -36 138 -72 86z"/>
<path d="M4849 3903 c-9 -10 -15 -48 -17 -102 -3 -94 10 -136 43 -136 30 0 45
42 45 130 0 107 -32 156 -71 108z"/>
<path d="M5826 3898 c-25 -35 -22 -188 3 -219 16 -19 23 -22 37 -13 26 15 37
68 32 151 -7 98 -37 132 -72 81z"/>
<path d="M7346 3898 c-12 -16 -16 -47 -16 -108 0 -88 15 -130 45 -130 46 0 61
202 19 245 -21 20 -30 19 -48 -7z"/>
<path d="M9089 3903 c-9 -10 -15 -48 -17 -102 -3 -94 10 -136 43 -136 30 0 45
42 45 130 0 107 -32 156 -71 108z"/>
<path d="M11435 3900 c-15 -16 -18 -37 -18 -108 0 -49 5 -97 12 -110 14 -26
47 -29 59 -4 28 52 25 198 -4 227 -20 20 -27 19 -49 -5z"/>
<path d="M11916 3898 c-25 -35 -22 -188 3 -219 16 -19 23 -22 37 -13 26 15 37
68 32 151 -7 98 -37 132 -72 81z"/>
</g>
</svg>
