<?xml version="1.0" encoding="UTF-8" standalone="no" ?>
<!DOCTYPE svg PUBLIC "-//W3C//DTD SVG 1.1//EN" "http://www.w3.org/Graphics/SVG/1.1/DTD/svg11.dtd">
<svg xmlns="http://www.w3.org/2000/svg" xmlns:xlink="http://www.w3.org/1999/xlink" version="1.1" width="1280" height="1024" viewBox="0 0 1280 1024" xml:space="preserve">
<desc>Created with Fabric.js 4.4.0</desc>
<defs>
</defs>
<g transform="matrix(1 0 0 1 640 512)" id="background-logo"  >
<rect style="stroke: none; stroke-width: 0; stroke-dasharray: none; stroke-linecap: butt; stroke-dashoffset: 0; stroke-linejoin: miter; stroke-miterlimit: 4; fill: rgb(0,42,47); fill-rule: nonzero; opacity: 1;"  paint-order="stroke"  x="-640" y="-512" rx="0" ry="0" width="1280" height="1024" />
</g>
<g transform="matrix(1.9211538461538462 0 0 1.9211538461538462 640 512)" id="logo-logo"  >
<g style=""  paint-order="stroke"   >
		<g transform="matrix(0.7110394582266032 0 0 0.7110394582266031 1.6819475385211717 83.66150965291331)"  >
<g style=""  paint-order="stroke"   >
		<g transform="matrix(1 0 0 1 -94.227 -73.63250000000002)"  >
<path style="stroke: none; stroke-width: 1; stroke-dasharray: none; stroke-linecap: butt; stroke-dashoffset: 0; stroke-linejoin: miter; stroke-miterlimit: 4; fill: rgb(0,244,255); fill-rule: nonzero; opacity: 1;"  paint-order="stroke"  transform=" translate(-5.773, -76.69200000000001)" d="M 5.773 131.469 C 8.959999999999999 131.469 11.546 128.884 11.546 125.696 C 11.546 122.835 9.463 120.459 6.733 120.002 L 6.733 101.595 L 6.816 101.595 L 6.816 21.915 L 4.73 21.915 L 4.73 101.59700000000001 L 4.813000000000001 101.59700000000001 L 4.813000000000001 120.004 C 2.083 120.46 0 122.835 0 125.697 C 0 128.884 2.585 131.469 5.773 131.469 z" stroke-linecap="round" />
</g>
		<g transform="matrix(1 0 0 1 -87.353 -4.387000000000029)"  >
<path style="stroke: none; stroke-width: 1; stroke-dasharray: none; stroke-linecap: butt; stroke-dashoffset: 0; stroke-linejoin: miter; stroke-miterlimit: 4; fill: rgb(0,244,255); fill-rule: nonzero; opacity: 1;"  paint-order="stroke"  transform=" translate(-12.647, -145.9375)" d="M 6.732 225.381 L 6.732 150.428 L 25.294 131.86599999999999 L 25.294 55.025 L 23.375 55.025 L 23.375 131.073 L 4.813 149.635 L 4.813 225.384 C 2.083 225.84 0 228.215 0 231.077 C 0 234.264 2.585 236.85 5.773 236.85 C 8.959999999999999 236.85 11.546 234.265 11.546 231.077 C 11.546 228.213 9.463 225.838 6.732 225.381 z" stroke-linecap="round" />
</g>
		<g transform="matrix(1 0 0 1 -76.2725 3.730999999999966)"  >
<path style="stroke: none; stroke-width: 1; stroke-dasharray: none; stroke-linecap: butt; stroke-dashoffset: 0; stroke-linejoin: miter; stroke-miterlimit: 4; fill: rgb(0,244,255); fill-rule: nonzero; opacity: 1;"  paint-order="stroke"  transform=" translate(-23.727500000000003, -154.0555)" d="M 32.045 168.967 L 18.303 182.709 L 18.303 241.61700000000002 C 15.572000000000001 242.074 13.490000000000002 244.449 13.490000000000002 247.311 C 13.490000000000002 250.49800000000002 16.075000000000003 253.084 19.263 253.084 C 22.451 253.084 25.036 250.499 25.036 247.311 C 25.036 244.45000000000002 22.953000000000003 242.074 20.223000000000003 241.61700000000002 L 20.223000000000003 183.50400000000002 L 33.965 169.76200000000003 L 33.965 55.027 L 32.04600000000001 55.027 L 32.04600000000001 168.967 z" stroke-linecap="round" />
</g>
		<g transform="matrix(1 0 0 1 -41.102 -36.55850000000005)"  >
<path style="stroke: none; stroke-width: 1; stroke-dasharray: none; stroke-linecap: butt; stroke-dashoffset: 0; stroke-linejoin: miter; stroke-miterlimit: 4; fill: rgb(0,244,255); fill-rule: nonzero; opacity: 1;"  paint-order="stroke"  transform=" translate(-58.898, -113.76599999999998)" d="M 64.245 215.044 L 64.245 170.262 L 50.656000000000006 156.673 L 50.656000000000006 1.02 L 48.73700000000001 1.02 L 48.73700000000001 157.47 L 62.32600000000001 171.059 L 62.32600000000001 215.045 C 59.595000000000006 215.50199999999998 57.513000000000005 217.87699999999998 57.513000000000005 220.73899999999998 C 57.513000000000005 223.926 60.098000000000006 226.51199999999997 63.286 226.51199999999997 C 66.474 226.51199999999997 69.059 223.92699999999996 69.059 220.73899999999998 C 69.058 217.877 66.975 215.501 64.245 215.044 z" stroke-linecap="round" />
</g>
		<g transform="matrix(1 0 0 1 -14.162999999999997 -57.70000000000003)"  >
<path style="stroke: none; stroke-width: 1; stroke-dasharray: none; stroke-linecap: butt; stroke-dashoffset: 0; stroke-linejoin: miter; stroke-miterlimit: 4; fill: rgb(0,244,255); fill-rule: nonzero; opacity: 1;"  paint-order="stroke"  transform=" translate(-85.837, -92.6245)" d="M 86.796 173.782 L 86.796 0 L 84.87700000000001 0 L 84.87700000000001 173.782 C 82.14600000000002 174.239 80.06400000000001 176.614 80.06400000000001 179.476 C 80.06400000000001 182.663 82.649 185.249 85.837 185.249 C 89.025 185.249 91.61 182.664 91.61 179.476 C 91.609 176.614 89.528 174.239 86.796 173.782 z" stroke-linecap="round" />
</g>
		<g transform="matrix(1 0 0 1 -1.5840000000000032 10.744499999999988)"  >
<path style="stroke: none; stroke-width: 1; stroke-dasharray: none; stroke-linecap: butt; stroke-dashoffset: 0; stroke-linejoin: miter; stroke-miterlimit: 4; fill: rgb(0,244,255); fill-rule: nonzero; opacity: 1;"  paint-order="stroke"  transform=" translate(-98.416, -161.06900000000002)" d="M 103.457 197.838 L 96.268 205.027 L 96.268 255.64399999999998 C 93.537 256.101 91.455 258.476 91.455 261.33799999999997 C 91.455 264.525 94.03999999999999 267.111 97.228 267.111 C 100.416 267.111 103.00099999999999 264.526 103.00099999999999 261.33799999999997 C 103.00099999999999 258.477 100.91799999999999 256.10099999999994 98.18799999999999 255.64399999999998 L 98.18799999999999 205.82299999999998 L 105.37699999999998 198.634 L 105.37699999999998 55.027 L 103.45799999999998 55.027 L 103.45799999999998 197.838 z" stroke-linecap="round" />
</g>
		<g transform="matrix(1 0 0 1 34.438500000000005 -3.987000000000023)"  >
<path style="stroke: none; stroke-width: 1; stroke-dasharray: none; stroke-linecap: butt; stroke-dashoffset: 0; stroke-linejoin: miter; stroke-miterlimit: 4; fill: rgb(0,244,255); fill-rule: nonzero; opacity: 1;"  paint-order="stroke"  transform=" translate(-134.4385, -146.3375)" d="M 137.41 261.83 L 137.41 218.33999999999997 L 128.572 209.50199999999998 L 128.572 99.057 L 128.739 99.057 L 128.739 19.375 L 126.653 19.375 L 126.653 69.84899999999999 L 126.653 99.05699999999999 L 126.653 210.298 L 135.491 219.136 L 135.491 261.83299999999997 C 132.76100000000002 262.28999999999996 130.67800000000003 264.66499999999996 130.67800000000003 267.527 C 130.67800000000003 270.714 133.26300000000003 273.3 136.45100000000002 273.3 C 139.63800000000003 273.3 142.22400000000002 270.71500000000003 142.22400000000002 267.527 C 142.224 264.662 140.143 262.287 137.41 261.83 z" stroke-linecap="round" />
</g>
		<g transform="matrix(1 0 0 1 47.989000000000004 0)"  >
<path style="stroke: none; stroke-width: 1; stroke-dasharray: none; stroke-linecap: butt; stroke-dashoffset: 0; stroke-linejoin: miter; stroke-miterlimit: 4; fill: rgb(0,244,255); fill-rule: nonzero; opacity: 1;"  paint-order="stroke"  transform=" translate(-147.989, -150.32450000000003)" d="M 148.947 289.181 L 148.947 79.68099999999998 L 149.114 79.68099999999998 L 149.114 0 L 147.029 0 L 147.029 69.849 L 147.029 79.682 L 147.029 289.182 C 144.298 289.639 142.216 292.014 142.216 294.87600000000003 C 142.216 298.06300000000005 144.80100000000002 300.64900000000006 147.989 300.64900000000006 C 151.177 300.64900000000006 153.762 298.0640000000001 153.762 294.87600000000003 C 153.761 292.014 151.678 289.638 148.947 289.181 z" stroke-linecap="round" />
</g>
		<g transform="matrix(1 0 0 1 72.0915 -28.840500000000034)"  >
<path style="stroke: none; stroke-width: 1; stroke-dasharray: none; stroke-linecap: butt; stroke-dashoffset: 0; stroke-linejoin: miter; stroke-miterlimit: 4; fill: rgb(0,244,255); fill-rule: nonzero; opacity: 1;"  paint-order="stroke"  transform=" translate(-172.0915, -121.484)" d="M 173.39 182.167 C 173.39 179.306 171.307 176.93 168.577 176.473 L 168.577 102.30900000000001 L 182.34 88.546 L 182.34 55.027 L 180.419 55.027 L 180.419 87.751 L 166.656 101.51400000000001 L 166.656 176.474 C 163.925 176.93099999999998 161.84300000000002 179.30599999999998 161.84300000000002 182.16799999999998 C 161.84300000000002 185.355 164.42800000000003 187.94099999999997 167.616 187.94099999999997 C 170.804 187.94099999999997 173.39 185.354 173.39 182.167 z" stroke-linecap="round" />
</g>
		<g transform="matrix(1 0 0 1 82.07749999999999 -31.89900000000003)"  >
<path style="stroke: none; stroke-width: 1; stroke-dasharray: none; stroke-linecap: butt; stroke-dashoffset: 0; stroke-linejoin: miter; stroke-miterlimit: 4; fill: rgb(0,244,255); fill-rule: nonzero; opacity: 1;"  paint-order="stroke"  transform=" translate(-182.0775, -118.4255)" d="M 200 55.025 L 200 0 L 197.914 0 L 197.914 79.682 L 198.081 79.682 L 198.081 89.215 L 180.03 107.266 L 180.03 204.818 L 168.968 215.88000000000002 L 168.968 225.38400000000001 C 166.238 225.841 164.155 228.216 164.155 231.078 C 164.155 234.26500000000001 166.74 236.851 169.928 236.851 C 173.115 236.851 175.701 234.266 175.701 231.078 C 175.701 228.217 173.618 225.841 170.888 225.38400000000001 L 170.888 216.675 L 181.95000000000002 205.613 L 181.95000000000002 108.059 L 200 90.008 L 200 55.025 L 200 55.025 z" stroke-linecap="round" />
</g>
</g>
</g>
		<g transform="matrix(-0.7110394582266032 0 0 -0.7110394582266031 -1.0650682444363042 -83.66150965291331)"  >
<g style=""  paint-order="stroke"   >
		<g transform="matrix(1 0 0 1 -94.227 -73.63250000000002)"  >
<path style="stroke: none; stroke-width: 1; stroke-dasharray: none; stroke-linecap: butt; stroke-dashoffset: 0; stroke-linejoin: miter; stroke-miterlimit: 4; fill: rgb(0,244,255); fill-rule: nonzero; opacity: 1;"  paint-order="stroke"  transform=" translate(-5.773, -76.69200000000001)" d="M 5.773 131.469 C 8.959999999999999 131.469 11.546 128.884 11.546 125.696 C 11.546 122.835 9.463 120.459 6.733 120.002 L 6.733 101.595 L 6.816 101.595 L 6.816 21.915 L 4.73 21.915 L 4.73 101.59700000000001 L 4.813000000000001 101.59700000000001 L 4.813000000000001 120.004 C 2.083 120.46 0 122.835 0 125.697 C 0 128.884 2.585 131.469 5.773 131.469 z" stroke-linecap="round" />
</g>
		<g transform="matrix(1 0 0 1 -87.353 -4.387000000000029)"  >
<path style="stroke: none; stroke-width: 1; stroke-dasharray: none; stroke-linecap: butt; stroke-dashoffset: 0; stroke-linejoin: miter; stroke-miterlimit: 4; fill: rgb(0,244,255); fill-rule: nonzero; opacity: 1;"  paint-order="stroke"  transform=" translate(-12.647, -145.9375)" d="M 6.732 225.381 L 6.732 150.428 L 25.294 131.86599999999999 L 25.294 55.025 L 23.375 55.025 L 23.375 131.073 L 4.813 149.635 L 4.813 225.384 C 2.083 225.84 0 228.215 0 231.077 C 0 234.264 2.585 236.85 5.773 236.85 C 8.959999999999999 236.85 11.546 234.265 11.546 231.077 C 11.546 228.213 9.463 225.838 6.732 225.381 z" stroke-linecap="round" />
</g>
		<g transform="matrix(1 0 0 1 -76.2725 3.730999999999966)"  >
<path style="stroke: none; stroke-width: 1; stroke-dasharray: none; stroke-linecap: butt; stroke-dashoffset: 0; stroke-linejoin: miter; stroke-miterlimit: 4; fill: rgb(0,244,255); fill-rule: nonzero; opacity: 1;"  paint-order="stroke"  transform=" translate(-23.727500000000003, -154.0555)" d="M 32.045 168.967 L 18.303 182.709 L 18.303 241.61700000000002 C 15.572000000000001 242.074 13.490000000000002 244.449 13.490000000000002 247.311 C 13.490000000000002 250.49800000000002 16.075000000000003 253.084 19.263 253.084 C 22.451 253.084 25.036 250.499 25.036 247.311 C 25.036 244.45000000000002 22.953000000000003 242.074 20.223000000000003 241.61700000000002 L 20.223000000000003 183.50400000000002 L 33.965 169.76200000000003 L 33.965 55.027 L 32.04600000000001 55.027 L 32.04600000000001 168.967 z" stroke-linecap="round" />
</g>
		<g transform="matrix(1 0 0 1 -41.102 -36.55850000000005)"  >
<path style="stroke: none; stroke-width: 1; stroke-dasharray: none; stroke-linecap: butt; stroke-dashoffset: 0; stroke-linejoin: miter; stroke-miterlimit: 4; fill: rgb(0,244,255); fill-rule: nonzero; opacity: 1;"  paint-order="stroke"  transform=" translate(-58.898, -113.76599999999998)" d="M 64.245 215.044 L 64.245 170.262 L 50.656000000000006 156.673 L 50.656000000000006 1.02 L 48.73700000000001 1.02 L 48.73700000000001 157.47 L 62.32600000000001 171.059 L 62.32600000000001 215.045 C 59.595000000000006 215.50199999999998 57.513000000000005 217.87699999999998 57.513000000000005 220.73899999999998 C 57.513000000000005 223.926 60.098000000000006 226.51199999999997 63.286 226.51199999999997 C 66.474 226.51199999999997 69.059 223.92699999999996 69.059 220.73899999999998 C 69.058 217.877 66.975 215.501 64.245 215.044 z" stroke-linecap="round" />
</g>
		<g transform="matrix(1 0 0 1 -14.162999999999997 -57.70000000000003)"  >
<path style="stroke: none; stroke-width: 1; stroke-dasharray: none; stroke-linecap: butt; stroke-dashoffset: 0; stroke-linejoin: miter; stroke-miterlimit: 4; fill: rgb(0,244,255); fill-rule: nonzero; opacity: 1;"  paint-order="stroke"  transform=" translate(-85.837, -92.6245)" d="M 86.796 173.782 L 86.796 0 L 84.87700000000001 0 L 84.87700000000001 173.782 C 82.14600000000002 174.239 80.06400000000001 176.614 80.06400000000001 179.476 C 80.06400000000001 182.663 82.649 185.249 85.837 185.249 C 89.025 185.249 91.61 182.664 91.61 179.476 C 91.609 176.614 89.528 174.239 86.796 173.782 z" stroke-linecap="round" />
</g>
		<g transform="matrix(1 0 0 1 -1.5840000000000032 10.744499999999988)"  >
<path style="stroke: none; stroke-width: 1; stroke-dasharray: none; stroke-linecap: butt; stroke-dashoffset: 0; stroke-linejoin: miter; stroke-miterlimit: 4; fill: rgb(0,244,255); fill-rule: nonzero; opacity: 1;"  paint-order="stroke"  transform=" translate(-98.416, -161.06900000000002)" d="M 103.457 197.838 L 96.268 205.027 L 96.268 255.64399999999998 C 93.537 256.101 91.455 258.476 91.455 261.33799999999997 C 91.455 264.525 94.03999999999999 267.111 97.228 267.111 C 100.416 267.111 103.00099999999999 264.526 103.00099999999999 261.33799999999997 C 103.00099999999999 258.477 100.91799999999999 256.10099999999994 98.18799999999999 255.64399999999998 L 98.18799999999999 205.82299999999998 L 105.37699999999998 198.634 L 105.37699999999998 55.027 L 103.45799999999998 55.027 L 103.45799999999998 197.838 z" stroke-linecap="round" />
</g>
		<g transform="matrix(1 0 0 1 34.438500000000005 -3.987000000000023)"  >
<path style="stroke: none; stroke-width: 1; stroke-dasharray: none; stroke-linecap: butt; stroke-dashoffset: 0; stroke-linejoin: miter; stroke-miterlimit: 4; fill: rgb(0,244,255); fill-rule: nonzero; opacity: 1;"  paint-order="stroke"  transform=" translate(-134.4385, -146.3375)" d="M 137.41 261.83 L 137.41 218.33999999999997 L 128.572 209.50199999999998 L 128.572 99.057 L 128.739 99.057 L 128.739 19.375 L 126.653 19.375 L 126.653 69.84899999999999 L 126.653 99.05699999999999 L 126.653 210.298 L 135.491 219.136 L 135.491 261.83299999999997 C 132.76100000000002 262.28999999999996 130.67800000000003 264.66499999999996 130.67800000000003 267.527 C 130.67800000000003 270.714 133.26300000000003 273.3 136.45100000000002 273.3 C 139.63800000000003 273.3 142.22400000000002 270.71500000000003 142.22400000000002 267.527 C 142.224 264.662 140.143 262.287 137.41 261.83 z" stroke-linecap="round" />
</g>
		<g transform="matrix(1 0 0 1 47.989000000000004 0)"  >
<path style="stroke: none; stroke-width: 1; stroke-dasharray: none; stroke-linecap: butt; stroke-dashoffset: 0; stroke-linejoin: miter; stroke-miterlimit: 4; fill: rgb(0,244,255); fill-rule: nonzero; opacity: 1;"  paint-order="stroke"  transform=" translate(-147.989, -150.32450000000003)" d="M 148.947 289.181 L 148.947 79.68099999999998 L 149.114 79.68099999999998 L 149.114 0 L 147.029 0 L 147.029 69.849 L 147.029 79.682 L 147.029 289.182 C 144.298 289.639 142.216 292.014 142.216 294.87600000000003 C 142.216 298.06300000000005 144.80100000000002 300.64900000000006 147.989 300.64900000000006 C 151.177 300.64900000000006 153.762 298.0640000000001 153.762 294.87600000000003 C 153.761 292.014 151.678 289.638 148.947 289.181 z" stroke-linecap="round" />
</g>
		<g transform="matrix(1 0 0 1 72.0915 -28.840500000000034)"  >
<path style="stroke: none; stroke-width: 1; stroke-dasharray: none; stroke-linecap: butt; stroke-dashoffset: 0; stroke-linejoin: miter; stroke-miterlimit: 4; fill: rgb(0,244,255); fill-rule: nonzero; opacity: 1;"  paint-order="stroke"  transform=" translate(-172.0915, -121.484)" d="M 173.39 182.167 C 173.39 179.306 171.307 176.93 168.577 176.473 L 168.577 102.30900000000001 L 182.34 88.546 L 182.34 55.027 L 180.419 55.027 L 180.419 87.751 L 166.656 101.51400000000001 L 166.656 176.474 C 163.925 176.93099999999998 161.84300000000002 179.30599999999998 161.84300000000002 182.16799999999998 C 161.84300000000002 185.355 164.42800000000003 187.94099999999997 167.616 187.94099999999997 C 170.804 187.94099999999997 173.39 185.354 173.39 182.167 z" stroke-linecap="round" />
</g>
		<g transform="matrix(1 0 0 1 82.07749999999999 -31.89900000000003)"  >
<path style="stroke: none; stroke-width: 1; stroke-dasharray: none; stroke-linecap: butt; stroke-dashoffset: 0; stroke-linejoin: miter; stroke-miterlimit: 4; fill: rgb(0,244,255); fill-rule: nonzero; opacity: 1;"  paint-order="stroke"  transform=" translate(-182.0775, -118.4255)" d="M 200 55.025 L 200 0 L 197.914 0 L 197.914 79.682 L 198.081 79.682 L 198.081 89.215 L 180.03 107.266 L 180.03 204.818 L 168.968 215.88000000000002 L 168.968 225.38400000000001 C 166.238 225.841 164.155 228.216 164.155 231.078 C 164.155 234.26500000000001 166.74 236.851 169.928 236.851 C 173.115 236.851 175.701 234.266 175.701 231.078 C 175.701 228.217 173.618 225.841 170.888 225.38400000000001 L 170.888 216.675 L 181.95000000000002 205.613 L 181.95000000000002 108.059 L 200 90.008 L 200 55.025 L 200 55.025 z" stroke-linecap="round" />
</g>
</g>
</g>
		<g transform="matrix(1.0966698991551025 0 0 0.5608584720170624 0 0.08987729108548592)"  >
<g style=""  paint-order="stroke"   >
		<g transform="matrix(1 0 0 1 0 0)"  >
<rect style="stroke: none; stroke-width: 1; stroke-dasharray: none; stroke-linecap: butt; stroke-dashoffset: 0; stroke-linejoin: miter; stroke-miterlimit: 4; fill: rgb(0,42,47); fill-rule: nonzero; opacity: 1;"  paint-order="stroke"  x="-100" y="-100" rx="0" ry="0" width="200" height="200" />
</g>
</g>
</g>
		<g transform="matrix(1.0116805611934339 0 0 1.0116805611934339 -1.0650682444363042 -50.08889022970925)"  >
<g style=""  paint-order="stroke"   >
		<g transform="matrix(1 0 0 1 0 2.796499999999998)"  >
<polygon style="stroke: none; stroke-width: 1; stroke-dasharray: none; stroke-linecap: butt; stroke-dashoffset: 0; stroke-linejoin: miter; stroke-miterlimit: 4; fill: rgb(0,244,255); fill-rule: nonzero; opacity: 1;"  paint-order="stroke"  points="-100,-4.564999999999998 -100,-1.0359999999999978 -81.28999999999999,-1.0359999999999978 -71.111,4.565000000000001 -33.44499999999999,4.565000000000001 -27.846000000000004,1.4840000000000018 -11.049999999999997,1.4840000000000018 11.855000000000004,1.4840000000000018 28.651999999999987,1.4840000000000018 34.251000000000005,4.565000000000001 71.916,4.565000000000001 82.096,-1.0359999999999978 100,-1.0359999999999978 100,-4.564999999999998 " />
</g>
		<g transform="matrix(1 0 0 1 72.805 8.9025)"  >
<polygon style="stroke: none; stroke-width: 1; stroke-dasharray: none; stroke-linecap: butt; stroke-dashoffset: 0; stroke-linejoin: miter; stroke-miterlimit: 4; fill: rgb(0,244,255); fill-rule: nonzero; opacity: 1;"  paint-order="stroke"  points="-0.48799999999999955,0.7929999999999993 -24.268,0.7929999999999993 -27.194999999999993,4.817 0.36599999999998545,4.817 10.609999999999985,-0.565999999999999 27.194999999999993,-0.565999999999999 27.194999999999993,-4.817 9.756,-4.817 " />
</g>
		<g transform="matrix(1 0 0 1 -61.662 -8.9025)"  >
<polygon style="stroke: none; stroke-width: 1; stroke-dasharray: none; stroke-linecap: butt; stroke-dashoffset: 0; stroke-linejoin: miter; stroke-miterlimit: 4; fill: rgb(0,244,255); fill-rule: nonzero; opacity: 1;"  paint-order="stroke"  points="10.61,-0.5659999999999998 27.195,-0.5659999999999998 27.195,-4.817 9.756,-4.817 -0.48799999999999955,0.7930000000000001 -24.268,0.7930000000000001 -27.195,4.817 0.36599999999999966,4.817 " />
</g>
		<g transform="matrix(1 0 0 1 24.51249999999999 -5.609999999999999)"  >
<rect style="stroke: none; stroke-width: 1; stroke-dasharray: none; stroke-linecap: butt; stroke-dashoffset: 0; stroke-linejoin: miter; stroke-miterlimit: 4; fill: rgb(0,244,255); fill-rule: nonzero; opacity: 1;"  paint-order="stroke"  x="-70.7315" y="-1.5245" rx="0" ry="0" width="141.463" height="3.049" />
</g>
</g>
</g>
		<g transform="matrix(-1.0116805611934339 0 0 -1.0116805611934339 1.6819475385211717 50.08889022970925)"  >
<g style=""  paint-order="stroke"   >
		<g transform="matrix(1 0 0 1 0 2.796499999999998)"  >
<polygon style="stroke: none; stroke-width: 1; stroke-dasharray: none; stroke-linecap: butt; stroke-dashoffset: 0; stroke-linejoin: miter; stroke-miterlimit: 4; fill: rgb(0,244,255); fill-rule: nonzero; opacity: 1;"  paint-order="stroke"  points="-100,-4.564999999999998 -100,-1.0359999999999978 -81.28999999999999,-1.0359999999999978 -71.111,4.565000000000001 -33.44499999999999,4.565000000000001 -27.846000000000004,1.4840000000000018 -11.049999999999997,1.4840000000000018 11.855000000000004,1.4840000000000018 28.651999999999987,1.4840000000000018 34.251000000000005,4.565000000000001 71.916,4.565000000000001 82.096,-1.0359999999999978 100,-1.0359999999999978 100,-4.564999999999998 " />
</g>
		<g transform="matrix(1 0 0 1 72.805 8.9025)"  >
<polygon style="stroke: none; stroke-width: 1; stroke-dasharray: none; stroke-linecap: butt; stroke-dashoffset: 0; stroke-linejoin: miter; stroke-miterlimit: 4; fill: rgb(0,244,255); fill-rule: nonzero; opacity: 1;"  paint-order="stroke"  points="-0.48799999999999955,0.7929999999999993 -24.268,0.7929999999999993 -27.194999999999993,4.817 0.36599999999998545,4.817 10.609999999999985,-0.565999999999999 27.194999999999993,-0.565999999999999 27.194999999999993,-4.817 9.756,-4.817 " />
</g>
		<g transform="matrix(1 0 0 1 -61.662 -8.9025)"  >
<polygon style="stroke: none; stroke-width: 1; stroke-dasharray: none; stroke-linecap: butt; stroke-dashoffset: 0; stroke-linejoin: miter; stroke-miterlimit: 4; fill: rgb(0,244,255); fill-rule: nonzero; opacity: 1;"  paint-order="stroke"  points="10.61,-0.5659999999999998 27.195,-0.5659999999999998 27.195,-4.817 9.756,-4.817 -0.48799999999999955,0.7930000000000001 -24.268,0.7930000000000001 -27.195,4.817 0.36599999999999966,4.817 " />
</g>
		<g transform="matrix(1 0 0 1 24.51249999999999 -5.609999999999999)"  >
<rect style="stroke: none; stroke-width: 1; stroke-dasharray: none; stroke-linecap: butt; stroke-dashoffset: 0; stroke-linejoin: miter; stroke-miterlimit: 4; fill: rgb(0,244,255); fill-rule: nonzero; opacity: 1;"  paint-order="stroke"  x="-70.7315" y="-1.5245" rx="0" ry="0" width="141.463" height="3.049" />
</g>
</g>
</g>
</g>
</g>
<g transform="matrix(1.9211538461538462 0 0 1.9211538461538462 640.2448533090444 510.4537223965287)" id="text-logo-path-group"  >
<g style=""  paint-order="stroke"   >
		<g transform="matrix(1 0 0 1 0 0)" id="text-logo-path-0"  >
<path style="stroke: rgb(0,42,47); stroke-width: 11; stroke-dasharray: none; stroke-linecap: butt; stroke-dashoffset: 0; stroke-linejoin: miter; stroke-miterlimit: 4; fill: rgb(0,244,255); fill-rule: nonzero; opacity: 1;"  paint-order="stroke"  transform=" translate(-318.575, 8.075)" d="M 1.24 -9.43 L 1.24 -9.43 Q 1.24 -12.7 2 -15.17 Q 2.75 -17.63 4.06 -19.29 Q 5.36 -20.95 7.11 -21.79 Q 8.87 -22.63 10.85 -22.63 L 10.85 -22.63 Q 12.17 -22.63 13.25 -22.38 Q 14.33 -22.13 15.12 -21.65 Q 15.91 -21.18 16.34 -20.47 Q 16.77 -19.77 16.77 -18.88 L 16.77 -18.88 Q 16.77 -18.47 16.64 -18.02 Q 16.5 -17.57 16.22 -17.2 Q 15.94 -16.83 15.53 -16.6 Q 15.12 -16.36 14.58 -16.36 L 14.58 -16.36 Q 14.09 -16.36 13.83 -16.57 Q 13.56 -16.79 13.43 -17.13 Q 13.31 -17.48 13.27 -17.93 Q 13.23 -18.38 13.21 -18.85 Q 13.2 -19.31 13.15 -19.76 Q 13.09 -20.21 12.93 -20.56 Q 12.78 -20.9 12.47 -21.12 Q 12.17 -21.33 11.63 -21.33 L 11.63 -21.33 Q 11.22 -21.33 10.67 -21.16 Q 10.13 -20.99 9.56 -20.53 Q 8.99 -20.07 8.45 -19.24 Q 7.9 -18.41 7.47 -17.08 Q 7.04 -15.76 6.77 -13.87 Q 6.51 -11.97 6.51 -9.4 L 6.51 -9.4 Q 6.51 -6.95 6.77 -5.15 Q 7.04 -3.35 7.49 -2.08 Q 7.93 -0.82 8.51 -0.02 Q 9.08 0.79 9.72 1.23 Q 10.35 1.68 10.99 1.85 Q 11.63 2.01 12.19 2.01 L 12.19 2.01 Q 12.78 2.01 13.38 1.86 Q 13.99 1.71 14.57 1.42 Q 15.15 1.14 15.69 0.73 Q 16.23 0.32 16.68 -0.21 L 16.68 -0.21 L 17.36 0.47 Q 16.91 1.03 16.27 1.61 Q 15.64 2.19 14.8 2.67 Q 13.96 3.15 12.91 3.45 Q 11.87 3.75 10.6 3.75 L 10.6 3.75 Q 8.61 3.75 6.91 3 Q 5.21 2.24 3.94 0.64 Q 2.68 -0.95 1.96 -3.45 Q 1.24 -5.95 1.24 -9.43 Z M 17.2 -7.75 L 17.2 -7.75 Q 17.2 -9.73 17.77 -11.22 Q 18.35 -12.71 19.31 -13.71 Q 20.27 -14.71 21.54 -15.21 Q 22.81 -15.71 24.2 -15.71 L 24.2 -15.71 Q 25.6 -15.71 26.87 -15.25 Q 28.14 -14.79 29.1 -13.83 Q 30.06 -12.88 30.64 -11.42 Q 31.21 -9.96 31.21 -7.96 L 31.21 -7.96 Q 31.21 -5.98 30.64 -4.45 Q 30.06 -2.92 29.1 -1.88 Q 28.14 -0.83 26.87 -0.3 Q 25.6 0.24 24.2 0.24 L 24.2 0.24 Q 22.81 0.24 21.54 -0.26 Q 20.27 -0.77 19.31 -1.77 Q 18.35 -2.77 17.77 -4.27 Q 17.2 -5.77 17.2 -7.75 Z M 21.92 -7.75 L 21.92 -7.75 Q 21.92 -6.54 21.99 -5.38 Q 22.07 -4.22 22.31 -3.31 Q 22.55 -2.41 23.01 -1.85 Q 23.46 -1.3 24.2 -1.3 L 24.2 -1.3 Q 24.95 -1.3 25.4 -1.88 Q 25.85 -2.45 26.1 -3.39 Q 26.34 -4.33 26.42 -5.51 Q 26.5 -6.69 26.5 -7.9 L 26.5 -7.9 Q 26.5 -9.11 26.42 -10.24 Q 26.34 -11.37 26.1 -12.25 Q 25.85 -13.12 25.4 -13.65 Q 24.95 -14.17 24.2 -14.17 L 24.2 -14.17 Q 23.46 -14.17 23.01 -13.62 Q 22.55 -13.06 22.31 -12.16 Q 22.07 -11.26 21.99 -10.11 Q 21.92 -8.96 21.92 -7.75 Z M 32.5 -13.79 L 32.18 -14.17 Q 32.53 -14.46 32.96 -14.74 Q 33.39 -15.02 33.89 -15.23 Q 34.39 -15.44 34.97 -15.58 Q 35.54 -15.71 36.18 -15.71 L 36.18 -15.71 Q 37.16 -15.71 37.71 -15.39 Q 38.25 -15.06 38.51 -14.61 Q 38.77 -14.15 38.82 -13.66 Q 38.87 -13.17 38.87 -12.84 L 38.87 -12.84 Q 39.43 -13.64 40.14 -14.27 L 40.14 -14.27 Q 40.43 -14.55 40.79 -14.8 Q 41.14 -15.06 41.54 -15.27 Q 41.94 -15.47 42.39 -15.59 Q 42.84 -15.71 43.31 -15.71 L 43.31 -15.71 Q 44.34 -15.71 45.13 -15.32 Q 45.92 -14.92 46.47 -14 Q 47.01 -13.08 47.3 -11.56 Q 47.59 -10.04 47.59 -7.78 L 47.59 -7.78 Q 47.59 -5.59 47.2 -3.97 Q 46.8 -2.35 46.17 -1.21 Q 45.53 -0.08 44.73 0.64 Q 43.93 1.36 43.11 1.77 Q 42.29 2.18 41.54 2.34 Q 40.79 2.5 40.25 2.51 L 40.25 2.51 L 40.08 1.89 Q 40.54 1.79 40.92 1.56 Q 41.31 1.33 41.63 0.89 Q 41.94 0.45 42.19 -0.22 Q 42.43 -0.89 42.6 -1.91 Q 42.78 -2.92 42.86 -4.31 Q 42.94 -5.69 42.94 -7.54 L 42.94 -7.54 Q 42.94 -9.45 42.77 -10.59 Q 42.59 -11.73 42.31 -12.33 Q 42.02 -12.93 41.67 -13.12 Q 41.32 -13.31 40.96 -13.31 L 40.96 -13.31 Q 40.52 -13.31 40.18 -13.07 Q 39.84 -12.84 39.59 -12.53 Q 39.34 -12.23 39.17 -11.93 Q 38.99 -11.63 38.87 -11.47 L 38.87 -11.47 L 38.87 -1.36 Q 38.87 -1.17 38.81 -0.89 Q 38.75 -0.61 38.52 -0.36 Q 38.28 -0.11 37.82 0.07 Q 37.36 0.24 36.56 0.24 L 36.56 0.24 Q 35.75 0.24 35.29 0.05 Q 34.83 -0.14 34.59 -0.39 Q 34.35 -0.65 34.28 -0.92 Q 34.22 -1.2 34.22 -1.36 L 34.22 -1.36 L 34.22 -13.05 Q 34.22 -13.49 34.02 -13.81 Q 33.82 -14.14 33.33 -14.14 L 33.33 -14.14 Q 33.07 -14.14 32.89 -14.05 Q 32.71 -13.96 32.5 -13.79 L 32.5 -13.79 Z M 49.13 -2.57 L 49.13 -2.57 L 49.66 -2.95 Q 49.86 -2.72 50.16 -2.46 Q 50.47 -2.19 50.84 -1.97 Q 51.21 -1.74 51.63 -1.6 Q 52.06 -1.45 52.49 -1.45 L 52.49 -1.45 Q 53.58 -1.45 54.28 -1.98 Q 54.98 -2.5 54.98 -3.53 L 54.98 -3.53 Q 54.98 -4.1 54.6 -4.72 Q 54.22 -5.33 53.64 -5.98 Q 53.07 -6.63 52.4 -7.33 Q 51.74 -8.02 51.16 -8.76 Q 50.59 -9.51 50.21 -10.29 Q 49.83 -11.08 49.83 -11.93 L 49.83 -11.93 Q 49.83 -12.88 50.22 -13.59 Q 50.6 -14.3 51.25 -14.77 Q 51.89 -15.24 52.71 -15.48 Q 53.54 -15.71 54.42 -15.71 L 54.42 -15.71 Q 55.43 -15.71 56.26 -15.53 Q 57.1 -15.35 57.69 -14.98 Q 58.29 -14.61 58.62 -14.05 Q 58.94 -13.49 58.94 -12.75 L 58.94 -12.75 Q 58.94 -12.17 58.56 -11.75 Q 58.19 -11.32 57.5 -11.32 L 57.5 -11.32 Q 56.85 -11.32 56.51 -11.6 Q 56.17 -11.88 56.17 -12.37 L 56.17 -12.37 Q 56.17 -12.68 56.33 -12.87 Q 56.49 -13.05 56.69 -13.16 Q 56.88 -13.27 57.04 -13.36 Q 57.2 -13.44 57.2 -13.58 L 57.2 -13.58 Q 57.2 -14 56.75 -14.25 Q 56.29 -14.5 55.58 -14.5 L 55.58 -14.5 Q 55.23 -14.5 54.92 -14.41 Q 54.61 -14.32 54.37 -14.11 Q 54.13 -13.91 53.99 -13.6 Q 53.86 -13.29 53.86 -12.87 L 53.86 -12.87 Q 53.86 -12.28 54.29 -11.69 Q 54.72 -11.11 55.36 -10.48 Q 56.01 -9.85 56.76 -9.18 Q 57.5 -8.51 58.15 -7.76 Q 58.79 -7.01 59.22 -6.16 Q 59.65 -5.31 59.65 -4.34 L 59.65 -4.34 Q 59.65 -3.25 59.28 -2.41 Q 58.91 -1.56 58.22 -0.97 Q 57.53 -0.38 56.56 -0.07 Q 55.58 0.24 54.39 0.24 L 54.39 0.24 Q 53.34 0.24 52.49 -0.05 Q 51.65 -0.35 50.99 -0.78 Q 50.33 -1.21 49.86 -1.7 Q 49.39 -2.18 49.13 -2.57 Z M 62.38 -14.41 L 60.68 -14.41 L 60.68 -15.5 Q 61.11 -15.5 61.86 -15.72 Q 62.62 -15.94 63.42 -16.45 Q 64.21 -16.97 64.89 -17.83 Q 65.57 -18.69 65.86 -19.97 L 65.86 -19.97 L 67.07 -19.97 L 67.07 -15.5 L 69.54 -15.5 Q 70.75 -15.5 70.75 -15.91 L 70.75 -15.91 Q 70.75 -16.06 70.6 -16.11 Q 70.45 -16.17 70.26 -16.25 Q 70.07 -16.33 69.92 -16.48 Q 69.77 -16.64 69.77 -16.98 L 69.77 -16.98 Q 69.77 -17.41 70.03 -17.65 Q 70.29 -17.89 70.72 -17.89 L 70.72 -17.89 Q 70.99 -17.89 71.2 -17.78 Q 71.4 -17.66 71.54 -17.48 Q 71.67 -17.29 71.74 -17.04 Q 71.81 -16.8 71.81 -16.56 L 71.81 -16.56 Q 71.81 -15.58 71.24 -14.99 Q 70.67 -14.41 69.42 -14.41 L 69.42 -14.41 L 67.07 -14.41 L 67.07 -3.22 Q 67.07 -2.42 67.37 -2.11 Q 67.68 -1.8 68.21 -1.8 L 68.21 -1.8 Q 68.61 -1.8 68.93 -2.03 Q 69.25 -2.26 69.48 -2.54 L 69.48 -2.54 Q 69.75 -2.86 69.95 -3.28 L 69.95 -3.28 L 70.42 -3.07 Q 70.19 -2.59 69.88 -2.01 Q 69.57 -1.44 69.05 -0.95 Q 68.54 -0.45 67.76 -0.12 Q 66.98 0.21 65.8 0.21 L 65.8 0.21 Q 65.13 0.21 64.52 0.02 Q 63.91 -0.18 63.43 -0.61 Q 62.95 -1.03 62.67 -1.67 Q 62.38 -2.3 62.38 -3.19 L 62.38 -3.19 L 62.38 -14.41 Z M 71.49 -3.91 L 71.49 -3.91 Q 71.49 -5.28 72.04 -6.16 Q 72.58 -7.04 73.47 -7.64 Q 74.35 -8.23 75.48 -8.66 Q 76.61 -9.08 77.79 -9.55 L 77.79 -9.55 Q 78.67 -9.9 79.07 -10.59 Q 79.47 -11.28 79.47 -12 L 79.47 -12 Q 79.47 -13.12 78.81 -13.8 Q 78.15 -14.47 77.02 -14.47 L 77.02 -14.47 Q 76.5 -14.47 76.06 -14.35 Q 75.62 -14.23 75.31 -14.05 Q 74.99 -13.87 74.81 -13.65 Q 74.62 -13.43 74.62 -13.23 L 74.62 -13.23 Q 74.62 -13 74.86 -12.9 Q 75.09 -12.81 75.38 -12.68 Q 75.67 -12.55 75.9 -12.31 Q 76.14 -12.08 76.14 -11.59 L 76.14 -11.59 Q 76.14 -11.28 76.01 -11.01 Q 75.88 -10.75 75.66 -10.54 Q 75.44 -10.34 75.15 -10.22 Q 74.85 -10.11 74.53 -10.11 L 74.53 -10.11 Q 73.69 -10.11 73.16 -10.69 Q 72.64 -11.26 72.64 -12.22 L 72.64 -12.22 Q 72.64 -13.14 73.13 -13.8 Q 73.61 -14.46 74.39 -14.88 Q 75.17 -15.3 76.15 -15.51 Q 77.14 -15.71 78.12 -15.71 L 78.12 -15.71 Q 79.3 -15.71 80.38 -15.45 Q 81.45 -15.2 82.28 -14.64 Q 83.1 -14.08 83.59 -13.21 Q 84.08 -12.35 84.08 -11.13 L 84.08 -11.13 L 84.08 -2.57 Q 84.08 -2.44 84.1 -2.27 Q 84.11 -2.1 84.18 -1.97 Q 84.24 -1.83 84.36 -1.74 Q 84.48 -1.65 84.71 -1.65 L 84.71 -1.65 Q 84.98 -1.65 85.21 -1.85 Q 85.45 -2.06 85.63 -2.27 L 85.63 -2.27 L 86.01 -1.95 Q 85.78 -1.63 85.46 -1.26 Q 85.14 -0.88 84.69 -0.54 Q 84.24 -0.21 83.63 0.02 Q 83.02 0.24 82.25 0.24 L 82.25 0.24 Q 81.3 0.24 80.56 -0.33 Q 79.82 -0.89 79.59 -2.07 L 79.59 -2.07 Q 79.1 -1.42 78.58 -0.98 Q 78.06 -0.54 77.52 -0.27 Q 76.97 0 76.42 0.12 Q 75.87 0.24 75.31 0.24 L 75.31 0.24 Q 74.58 0.24 73.9 0.02 Q 73.22 -0.21 72.68 -0.7 Q 72.14 -1.2 71.82 -1.98 Q 71.49 -2.77 71.49 -3.91 Z M 75.93 -4.9 L 75.93 -4.9 Q 75.93 -4.03 76.05 -3.45 Q 76.18 -2.88 76.4 -2.54 Q 76.62 -2.19 76.91 -2.06 Q 77.2 -1.92 77.52 -1.92 L 77.52 -1.92 Q 77.91 -1.92 78.26 -2.13 Q 78.6 -2.33 78.86 -2.65 Q 79.12 -2.97 79.27 -3.36 Q 79.42 -3.75 79.42 -4.15 L 79.42 -4.15 L 79.42 -7.84 Q 79.42 -8.22 79.18 -8.42 Q 78.94 -8.61 78.56 -8.61 L 78.56 -8.61 Q 78.03 -8.61 77.55 -8.37 Q 77.08 -8.13 76.71 -7.66 Q 76.35 -7.19 76.14 -6.5 Q 75.93 -5.81 75.93 -4.9 Z M 86.51 -13.79 L 86.19 -14.17 Q 86.54 -14.46 86.97 -14.74 Q 87.4 -15.02 87.9 -15.23 Q 88.4 -15.44 88.97 -15.58 Q 89.55 -15.71 90.18 -15.71 L 90.18 -15.71 Q 91.17 -15.71 91.71 -15.39 Q 92.26 -15.06 92.52 -14.61 Q 92.77 -14.15 92.83 -13.66 Q 92.88 -13.17 92.88 -12.84 L 92.88 -12.84 Q 93.44 -13.64 94.15 -14.27 L 94.15 -14.27 Q 94.44 -14.55 94.79 -14.8 Q 95.15 -15.06 95.55 -15.27 Q 95.95 -15.47 96.4 -15.59 Q 96.84 -15.71 97.31 -15.71 L 97.31 -15.71 Q 98.34 -15.71 99.14 -15.32 Q 99.93 -14.92 100.48 -14 Q 101.02 -13.08 101.31 -11.56 Q 101.6 -10.04 101.6 -7.78 L 101.6 -7.78 Q 101.6 -5.59 101.2 -3.97 Q 100.81 -2.35 100.17 -1.21 Q 99.54 -0.08 98.74 0.64 Q 97.93 1.36 97.12 1.77 Q 96.3 2.18 95.55 2.34 Q 94.8 2.5 94.26 2.51 L 94.26 2.51 L 94.09 1.89 Q 94.54 1.79 94.93 1.56 Q 95.32 1.33 95.63 0.89 Q 95.95 0.45 96.19 -0.22 Q 96.44 -0.89 96.61 -1.91 Q 96.78 -2.92 96.87 -4.31 Q 96.95 -5.69 96.95 -7.54 L 96.95 -7.54 Q 96.95 -9.45 96.78 -10.59 Q 96.6 -11.73 96.31 -12.33 Q 96.03 -12.93 95.68 -13.12 Q 95.33 -13.31 94.97 -13.31 L 94.97 -13.31 Q 94.53 -13.31 94.19 -13.07 Q 93.85 -12.84 93.6 -12.53 Q 93.35 -12.23 93.17 -11.93 Q 93 -11.63 92.88 -11.47 L 92.88 -11.47 L 92.88 -1.36 Q 92.88 -1.17 92.82 -0.89 Q 92.76 -0.61 92.52 -0.36 Q 92.29 -0.11 91.83 0.07 Q 91.37 0.24 90.56 0.24 L 90.56 0.24 Q 89.76 0.24 89.3 0.05 Q 88.84 -0.14 88.6 -0.39 Q 88.35 -0.65 88.29 -0.92 Q 88.23 -1.2 88.23 -1.36 L 88.23 -1.36 L 88.23 -13.05 Q 88.23 -13.49 88.03 -13.81 Q 87.82 -14.14 87.34 -14.14 L 87.34 -14.14 Q 87.08 -14.14 86.9 -14.05 Q 86.72 -13.96 86.51 -13.79 L 86.51 -13.79 Z M 104.94 -14.41 L 103.25 -14.41 L 103.25 -15.5 Q 103.67 -15.5 104.43 -15.72 Q 105.19 -15.94 105.98 -16.45 Q 106.77 -16.97 107.46 -17.83 Q 108.14 -18.69 108.42 -19.97 L 108.42 -19.97 L 109.64 -19.97 L 109.64 -15.5 L 112.1 -15.5 Q 113.31 -15.5 113.31 -15.91 L 113.31 -15.91 Q 113.31 -16.06 113.16 -16.11 Q 113.01 -16.17 112.82 -16.25 Q 112.63 -16.33 112.48 -16.48 Q 112.33 -16.64 112.33 -16.98 L 112.33 -16.98 Q 112.33 -17.41 112.59 -17.65 Q 112.86 -17.89 113.28 -17.89 L 113.28 -17.89 Q 113.56 -17.89 113.76 -17.78 Q 113.96 -17.66 114.1 -17.48 Q 114.24 -17.29 114.3 -17.04 Q 114.37 -16.8 114.37 -16.56 L 114.37 -16.56 Q 114.37 -15.58 113.81 -14.99 Q 113.24 -14.41 111.98 -14.41 L 111.98 -14.41 L 109.64 -14.41 L 109.64 -3.22 Q 109.64 -2.42 109.94 -2.11 Q 110.24 -1.8 110.77 -1.8 L 110.77 -1.8 Q 111.18 -1.8 111.5 -2.03 Q 111.81 -2.26 112.04 -2.54 L 112.04 -2.54 Q 112.31 -2.86 112.51 -3.28 L 112.51 -3.28 L 112.98 -3.07 Q 112.75 -2.59 112.44 -2.01 Q 112.13 -1.44 111.62 -0.95 Q 111.1 -0.45 110.32 -0.12 Q 109.54 0.21 108.36 0.21 L 108.36 0.21 Q 107.7 0.21 107.08 0.02 Q 106.47 -0.18 105.99 -0.61 Q 105.52 -1.03 105.23 -1.67 Q 104.94 -2.3 104.94 -3.19 L 104.94 -3.19 L 104.94 -14.41 Z M 120.26 -16.36 L 120.26 -16.36 Q 120.26 -17.41 120.64 -18.28 Q 121.02 -19.15 121.68 -19.84 Q 122.33 -20.54 123.22 -21.06 Q 124.11 -21.58 125.14 -21.93 Q 126.16 -22.28 127.28 -22.46 Q 128.4 -22.63 129.52 -22.63 L 129.52 -22.63 Q 130.77 -22.63 131.45 -22.39 Q 132.14 -22.16 132.47 -21.83 Q 132.79 -21.49 132.85 -21.13 Q 132.92 -20.77 132.92 -20.53 L 132.92 -20.53 L 132.92 -1.98 Q 132.92 -0.82 132.3 -0.29 Q 131.69 0.24 130.43 0.24 L 130.43 0.24 Q 129.16 0.24 128.56 -0.29 Q 127.95 -0.82 127.95 -1.98 L 127.95 -1.98 L 127.95 -20.21 Q 127.95 -20.54 127.88 -20.74 Q 127.8 -20.93 127.66 -21.05 Q 127.53 -21.16 127.34 -21.2 Q 127.15 -21.24 126.92 -21.24 L 126.92 -21.24 Q 126.59 -21.24 126.1 -21.13 Q 125.6 -21.02 125.06 -20.81 Q 124.51 -20.6 123.96 -20.29 Q 123.41 -19.98 122.98 -19.59 Q 122.55 -19.19 122.27 -18.71 Q 122 -18.22 122 -17.66 L 122 -17.66 Q 122 -17.18 122.13 -16.89 Q 122.26 -16.6 122.43 -16.46 Q 122.59 -16.32 122.77 -16.28 Q 122.94 -16.24 123.02 -16.24 L 123.02 -16.24 Q 123.39 -16.24 123.64 -16.37 Q 123.88 -16.5 124.08 -16.64 Q 124.27 -16.79 124.45 -16.92 Q 124.62 -17.04 124.85 -17.04 L 124.85 -17.04 Q 125.03 -17.04 125.23 -16.96 Q 125.44 -16.88 125.61 -16.7 Q 125.79 -16.51 125.91 -16.22 Q 126.03 -15.92 126.03 -15.5 L 126.03 -15.5 Q 126.03 -14.89 125.79 -14.46 Q 125.56 -14.02 125.19 -13.72 Q 124.82 -13.43 124.34 -13.28 Q 123.86 -13.14 123.39 -13.14 L 123.39 -13.14 Q 122.67 -13.14 122.09 -13.39 Q 121.5 -13.64 121.09 -14.08 Q 120.69 -14.52 120.47 -15.11 Q 120.26 -15.7 120.26 -16.36 Z M 135.55 -13.79 L 135.23 -14.17 Q 135.58 -14.46 136.01 -14.74 Q 136.44 -15.02 136.94 -15.23 Q 137.44 -15.44 138.02 -15.58 Q 138.59 -15.71 139.23 -15.71 L 139.23 -15.71 Q 140.21 -15.71 140.76 -15.39 Q 141.3 -15.06 141.56 -14.61 Q 141.82 -14.15 141.87 -13.66 Q 141.92 -13.17 141.92 -12.84 L 141.92 -12.84 Q 142.48 -13.64 143.19 -14.27 L 143.19 -14.27 Q 143.48 -14.55 143.84 -14.8 Q 144.19 -15.06 144.59 -15.27 Q 144.99 -15.47 145.44 -15.59 Q 145.89 -15.71 146.36 -15.71 L 146.36 -15.71 Q 147.39 -15.71 148.18 -15.32 Q 148.98 -14.92 149.52 -14 Q 150.07 -13.08 150.35 -11.56 Q 150.64 -10.04 150.64 -7.78 L 150.64 -7.78 Q 150.64 -5.59 150.25 -3.97 Q 149.85 -2.35 149.22 -1.21 Q 148.58 -0.08 147.78 0.64 Q 146.98 1.36 146.16 1.77 Q 145.34 2.18 144.59 2.34 Q 143.84 2.5 143.3 2.51 L 143.3 2.51 L 143.13 1.89 Q 143.59 1.79 143.97 1.56 Q 144.36 1.33 144.68 0.89 Q 144.99 0.45 145.24 -0.22 Q 145.48 -0.89 145.65 -1.91 Q 145.83 -2.92 145.91 -4.31 Q 145.99 -5.69 145.99 -7.54 L 145.99 -7.54 Q 145.99 -9.45 145.82 -10.59 Q 145.65 -11.73 145.36 -12.33 Q 145.07 -12.93 144.72 -13.12 Q 144.37 -13.31 144.01 -13.31 L 144.01 -13.31 Q 143.57 -13.31 143.23 -13.07 Q 142.89 -12.84 142.64 -12.53 Q 142.39 -12.23 142.22 -11.93 Q 142.04 -11.63 141.92 -11.47 L 141.92 -11.47 L 141.92 -1.36 Q 141.92 -1.17 141.86 -0.89 Q 141.8 -0.61 141.57 -0.36 Q 141.33 -0.11 140.87 0.07 Q 140.41 0.24 139.61 0.24 L 139.61 0.24 Q 138.8 0.24 138.34 0.05 Q 137.88 -0.14 137.64 -0.39 Q 137.4 -0.65 137.34 -0.92 Q 137.27 -1.2 137.27 -1.36 L 137.27 -1.36 L 137.27 -13.05 Q 137.27 -13.49 137.07 -13.81 Q 136.87 -14.14 136.38 -14.14 L 136.38 -14.14 Q 136.12 -14.14 135.94 -14.05 Q 135.76 -13.96 135.55 -13.79 L 135.55 -13.79 Z M 152.23 -13.79 L 151.91 -14.17 Q 152.26 -14.46 152.69 -14.74 Q 153.12 -15.02 153.62 -15.23 Q 154.12 -15.44 154.7 -15.58 Q 155.27 -15.71 155.91 -15.71 L 155.91 -15.71 Q 156.89 -15.71 157.44 -15.39 Q 157.98 -15.06 158.24 -14.61 Q 158.5 -14.15 158.55 -13.66 Q 158.6 -13.17 158.6 -12.84 L 158.6 -12.84 Q 159.16 -13.64 159.87 -14.27 L 159.87 -14.27 Q 160.16 -14.55 160.52 -14.8 Q 160.87 -15.06 161.27 -15.27 Q 161.68 -15.47 162.12 -15.59 Q 162.57 -15.71 163.04 -15.71 L 163.04 -15.71 Q 164.07 -15.71 164.86 -15.32 Q 165.66 -14.92 166.2 -14 Q 166.75 -13.08 167.03 -11.56 Q 167.32 -10.04 167.32 -7.78 L 167.32 -7.78 Q 167.32 -5.59 166.93 -3.97 Q 166.53 -2.35 165.9 -1.21 Q 165.26 -0.08 164.46 0.64 Q 163.66 1.36 162.84 1.77 Q 162.02 2.18 161.27 2.34 Q 160.52 2.5 159.98 2.51 L 159.98 2.51 L 159.81 1.89 Q 160.27 1.79 160.65 1.56 Q 161.04 1.33 161.36 0.89 Q 161.68 0.45 161.92 -0.22 Q 162.16 -0.89 162.33 -1.91 Q 162.51 -2.92 162.59 -4.31 Q 162.67 -5.69 162.67 -7.54 L 162.67 -7.54 Q 162.67 -9.45 162.5 -10.59 Q 162.33 -11.73 162.04 -12.33 Q 161.75 -12.93 161.4 -13.12 Q 161.05 -13.31 160.69 -13.31 L 160.69 -13.31 Q 160.25 -13.31 159.91 -13.07 Q 159.57 -12.84 159.32 -12.53 Q 159.07 -12.23 158.9 -11.93 Q 158.72 -11.63 158.6 -11.47 L 158.6 -11.47 L 158.6 -1.36 Q 158.6 -1.17 158.54 -0.89 Q 158.48 -0.61 158.25 -0.36 Q 158.01 -0.11 157.55 0.07 Q 157.09 0.24 156.29 0.24 L 156.29 0.24 Q 155.48 0.24 155.02 0.05 Q 154.56 -0.14 154.32 -0.39 Q 154.08 -0.65 154.02 -0.92 Q 153.96 -1.2 153.96 -1.36 L 153.96 -1.36 L 153.96 -13.05 Q 153.96 -13.49 153.75 -13.81 Q 153.55 -14.14 153.06 -14.14 L 153.06 -14.14 Q 152.81 -14.14 152.62 -14.05 Q 152.44 -13.96 152.23 -13.79 L 152.23 -13.79 Z M 169.49 -7.75 L 169.49 -7.75 Q 169.49 -9.73 170.06 -11.22 Q 170.64 -12.71 171.6 -13.71 Q 172.56 -14.71 173.83 -15.21 Q 175.1 -15.71 176.49 -15.71 L 176.49 -15.71 Q 177.89 -15.71 179.16 -15.25 Q 180.43 -14.79 181.39 -13.83 Q 182.35 -12.88 182.93 -11.42 Q 183.5 -9.96 183.5 -7.96 L 183.5 -7.96 Q 183.5 -5.98 182.93 -4.45 Q 182.35 -2.92 181.39 -1.88 Q 180.43 -0.83 179.16 -0.3 Q 177.89 0.24 176.49 0.24 L 176.49 0.24 Q 175.1 0.24 173.83 -0.26 Q 172.56 -0.77 171.6 -1.77 Q 170.64 -2.77 170.06 -4.27 Q 169.49 -5.77 169.49 -7.75 Z M 174.21 -7.75 L 174.21 -7.75 Q 174.21 -6.54 174.28 -5.38 Q 174.36 -4.22 174.6 -3.31 Q 174.84 -2.41 175.3 -1.85 Q 175.75 -1.3 176.49 -1.3 L 176.49 -1.3 Q 177.24 -1.3 177.69 -1.88 Q 178.14 -2.45 178.39 -3.39 Q 178.63 -4.33 178.71 -5.51 Q 178.79 -6.69 178.79 -7.9 L 178.79 -7.9 Q 178.79 -9.11 178.71 -10.24 Q 178.63 -11.37 178.39 -12.25 Q 178.14 -13.12 177.69 -13.65 Q 177.24 -14.17 176.49 -14.17 L 176.49 -14.17 Q 175.75 -14.17 175.3 -13.62 Q 174.84 -13.06 174.6 -12.16 Q 174.36 -11.26 174.28 -10.11 Q 174.21 -8.96 174.21 -7.75 Z M 184.09 -13.79 L 183.79 -14.17 Q 184.14 -14.46 184.57 -14.74 Q 185 -15.02 185.5 -15.23 Q 186 -15.44 186.58 -15.58 Q 187.15 -15.71 187.79 -15.71 L 187.79 -15.71 Q 188.69 -15.71 189.25 -15.4 Q 189.81 -15.09 190.14 -14.63 Q 190.47 -14.17 190.6 -13.64 Q 190.74 -13.11 190.8 -12.68 L 190.8 -12.68 Q 191.36 -8.1 192.05 -5.74 Q 192.75 -3.38 193.7 -3.38 L 193.7 -3.38 Q 194.23 -3.38 194.73 -3.95 Q 195.22 -4.53 195.59 -5.52 Q 195.96 -6.52 196.19 -7.86 Q 196.41 -9.19 196.41 -10.7 L 196.41 -10.7 Q 196.41 -11.7 196.28 -12.39 Q 196.14 -13.08 195.98 -13.55 Q 195.81 -14.02 195.67 -14.33 Q 195.54 -14.64 195.54 -14.88 L 195.54 -14.88 Q 195.54 -15.11 195.72 -15.26 Q 195.9 -15.41 196.15 -15.52 Q 196.4 -15.62 196.66 -15.67 Q 196.93 -15.71 197.1 -15.71 L 197.1 -15.71 Q 197.53 -15.71 197.73 -15.59 Q 197.93 -15.47 198.05 -15.12 L 198.05 -15.12 Q 198.19 -14.68 198.24 -13.96 Q 198.29 -13.24 198.29 -12.43 L 198.29 -12.43 Q 198.29 -11.26 198.13 -9.87 Q 197.97 -8.48 197.65 -7.07 Q 197.32 -5.66 196.82 -4.34 Q 196.32 -3.03 195.63 -2.01 Q 194.95 -0.98 194.08 -0.37 Q 193.21 0.24 192.13 0.24 L 192.13 0.24 Q 190.87 0.24 189.95 -0.48 Q 189.03 -1.21 188.38 -2.38 Q 187.74 -3.54 187.32 -5 Q 186.89 -6.45 186.63 -7.91 Q 186.36 -9.37 186.2 -10.68 Q 186.05 -11.99 185.92 -12.87 L 185.92 -12.87 Q 185.83 -13.47 185.63 -13.8 Q 185.42 -14.14 184.94 -14.14 L 184.94 -14.14 Q 184.68 -14.14 184.49 -14.05 Q 184.3 -13.96 184.09 -13.79 L 184.09 -13.79 Z M 199.7 -3.91 L 199.7 -3.91 Q 199.7 -5.28 200.24 -6.16 Q 200.79 -7.04 201.67 -7.64 Q 202.56 -8.23 203.69 -8.66 Q 204.81 -9.08 206 -9.55 L 206 -9.55 Q 206.87 -9.9 207.27 -10.59 Q 207.68 -11.28 207.68 -12 L 207.68 -12 Q 207.68 -13.12 207.02 -13.8 Q 206.36 -14.47 205.22 -14.47 L 205.22 -14.47 Q 204.71 -14.47 204.27 -14.35 Q 203.83 -14.23 203.51 -14.05 Q 203.2 -13.87 203.01 -13.65 Q 202.83 -13.43 202.83 -13.23 L 202.83 -13.23 Q 202.83 -13 203.07 -12.9 Q 203.3 -12.81 203.59 -12.68 Q 203.88 -12.55 204.11 -12.31 Q 204.35 -12.08 204.35 -11.59 L 204.35 -11.59 Q 204.35 -11.28 204.22 -11.01 Q 204.09 -10.75 203.87 -10.54 Q 203.65 -10.34 203.35 -10.22 Q 203.06 -10.11 202.74 -10.11 L 202.74 -10.11 Q 201.89 -10.11 201.37 -10.69 Q 200.85 -11.26 200.85 -12.22 L 200.85 -12.22 Q 200.85 -13.14 201.33 -13.8 Q 201.82 -14.46 202.6 -14.88 Q 203.38 -15.3 204.36 -15.51 Q 205.34 -15.71 206.33 -15.71 L 206.33 -15.71 Q 207.51 -15.71 208.58 -15.45 Q 209.66 -15.2 210.48 -14.64 Q 211.31 -14.08 211.8 -13.21 Q 212.29 -12.35 212.29 -11.13 L 212.29 -11.13 L 212.29 -2.57 Q 212.29 -2.44 212.31 -2.27 Q 212.32 -2.1 212.38 -1.97 Q 212.44 -1.83 212.56 -1.74 Q 212.69 -1.65 212.91 -1.65 L 212.91 -1.65 Q 213.19 -1.65 213.42 -1.85 Q 213.65 -2.06 213.84 -2.27 L 213.84 -2.27 L 214.21 -1.95 Q 213.99 -1.63 213.67 -1.26 Q 213.35 -0.88 212.9 -0.54 Q 212.44 -0.21 211.84 0.02 Q 211.23 0.24 210.46 0.24 L 210.46 0.24 Q 209.51 0.24 208.77 -0.33 Q 208.02 -0.89 207.8 -2.07 L 207.8 -2.07 Q 207.31 -1.42 206.79 -0.98 Q 206.27 -0.54 205.72 -0.27 Q 205.18 0 204.63 0.12 Q 204.07 0.24 203.51 0.24 L 203.51 0.24 Q 202.79 0.24 202.11 0.02 Q 201.42 -0.21 200.89 -0.7 Q 200.35 -1.2 200.02 -1.98 Q 199.7 -2.77 199.7 -3.91 Z M 204.13 -4.9 L 204.13 -4.9 Q 204.13 -4.03 204.26 -3.45 Q 204.39 -2.88 204.61 -2.54 Q 204.83 -2.19 205.12 -2.06 Q 205.41 -1.92 205.72 -1.92 L 205.72 -1.92 Q 206.12 -1.92 206.46 -2.13 Q 206.81 -2.33 207.07 -2.65 Q 207.33 -2.97 207.48 -3.36 Q 207.63 -3.75 207.63 -4.15 L 207.63 -4.15 L 207.63 -7.84 Q 207.63 -8.22 207.39 -8.42 Q 207.15 -8.61 206.77 -8.61 L 206.77 -8.61 Q 206.24 -8.61 205.76 -8.37 Q 205.28 -8.13 204.92 -7.66 Q 204.56 -7.19 204.35 -6.5 Q 204.13 -5.81 204.13 -4.9 Z M 216.47 -14.41 L 214.77 -14.41 L 214.77 -15.5 Q 215.2 -15.5 215.96 -15.72 Q 216.71 -15.94 217.51 -16.45 Q 218.3 -16.97 218.98 -17.83 Q 219.66 -18.69 219.95 -19.97 L 219.95 -19.97 L 221.16 -19.97 L 221.16 -15.5 L 223.63 -15.5 Q 224.84 -15.5 224.84 -15.91 L 224.84 -15.91 Q 224.84 -16.06 224.69 -16.11 Q 224.54 -16.17 224.35 -16.25 Q 224.16 -16.33 224.01 -16.48 Q 223.86 -16.64 223.86 -16.98 L 223.86 -16.98 Q 223.86 -17.41 224.12 -17.65 Q 224.39 -17.89 224.81 -17.89 L 224.81 -17.89 Q 225.08 -17.89 225.29 -17.78 Q 225.49 -17.66 225.63 -17.48 Q 225.76 -17.29 225.83 -17.04 Q 225.9 -16.8 225.9 -16.56 L 225.9 -16.56 Q 225.9 -15.58 225.33 -14.99 Q 224.77 -14.41 223.51 -14.41 L 223.51 -14.41 L 221.16 -14.41 L 221.16 -3.22 Q 221.16 -2.42 221.47 -2.11 Q 221.77 -1.8 222.3 -1.8 L 222.3 -1.8 Q 222.71 -1.8 223.02 -2.03 Q 223.34 -2.26 223.57 -2.54 L 223.57 -2.54 Q 223.84 -2.86 224.04 -3.28 L 224.04 -3.28 L 224.51 -3.07 Q 224.28 -2.59 223.97 -2.01 Q 223.66 -1.44 223.15 -0.95 Q 222.63 -0.45 221.85 -0.12 Q 221.07 0.21 219.89 0.21 L 219.89 0.21 Q 219.23 0.21 218.61 0.02 Q 218 -0.18 217.52 -0.61 Q 217.05 -1.03 216.76 -1.67 Q 216.47 -2.3 216.47 -3.19 L 216.47 -3.19 L 216.47 -14.41 Z M 225.46 -13.79 L 225.14 -14.17 Q 225.49 -14.46 225.92 -14.74 Q 226.35 -15.02 226.85 -15.23 Q 227.35 -15.44 227.93 -15.58 Q 228.5 -15.71 229.14 -15.71 L 229.14 -15.71 Q 230.12 -15.71 230.67 -15.45 Q 231.21 -15.18 231.47 -14.8 Q 231.73 -14.41 231.78 -13.97 Q 231.83 -13.53 231.83 -13.2 L 231.83 -13.2 L 231.83 -1.36 Q 231.83 -1.17 231.77 -0.89 Q 231.7 -0.61 231.45 -0.36 Q 231.2 -0.11 230.73 0.07 Q 230.26 0.24 229.46 0.24 L 229.46 0.24 Q 228.66 0.24 228.2 0.05 Q 227.75 -0.14 227.52 -0.39 Q 227.29 -0.65 227.24 -0.92 Q 227.19 -1.2 227.19 -1.36 L 227.19 -1.36 L 227.19 -13.05 Q 227.19 -13.49 226.98 -13.81 Q 226.78 -14.14 226.29 -14.14 L 226.29 -14.14 Q 226.04 -14.14 225.85 -14.05 Q 225.67 -13.96 225.46 -13.79 L 225.46 -13.79 Z M 226.72 -19.16 L 226.72 -19.16 Q 226.72 -19.59 226.91 -19.97 Q 227.1 -20.36 227.44 -20.65 Q 227.78 -20.93 228.22 -21.1 Q 228.67 -21.27 229.2 -21.27 L 229.2 -21.27 Q 229.71 -21.27 230.16 -21.1 Q 230.61 -20.93 230.94 -20.65 Q 231.27 -20.36 231.46 -19.97 Q 231.65 -19.59 231.65 -19.16 L 231.65 -19.16 Q 231.65 -18.72 231.46 -18.35 Q 231.27 -17.97 230.94 -17.69 Q 230.61 -17.41 230.16 -17.24 Q 229.71 -17.07 229.2 -17.07 L 229.2 -17.07 Q 228.67 -17.07 228.22 -17.24 Q 227.78 -17.41 227.44 -17.69 Q 227.1 -17.97 226.91 -18.35 Q 226.72 -18.72 226.72 -19.16 Z M 234.68 -7.75 L 234.68 -7.75 Q 234.68 -9.73 235.25 -11.22 Q 235.83 -12.71 236.79 -13.71 Q 237.75 -14.71 239.02 -15.21 Q 240.3 -15.71 241.69 -15.71 L 241.69 -15.71 Q 243.08 -15.71 244.35 -15.25 Q 245.62 -14.79 246.58 -13.83 Q 247.55 -12.88 248.12 -11.42 Q 248.7 -9.96 248.7 -7.96 L 248.7 -7.96 Q 248.7 -5.98 248.12 -4.45 Q 247.55 -2.92 246.58 -1.88 Q 245.62 -0.83 244.35 -0.3 Q 243.08 0.24 241.69 0.24 L 241.69 0.24 Q 240.3 0.24 239.02 -0.26 Q 237.75 -0.77 236.79 -1.77 Q 235.83 -2.77 235.25 -4.27 Q 234.68 -5.77 234.68 -7.75 Z M 239.4 -7.75 L 239.4 -7.75 Q 239.4 -6.54 239.48 -5.38 Q 239.55 -4.22 239.8 -3.31 Q 240.04 -2.41 240.49 -1.85 Q 240.95 -1.3 241.69 -1.3 L 241.69 -1.3 Q 242.43 -1.3 242.88 -1.88 Q 243.34 -2.45 243.58 -3.39 Q 243.82 -4.33 243.91 -5.51 Q 243.99 -6.69 243.99 -7.9 L 243.99 -7.9 Q 243.99 -9.11 243.91 -10.24 Q 243.82 -11.37 243.58 -12.25 Q 243.34 -13.12 242.88 -13.65 Q 242.43 -14.17 241.69 -14.17 L 241.69 -14.17 Q 240.95 -14.17 240.49 -13.62 Q 240.04 -13.06 239.8 -12.16 Q 239.55 -11.26 239.48 -10.11 Q 239.4 -8.96 239.4 -7.75 Z M 249.98 -13.79 L 249.67 -14.17 Q 250.01 -14.46 250.44 -14.74 Q 250.88 -15.02 251.38 -15.23 Q 251.88 -15.44 252.45 -15.58 Q 253.03 -15.71 253.66 -15.71 L 253.66 -15.71 Q 254.65 -15.71 255.19 -15.39 Q 255.73 -15.06 255.99 -14.61 Q 256.25 -14.15 256.3 -13.66 Q 256.36 -13.17 256.36 -12.84 L 256.36 -12.84 Q 256.92 -13.64 257.63 -14.27 L 257.63 -14.27 Q 257.91 -14.55 258.27 -14.8 Q 258.63 -15.06 259.03 -15.27 Q 259.43 -15.47 259.87 -15.59 Q 260.32 -15.71 260.79 -15.71 L 260.79 -15.71 Q 261.82 -15.71 262.61 -15.32 Q 263.41 -14.92 263.95 -14 Q 264.5 -13.08 264.79 -11.56 Q 265.07 -10.04 265.07 -7.78 L 265.07 -7.78 Q 265.07 -5.59 264.68 -3.97 Q 264.29 -2.35 263.65 -1.21 Q 263.02 -0.08 262.21 0.64 Q 261.41 1.36 260.59 1.77 Q 259.78 2.18 259.03 2.34 Q 258.28 2.5 257.73 2.51 L 257.73 2.51 L 257.57 1.89 Q 258.02 1.79 258.41 1.56 Q 258.79 1.33 259.11 0.89 Q 259.43 0.45 259.67 -0.22 Q 259.91 -0.89 260.09 -1.91 Q 260.26 -2.92 260.34 -4.31 Q 260.43 -5.69 260.43 -7.54 L 260.43 -7.54 Q 260.43 -9.45 260.25 -10.59 Q 260.08 -11.73 259.79 -12.33 Q 259.5 -12.93 259.16 -13.12 Q 258.81 -13.31 258.44 -13.31 L 258.44 -13.31 Q 258.01 -13.31 257.66 -13.07 Q 257.32 -12.84 257.07 -12.53 Q 256.82 -12.23 256.65 -11.93 Q 256.48 -11.63 256.36 -11.47 L 256.36 -11.47 L 256.36 -1.36 Q 256.36 -1.17 256.29 -0.89 Q 256.23 -0.61 256 -0.36 Q 255.77 -0.11 255.3 0.07 Q 254.84 0.24 254.04 0.24 L 254.04 0.24 Q 253.24 0.24 252.78 0.05 Q 252.31 -0.14 252.07 -0.39 Q 251.83 -0.65 251.77 -0.92 Q 251.71 -1.2 251.71 -1.36 L 251.71 -1.36 L 251.71 -13.05 Q 251.71 -13.49 251.5 -13.81 Q 251.3 -14.14 250.82 -14.14 L 250.82 -14.14 Q 250.56 -14.14 250.38 -14.05 Q 250.19 -13.96 249.98 -13.79 L 249.98 -13.79 Z M 267.94 5.3 L 267.94 5.3 Q 267.94 5.03 268.01 4.75 Q 268.09 4.47 268.24 4.24 Q 268.39 4.01 268.61 3.87 Q 268.83 3.72 269.12 3.72 L 269.12 3.72 Q 269.28 3.72 269.41 3.89 Q 269.54 4.06 269.68 4.3 Q 269.81 4.54 269.99 4.84 Q 270.16 5.13 270.43 5.37 Q 270.71 5.62 271.11 5.78 Q 271.51 5.95 272.08 5.95 L 272.08 5.95 Q 272.85 5.95 273.44 5.64 Q 274.04 5.33 274.46 4.78 Q 274.88 4.24 275.17 3.5 Q 275.46 2.75 275.62 1.91 Q 275.79 1.06 275.86 0.14 Q 275.93 -0.79 275.93 -1.71 L 275.93 -1.71 L 275.93 -14.41 L 273.14 -14.41 L 273.14 -15.5 L 275.93 -15.5 L 275.93 -17.27 Q 275.93 -18.6 276.25 -19.59 Q 276.58 -20.59 277.12 -21.28 Q 277.65 -21.98 278.33 -22.42 Q 279.02 -22.86 279.72 -23.11 Q 280.42 -23.37 281.09 -23.46 Q 281.75 -23.55 282.25 -23.55 L 282.25 -23.55 Q 283.33 -23.55 284.16 -23.39 Q 284.99 -23.23 285.55 -22.97 Q 286.11 -22.71 286.4 -22.36 Q 286.69 -22.01 286.69 -21.65 L 286.69 -21.65 Q 286.69 -21.37 286.61 -21.09 Q 286.52 -20.81 286.37 -20.58 Q 286.22 -20.34 286 -20.2 Q 285.78 -20.06 285.51 -20.06 L 285.51 -20.06 Q 285.34 -20.06 285.21 -20.24 Q 285.07 -20.42 284.92 -20.69 Q 284.77 -20.96 284.59 -21.28 Q 284.4 -21.6 284.14 -21.87 Q 283.87 -22.15 283.51 -22.33 Q 283.15 -22.51 282.65 -22.51 L 282.65 -22.51 Q 282.22 -22.51 281.85 -22.33 Q 281.47 -22.15 281.19 -21.74 Q 280.91 -21.34 280.74 -20.72 Q 280.57 -20.1 280.57 -19.22 L 280.57 -19.22 L 280.57 -15.5 L 283.89 -15.5 L 283.89 -14.41 L 280.57 -14.41 L 280.57 -2.48 Q 280.57 -0.42 280.04 1.32 Q 279.5 3.06 278.41 4.32 Q 277.32 5.59 275.69 6.3 Q 274.05 7.01 271.87 7.01 L 271.87 7.01 Q 271.1 7.01 270.39 6.88 Q 269.68 6.75 269.13 6.52 Q 268.59 6.3 268.26 5.99 Q 267.94 5.68 267.94 5.3 Z M 284 -7.75 L 284 -7.75 Q 284 -9.73 284.57 -11.22 Q 285.15 -12.71 286.11 -13.71 Q 287.07 -14.71 288.34 -15.21 Q 289.61 -15.71 291 -15.71 L 291 -15.71 Q 292.4 -15.71 293.67 -15.25 Q 294.94 -14.79 295.9 -13.83 Q 296.86 -12.88 297.44 -11.42 Q 298.01 -9.96 298.01 -7.96 L 298.01 -7.96 Q 298.01 -5.98 297.44 -4.45 Q 296.86 -2.92 295.9 -1.88 Q 294.94 -0.83 293.67 -0.3 Q 292.4 0.24 291 0.24 L 291 0.24 Q 289.61 0.24 288.34 -0.26 Q 287.07 -0.77 286.11 -1.77 Q 285.15 -2.77 284.57 -4.27 Q 284 -5.77 284 -7.75 Z M 288.72 -7.75 L 288.72 -7.75 Q 288.72 -6.54 288.79 -5.38 Q 288.87 -4.22 289.11 -3.31 Q 289.35 -2.41 289.81 -1.85 Q 290.26 -1.3 291 -1.3 L 291 -1.3 Q 291.75 -1.3 292.2 -1.88 Q 292.65 -2.45 292.9 -3.39 Q 293.14 -4.33 293.22 -5.51 Q 293.3 -6.69 293.3 -7.9 L 293.3 -7.9 Q 293.3 -9.11 293.22 -10.24 Q 293.14 -11.37 292.9 -12.25 Q 292.65 -13.12 292.2 -13.65 Q 291.75 -14.17 291 -14.17 L 291 -14.17 Q 290.26 -14.17 289.81 -13.62 Q 289.35 -13.06 289.11 -12.16 Q 288.87 -11.26 288.79 -10.11 Q 288.72 -8.96 288.72 -7.75 Z M 299.3 -13.79 L 298.98 -14.17 Q 299.33 -14.46 299.76 -14.74 Q 300.19 -15.02 300.69 -15.23 Q 301.19 -15.44 301.77 -15.58 Q 302.34 -15.71 302.98 -15.71 L 302.98 -15.71 Q 303.63 -15.71 304.09 -15.54 Q 304.55 -15.36 304.85 -15.08 Q 305.14 -14.8 305.31 -14.46 Q 305.47 -14.11 305.56 -13.75 Q 305.64 -13.4 305.66 -13.07 Q 305.67 -12.75 305.67 -12.52 L 305.67 -12.52 Q 306.25 -13.4 306.9 -14.11 L 306.9 -14.11 Q 307.17 -14.41 307.49 -14.7 Q 307.81 -14.99 308.15 -15.21 Q 308.49 -15.44 308.85 -15.58 Q 309.21 -15.71 309.58 -15.71 L 309.58 -15.71 Q 310.35 -15.71 310.79 -15.25 Q 311.23 -14.79 311.23 -13.96 L 311.23 -13.96 Q 311.23 -13.44 311.14 -12.96 Q 311.06 -12.49 310.82 -11.81 L 310.82 -11.81 L 310.39 -11.81 Q 310.3 -12.28 309.97 -12.59 Q 309.64 -12.9 309 -12.9 L 309 -12.9 Q 308.53 -12.9 308.08 -12.72 Q 307.62 -12.55 307.19 -12.29 Q 306.76 -12.03 306.37 -11.73 Q 305.99 -11.43 305.67 -11.16 L 305.67 -11.16 L 305.67 -1.33 Q 305.67 -1.14 305.61 -0.86 Q 305.55 -0.59 305.32 -0.35 Q 305.08 -0.11 304.62 0.07 Q 304.16 0.24 303.35 0.24 L 303.35 0.24 Q 302.55 0.24 302.09 0.05 Q 301.63 -0.14 301.39 -0.39 Q 301.15 -0.65 301.08 -0.92 Q 301.02 -1.2 301.02 -1.36 L 301.02 -1.36 L 301.02 -13.05 Q 301.02 -13.49 300.82 -13.81 Q 300.62 -14.14 300.13 -14.14 L 300.13 -14.14 Q 299.87 -14.14 299.69 -14.05 Q 299.51 -13.96 299.3 -13.79 L 299.3 -13.79 Z M 318.23 -16.36 L 318.23 -16.36 Q 318.23 -17.41 318.61 -18.28 Q 318.99 -19.15 319.65 -19.84 Q 320.31 -20.54 321.19 -21.06 Q 322.08 -21.58 323.11 -21.93 Q 324.14 -22.28 325.26 -22.46 Q 326.38 -22.63 327.5 -22.63 L 327.5 -22.63 Q 328.74 -22.63 329.43 -22.39 Q 330.12 -22.16 330.44 -21.83 Q 330.77 -21.49 330.83 -21.13 Q 330.89 -20.77 330.89 -20.53 L 330.89 -20.53 L 330.89 -1.98 Q 330.89 -0.82 330.28 -0.29 Q 329.66 0.24 328.41 0.24 L 328.41 0.24 Q 327.13 0.24 326.53 -0.29 Q 325.92 -0.82 325.92 -1.98 L 325.92 -1.98 L 325.92 -20.21 Q 325.92 -20.54 325.85 -20.74 Q 325.77 -20.93 325.64 -21.05 Q 325.5 -21.16 325.31 -21.2 Q 325.12 -21.24 324.89 -21.24 L 324.89 -21.24 Q 324.56 -21.24 324.07 -21.13 Q 323.58 -21.02 323.03 -20.81 Q 322.49 -20.6 321.94 -20.29 Q 321.38 -19.98 320.95 -19.59 Q 320.52 -19.19 320.25 -18.71 Q 319.98 -18.22 319.98 -17.66 L 319.98 -17.66 Q 319.98 -17.18 320.1 -16.89 Q 320.23 -16.6 320.4 -16.46 Q 320.57 -16.32 320.74 -16.28 Q 320.91 -16.24 320.99 -16.24 L 320.99 -16.24 Q 321.37 -16.24 321.61 -16.37 Q 321.85 -16.5 322.05 -16.64 Q 322.25 -16.79 322.42 -16.92 Q 322.59 -17.04 322.82 -17.04 L 322.82 -17.04 Q 323 -17.04 323.21 -16.96 Q 323.41 -16.88 323.59 -16.7 Q 323.76 -16.51 323.88 -16.22 Q 324 -15.92 324 -15.5 L 324 -15.5 Q 324 -14.89 323.77 -14.46 Q 323.53 -14.02 323.16 -13.72 Q 322.79 -13.43 322.31 -13.28 Q 321.84 -13.14 321.37 -13.14 L 321.37 -13.14 Q 320.64 -13.14 320.06 -13.39 Q 319.48 -13.64 319.07 -14.08 Q 318.66 -14.52 318.45 -15.11 Q 318.23 -15.7 318.23 -16.36 Z M 333.52 -13.79 L 333.2 -14.17 Q 333.55 -14.46 333.98 -14.74 Q 334.42 -15.02 334.92 -15.23 Q 335.41 -15.44 335.99 -15.58 Q 336.56 -15.71 337.2 -15.71 L 337.2 -15.71 Q 338.18 -15.71 338.73 -15.39 Q 339.27 -15.06 339.53 -14.61 Q 339.79 -14.15 339.84 -13.66 Q 339.9 -13.17 339.9 -12.84 L 339.9 -12.84 Q 340.46 -13.64 341.17 -14.27 L 341.17 -14.27 Q 341.45 -14.55 341.81 -14.8 Q 342.17 -15.06 342.57 -15.27 Q 342.97 -15.47 343.41 -15.59 Q 343.86 -15.71 344.33 -15.71 L 344.33 -15.71 Q 345.36 -15.71 346.15 -15.32 Q 346.95 -14.92 347.49 -14 Q 348.04 -13.08 348.33 -11.56 Q 348.61 -10.04 348.61 -7.78 L 348.61 -7.78 Q 348.61 -5.59 348.22 -3.97 Q 347.83 -2.35 347.19 -1.21 Q 346.56 -0.08 345.75 0.64 Q 344.95 1.36 344.13 1.77 Q 343.32 2.18 342.57 2.34 Q 341.82 2.5 341.27 2.51 L 341.27 2.51 L 341.11 1.89 Q 341.56 1.79 341.95 1.56 Q 342.33 1.33 342.65 0.89 Q 342.97 0.45 343.21 -0.22 Q 343.45 -0.89 343.63 -1.91 Q 343.8 -2.92 343.88 -4.31 Q 343.97 -5.69 343.97 -7.54 L 343.97 -7.54 Q 343.97 -9.45 343.79 -10.59 Q 343.62 -11.73 343.33 -12.33 Q 343.04 -12.93 342.7 -13.12 Q 342.35 -13.31 341.98 -13.31 L 341.98 -13.31 Q 341.54 -13.31 341.2 -13.07 Q 340.86 -12.84 340.61 -12.53 Q 340.36 -12.23 340.19 -11.93 Q 340.02 -11.63 339.9 -11.47 L 339.9 -11.47 L 339.9 -1.36 Q 339.9 -1.17 339.83 -0.89 Q 339.77 -0.61 339.54 -0.36 Q 339.3 -0.11 338.84 0.07 Q 338.38 0.24 337.58 0.24 L 337.58 0.24 Q 336.78 0.24 336.32 0.05 Q 335.85 -0.14 335.61 -0.39 Q 335.37 -0.65 335.31 -0.92 Q 335.25 -1.2 335.25 -1.36 L 335.25 -1.36 L 335.25 -13.05 Q 335.25 -13.49 335.04 -13.81 Q 334.84 -14.14 334.35 -14.14 L 334.35 -14.14 Q 334.1 -14.14 333.92 -14.05 Q 333.73 -13.96 333.52 -13.79 L 333.52 -13.79 Z M 344.5 5.3 L 344.5 5.3 Q 344.5 5.03 344.57 4.75 Q 344.65 4.47 344.8 4.24 Q 344.95 4.01 345.17 3.87 Q 345.39 3.72 345.68 3.72 L 345.68 3.72 Q 345.84 3.72 345.97 3.89 Q 346.1 4.06 346.24 4.3 Q 346.37 4.54 346.55 4.84 Q 346.72 5.13 346.99 5.37 Q 347.27 5.62 347.67 5.78 Q 348.07 5.95 348.64 5.95 L 348.64 5.95 Q 349.42 5.95 350.01 5.64 Q 350.6 5.33 351.02 4.78 Q 351.44 4.24 351.73 3.5 Q 352.02 2.75 352.19 1.91 Q 352.35 1.06 352.42 0.14 Q 352.49 -0.79 352.49 -1.71 L 352.49 -1.71 L 352.49 -14.41 L 349.7 -14.41 L 349.7 -15.5 L 352.49 -15.5 L 352.49 -17.27 Q 352.49 -18.6 352.81 -19.59 Q 353.14 -20.59 353.68 -21.28 Q 354.21 -21.98 354.9 -22.42 Q 355.58 -22.86 356.28 -23.11 Q 356.98 -23.37 357.65 -23.46 Q 358.32 -23.55 358.82 -23.55 L 358.82 -23.55 Q 359.89 -23.55 360.72 -23.39 Q 361.56 -23.23 362.12 -22.97 Q 362.68 -22.71 362.96 -22.36 Q 363.25 -22.01 363.25 -21.65 L 363.25 -21.65 Q 363.25 -21.37 363.17 -21.09 Q 363.08 -20.81 362.93 -20.58 Q 362.78 -20.34 362.56 -20.2 Q 362.34 -20.06 362.07 -20.06 L 362.07 -20.06 Q 361.9 -20.06 361.77 -20.24 Q 361.63 -20.42 361.48 -20.69 Q 361.33 -20.96 361.15 -21.28 Q 360.97 -21.6 360.7 -21.87 Q 360.44 -22.15 360.07 -22.33 Q 359.71 -22.51 359.21 -22.51 L 359.21 -22.51 Q 358.79 -22.51 358.41 -22.33 Q 358.03 -22.15 357.75 -21.74 Q 357.47 -21.34 357.3 -20.72 Q 357.14 -20.1 357.14 -19.22 L 357.14 -19.22 L 357.14 -15.5 L 360.45 -15.5 L 360.45 -14.41 L 357.14 -14.41 L 357.14 -2.48 Q 357.14 -0.42 356.6 1.32 Q 356.06 3.06 354.97 4.32 Q 353.88 5.59 352.25 6.3 Q 350.61 7.01 348.43 7.01 L 348.43 7.01 Q 347.66 7.01 346.95 6.88 Q 346.24 6.75 345.69 6.52 Q 345.15 6.3 344.82 5.99 Q 344.5 5.68 344.5 5.3 Z M 360.56 -7.75 L 360.56 -7.75 Q 360.56 -9.73 361.13 -11.22 Q 361.71 -12.71 362.67 -13.71 Q 363.63 -14.71 364.9 -15.21 Q 366.17 -15.71 367.56 -15.71 L 367.56 -15.71 Q 368.96 -15.71 370.23 -15.25 Q 371.5 -14.79 372.46 -13.83 Q 373.42 -12.88 374 -11.42 Q 374.57 -9.96 374.57 -7.96 L 374.57 -7.96 Q 374.57 -5.98 374 -4.45 Q 373.42 -2.92 372.46 -1.88 Q 371.5 -0.83 370.23 -0.3 Q 368.96 0.24 367.56 0.24 L 367.56 0.24 Q 366.17 0.24 364.9 -0.26 Q 363.63 -0.77 362.67 -1.77 Q 361.71 -2.77 361.13 -4.27 Q 360.56 -5.77 360.56 -7.75 Z M 365.28 -7.75 L 365.28 -7.75 Q 365.28 -6.54 365.35 -5.38 Q 365.43 -4.22 365.67 -3.31 Q 365.92 -2.41 366.37 -1.85 Q 366.82 -1.3 367.56 -1.3 L 367.56 -1.3 Q 368.31 -1.3 368.76 -1.88 Q 369.21 -2.45 369.46 -3.39 Q 369.7 -4.33 369.78 -5.51 Q 369.87 -6.69 369.87 -7.9 L 369.87 -7.9 Q 369.87 -9.11 369.78 -10.24 Q 369.7 -11.37 369.46 -12.25 Q 369.21 -13.12 368.76 -13.65 Q 368.31 -14.17 367.56 -14.17 L 367.56 -14.17 Q 366.82 -14.17 366.37 -13.62 Q 365.92 -13.06 365.67 -12.16 Q 365.43 -11.26 365.35 -10.11 Q 365.28 -8.96 365.28 -7.75 Z M 375.86 -13.79 L 375.54 -14.17 Q 375.89 -14.46 376.32 -14.74 Q 376.75 -15.02 377.25 -15.23 Q 377.75 -15.44 378.33 -15.58 Q 378.9 -15.71 379.54 -15.71 L 379.54 -15.71 Q 380.19 -15.71 380.65 -15.54 Q 381.11 -15.36 381.41 -15.08 Q 381.7 -14.8 381.87 -14.46 Q 382.04 -14.11 382.12 -13.75 Q 382.2 -13.4 382.22 -13.07 Q 382.23 -12.75 382.23 -12.52 L 382.23 -12.52 Q 382.81 -13.4 383.46 -14.11 L 383.46 -14.11 Q 383.73 -14.41 384.05 -14.7 Q 384.37 -14.99 384.71 -15.21 Q 385.05 -15.44 385.41 -15.58 Q 385.77 -15.71 386.14 -15.71 L 386.14 -15.71 Q 386.91 -15.71 387.35 -15.25 Q 387.79 -14.79 387.79 -13.96 L 387.79 -13.96 Q 387.79 -13.44 387.7 -12.96 Q 387.62 -12.49 387.38 -11.81 L 387.38 -11.81 L 386.96 -11.81 Q 386.86 -12.28 386.53 -12.59 Q 386.2 -12.9 385.56 -12.9 L 385.56 -12.9 Q 385.09 -12.9 384.64 -12.72 Q 384.19 -12.55 383.75 -12.29 Q 383.32 -12.03 382.94 -11.73 Q 382.55 -11.43 382.23 -11.16 L 382.23 -11.16 L 382.23 -1.33 Q 382.23 -1.14 382.17 -0.86 Q 382.11 -0.59 381.88 -0.35 Q 381.64 -0.11 381.18 0.07 Q 380.72 0.24 379.92 0.24 L 379.92 0.24 Q 379.11 0.24 378.65 0.05 Q 378.19 -0.14 377.95 -0.39 Q 377.71 -0.65 377.65 -0.92 Q 377.59 -1.2 377.59 -1.36 L 377.59 -1.36 L 377.59 -13.05 Q 377.59 -13.49 377.38 -13.81 Q 377.18 -14.14 376.69 -14.14 L 376.69 -14.14 Q 376.44 -14.14 376.25 -14.05 Q 376.07 -13.96 375.86 -13.79 L 375.86 -13.79 Z M 388.17 -13.79 L 387.85 -14.17 Q 388.2 -14.46 388.63 -14.74 Q 389.06 -15.02 389.56 -15.23 Q 390.06 -15.44 390.63 -15.58 Q 391.21 -15.71 391.84 -15.71 L 391.84 -15.71 Q 392.83 -15.71 393.37 -15.39 Q 393.92 -15.06 394.18 -14.61 Q 394.43 -14.15 394.49 -13.66 Q 394.54 -13.17 394.54 -12.84 L 394.54 -12.84 Q 395.25 -13.64 396.07 -14.27 L 396.07 -14.27 Q 396.4 -14.55 396.8 -14.8 Q 397.2 -15.06 397.63 -15.27 Q 398.05 -15.47 398.5 -15.59 Q 398.96 -15.71 399.41 -15.71 L 399.41 -15.71 Q 400.29 -15.71 400.91 -15.39 Q 401.53 -15.08 401.91 -14.63 Q 402.29 -14.18 402.46 -13.69 Q 402.64 -13.2 402.64 -12.84 L 402.64 -12.84 Q 403.36 -13.64 404.17 -14.27 L 404.17 -14.27 Q 404.5 -14.55 404.89 -14.8 Q 405.29 -15.06 405.72 -15.27 Q 406.15 -15.47 406.59 -15.59 Q 407.04 -15.71 407.5 -15.71 L 407.5 -15.71 Q 408.37 -15.71 408.99 -15.39 Q 409.61 -15.06 409.99 -14.53 Q 410.37 -14 410.55 -13.34 Q 410.72 -12.67 410.72 -12 L 410.72 -12 L 410.72 -2.63 Q 410.72 -2.5 410.73 -2.34 Q 410.75 -2.18 410.81 -2.04 Q 410.87 -1.89 411 -1.8 Q 411.13 -1.71 411.34 -1.71 L 411.34 -1.71 Q 411.63 -1.71 411.85 -1.91 Q 412.08 -2.12 412.28 -2.33 L 412.28 -2.33 L 412.64 -2.01 Q 412.43 -1.7 412.08 -1.31 Q 411.73 -0.92 411.26 -0.58 Q 410.78 -0.23 410.15 0.01 Q 409.52 0.24 408.74 0.24 L 408.74 0.24 Q 408.07 0.24 407.58 0.07 Q 407.09 -0.11 406.75 -0.4 Q 406.41 -0.7 406.24 -1.1 Q 406.07 -1.5 406.07 -1.95 L 406.07 -1.95 L 406.07 -12.06 Q 406.07 -12.28 406.01 -12.5 Q 405.95 -12.71 405.84 -12.9 Q 405.72 -13.08 405.54 -13.19 Q 405.36 -13.31 405.12 -13.31 L 405.12 -13.31 Q 404.71 -13.31 404.31 -13.07 Q 403.91 -12.84 403.57 -12.53 Q 403.23 -12.23 402.98 -11.93 Q 402.74 -11.63 402.64 -11.47 L 402.64 -11.47 L 402.64 -1.33 Q 402.64 -1.14 402.58 -0.86 Q 402.52 -0.59 402.28 -0.35 Q 402.05 -0.11 401.58 0.07 Q 401.11 0.24 400.31 0.24 L 400.31 0.24 Q 399.5 0.24 399.04 0.05 Q 398.58 -0.14 398.35 -0.39 Q 398.11 -0.65 398.05 -0.92 Q 397.99 -1.2 397.99 -1.36 L 397.99 -1.36 L 397.99 -12.06 Q 397.99 -12.28 397.93 -12.5 Q 397.87 -12.71 397.75 -12.9 Q 397.63 -13.08 397.44 -13.19 Q 397.26 -13.31 397.02 -13.31 L 397.02 -13.31 Q 396.61 -13.31 396.22 -13.07 Q 395.83 -12.84 395.48 -12.53 Q 395.14 -12.23 394.89 -11.93 Q 394.64 -11.63 394.54 -11.47 L 394.54 -11.47 L 394.54 -1.33 Q 394.54 -1.14 394.48 -0.86 Q 394.42 -0.59 394.18 -0.35 Q 393.95 -0.11 393.49 0.07 Q 393.02 0.24 392.22 0.24 L 392.22 0.24 Q 391.42 0.24 390.96 0.05 Q 390.5 -0.14 390.25 -0.39 Q 390.01 -0.65 389.95 -0.92 Q 389.89 -1.2 389.89 -1.36 L 389.89 -1.36 L 389.89 -13.05 Q 389.89 -13.49 389.69 -13.81 Q 389.48 -14.14 389 -14.14 L 389 -14.14 Q 388.74 -14.14 388.56 -14.05 Q 388.38 -13.96 388.17 -13.79 L 388.17 -13.79 Z M 413.58 -3.91 L 413.58 -3.91 Q 413.58 -5.28 414.13 -6.16 Q 414.67 -7.04 415.56 -7.64 Q 416.44 -8.23 417.57 -8.66 Q 418.7 -9.08 419.88 -9.55 L 419.88 -9.55 Q 420.76 -9.9 421.16 -10.59 Q 421.56 -11.28 421.56 -12 L 421.56 -12 Q 421.56 -13.12 420.9 -13.8 Q 420.24 -14.47 419.11 -14.47 L 419.11 -14.47 Q 418.59 -14.47 418.15 -14.35 Q 417.71 -14.23 417.4 -14.05 Q 417.08 -13.87 416.9 -13.65 Q 416.71 -13.43 416.71 -13.23 L 416.71 -13.23 Q 416.71 -13 416.95 -12.9 Q 417.18 -12.81 417.47 -12.68 Q 417.76 -12.55 417.99 -12.31 Q 418.23 -12.08 418.23 -11.59 L 418.23 -11.59 Q 418.23 -11.28 418.1 -11.01 Q 417.97 -10.75 417.75 -10.54 Q 417.53 -10.34 417.24 -10.22 Q 416.94 -10.11 416.62 -10.11 L 416.62 -10.11 Q 415.78 -10.11 415.25 -10.69 Q 414.73 -11.26 414.73 -12.22 L 414.73 -12.22 Q 414.73 -13.14 415.22 -13.8 Q 415.7 -14.46 416.48 -14.88 Q 417.26 -15.3 418.24 -15.51 Q 419.23 -15.71 420.21 -15.71 L 420.21 -15.71 Q 421.39 -15.71 422.47 -15.45 Q 423.54 -15.2 424.37 -14.64 Q 425.19 -14.08 425.68 -13.21 Q 426.17 -12.35 426.17 -11.13 L 426.17 -11.13 L 426.17 -2.57 Q 426.17 -2.44 426.19 -2.27 Q 426.2 -2.1 426.27 -1.97 Q 426.33 -1.83 426.45 -1.74 Q 426.57 -1.65 426.79 -1.65 L 426.79 -1.65 Q 427.07 -1.65 427.3 -1.85 Q 427.54 -2.06 427.72 -2.27 L 427.72 -2.27 L 428.1 -1.95 Q 427.87 -1.63 427.55 -1.26 Q 427.23 -0.88 426.78 -0.54 Q 426.33 -0.21 425.72 0.02 Q 425.11 0.24 424.34 0.24 L 424.34 0.24 Q 423.39 0.24 422.65 -0.33 Q 421.91 -0.89 421.68 -2.07 L 421.68 -2.07 Q 421.19 -1.42 420.67 -0.98 Q 420.15 -0.54 419.6 -0.27 Q 419.06 0 418.51 0.12 Q 417.96 0.24 417.4 0.24 L 417.4 0.24 Q 416.67 0.24 415.99 0.02 Q 415.31 -0.21 414.77 -0.7 Q 414.23 -1.2 413.91 -1.98 Q 413.58 -2.77 413.58 -3.91 Z M 418.02 -4.9 L 418.02 -4.9 Q 418.02 -4.03 418.14 -3.45 Q 418.27 -2.88 418.49 -2.54 Q 418.71 -2.19 419 -2.06 Q 419.29 -1.92 419.6 -1.92 L 419.6 -1.92 Q 420 -1.92 420.35 -2.13 Q 420.69 -2.33 420.95 -2.65 Q 421.21 -2.97 421.36 -3.36 Q 421.51 -3.75 421.51 -4.15 L 421.51 -4.15 L 421.51 -7.84 Q 421.51 -8.22 421.27 -8.42 Q 421.03 -8.61 420.65 -8.61 L 420.65 -8.61 Q 420.12 -8.61 419.64 -8.37 Q 419.17 -8.13 418.8 -7.66 Q 418.44 -7.19 418.23 -6.5 Q 418.02 -5.81 418.02 -4.9 Z M 430.35 -14.41 L 428.66 -14.41 L 428.66 -15.5 Q 429.08 -15.5 429.84 -15.72 Q 430.59 -15.94 431.39 -16.45 Q 432.18 -16.97 432.86 -17.83 Q 433.55 -18.69 433.83 -19.97 L 433.83 -19.97 L 435.04 -19.97 L 435.04 -15.5 L 437.51 -15.5 Q 438.72 -15.5 438.72 -15.91 L 438.72 -15.91 Q 438.72 -16.06 438.57 -16.11 Q 438.42 -16.17 438.23 -16.25 Q 438.04 -16.33 437.89 -16.48 Q 437.74 -16.64 437.74 -16.98 L 437.74 -16.98 Q 437.74 -17.41 438 -17.65 Q 438.27 -17.89 438.69 -17.89 L 438.69 -17.89 Q 438.96 -17.89 439.17 -17.78 Q 439.37 -17.66 439.51 -17.48 Q 439.65 -17.29 439.71 -17.04 Q 439.78 -16.8 439.78 -16.56 L 439.78 -16.56 Q 439.78 -15.58 439.21 -14.99 Q 438.65 -14.41 437.39 -14.41 L 437.39 -14.41 L 435.04 -14.41 L 435.04 -3.22 Q 435.04 -2.42 435.35 -2.11 Q 435.65 -1.8 436.18 -1.8 L 436.18 -1.8 Q 436.59 -1.8 436.91 -2.03 Q 437.22 -2.26 437.45 -2.54 L 437.45 -2.54 Q 437.72 -2.86 437.92 -3.28 L 437.92 -3.28 L 438.39 -3.07 Q 438.16 -2.59 437.85 -2.01 Q 437.54 -1.44 437.03 -0.95 Q 436.51 -0.45 435.73 -0.12 Q 434.95 0.21 433.77 0.21 L 433.77 0.21 Q 433.11 0.21 432.49 0.02 Q 431.88 -0.18 431.4 -0.61 Q 430.93 -1.03 430.64 -1.67 Q 430.35 -2.3 430.35 -3.19 L 430.35 -3.19 L 430.35 -14.41 Z M 439.34 -13.79 L 439.03 -14.17 Q 439.37 -14.46 439.8 -14.74 Q 440.24 -15.02 440.74 -15.23 Q 441.24 -15.44 441.81 -15.58 Q 442.39 -15.71 443.02 -15.71 L 443.02 -15.71 Q 444.01 -15.71 444.55 -15.45 Q 445.1 -15.18 445.35 -14.8 Q 445.61 -14.41 445.66 -13.97 Q 445.72 -13.53 445.72 -13.2 L 445.72 -13.2 L 445.72 -1.36 Q 445.72 -1.17 445.65 -0.89 Q 445.58 -0.61 445.33 -0.36 Q 445.08 -0.11 444.61 0.07 Q 444.14 0.24 443.34 0.24 L 443.34 0.24 Q 442.54 0.24 442.08 0.05 Q 441.63 -0.14 441.4 -0.39 Q 441.17 -0.65 441.12 -0.92 Q 441.07 -1.2 441.07 -1.36 L 441.07 -1.36 L 441.07 -13.05 Q 441.07 -13.49 440.86 -13.81 Q 440.66 -14.14 440.18 -14.14 L 440.18 -14.14 Q 439.92 -14.14 439.74 -14.05 Q 439.56 -13.96 439.34 -13.79 L 439.34 -13.79 Z M 440.6 -19.16 L 440.6 -19.16 Q 440.6 -19.59 440.79 -19.97 Q 440.98 -20.36 441.32 -20.65 Q 441.66 -20.93 442.11 -21.1 Q 442.55 -21.27 443.08 -21.27 L 443.08 -21.27 Q 443.6 -21.27 444.04 -21.1 Q 444.49 -20.93 444.82 -20.65 Q 445.16 -20.36 445.34 -19.97 Q 445.53 -19.59 445.53 -19.16 L 445.53 -19.16 Q 445.53 -18.72 445.34 -18.35 Q 445.16 -17.97 444.82 -17.69 Q 444.49 -17.41 444.04 -17.24 Q 443.6 -17.07 443.08 -17.07 L 443.08 -17.07 Q 442.55 -17.07 442.11 -17.24 Q 441.66 -17.41 441.32 -17.69 Q 440.98 -17.97 440.79 -18.35 Q 440.6 -18.72 440.6 -19.16 Z M 448.56 -7.75 L 448.56 -7.75 Q 448.56 -9.73 449.14 -11.22 Q 449.71 -12.71 450.67 -13.71 Q 451.63 -14.71 452.91 -15.21 Q 454.18 -15.71 455.57 -15.71 L 455.57 -15.71 Q 456.96 -15.71 458.23 -15.25 Q 459.51 -14.79 460.47 -13.83 Q 461.43 -12.88 462 -11.42 Q 462.58 -9.96 462.58 -7.96 L 462.58 -7.96 Q 462.58 -5.98 462 -4.45 Q 461.43 -2.92 460.47 -1.88 Q 459.51 -0.83 458.23 -0.3 Q 456.96 0.24 455.57 0.24 L 455.57 0.24 Q 454.18 0.24 452.91 -0.26 Q 451.63 -0.77 450.67 -1.77 Q 449.71 -2.77 449.14 -4.27 Q 448.56 -5.77 448.56 -7.75 Z M 453.28 -7.75 L 453.28 -7.75 Q 453.28 -6.54 453.36 -5.38 Q 453.44 -4.22 453.68 -3.31 Q 453.92 -2.41 454.37 -1.85 Q 454.83 -1.3 455.57 -1.3 L 455.57 -1.3 Q 456.31 -1.3 456.77 -1.88 Q 457.22 -2.45 457.46 -3.39 Q 457.7 -4.33 457.79 -5.51 Q 457.87 -6.69 457.87 -7.9 L 457.87 -7.9 Q 457.87 -9.11 457.79 -10.24 Q 457.7 -11.37 457.46 -12.25 Q 457.22 -13.12 456.77 -13.65 Q 456.31 -14.17 455.57 -14.17 L 455.57 -14.17 Q 454.83 -14.17 454.37 -13.62 Q 453.92 -13.06 453.68 -12.16 Q 453.44 -11.26 453.36 -10.11 Q 453.28 -8.96 453.28 -7.75 Z M 463.86 -13.79 L 463.55 -14.17 Q 463.9 -14.46 464.33 -14.74 Q 464.76 -15.02 465.26 -15.23 Q 465.76 -15.44 466.33 -15.58 Q 466.91 -15.71 467.54 -15.71 L 467.54 -15.71 Q 468.53 -15.71 469.07 -15.39 Q 469.62 -15.06 469.87 -14.61 Q 470.13 -14.15 470.18 -13.66 Q 470.24 -13.17 470.24 -12.84 L 470.24 -12.84 Q 470.8 -13.64 471.51 -14.27 L 471.51 -14.27 Q 471.8 -14.55 472.15 -14.8 Q 472.51 -15.06 472.91 -15.27 Q 473.31 -15.47 473.76 -15.59 Q 474.2 -15.71 474.67 -15.71 L 474.67 -15.71 Q 475.7 -15.71 476.5 -15.32 Q 477.29 -14.92 477.84 -14 Q 478.38 -13.08 478.67 -11.56 Q 478.96 -10.04 478.96 -7.78 L 478.96 -7.78 Q 478.96 -5.59 478.56 -3.97 Q 478.17 -2.35 477.53 -1.21 Q 476.9 -0.08 476.1 0.64 Q 475.29 1.36 474.48 1.77 Q 473.66 2.18 472.91 2.34 Q 472.16 2.5 471.61 2.51 L 471.61 2.51 L 471.45 1.89 Q 471.9 1.79 472.29 1.56 Q 472.67 1.33 472.99 0.89 Q 473.31 0.45 473.55 -0.22 Q 473.79 -0.89 473.97 -1.91 Q 474.14 -2.92 474.23 -4.31 Q 474.31 -5.69 474.31 -7.54 L 474.31 -7.54 Q 474.31 -9.45 474.14 -10.59 Q 473.96 -11.73 473.67 -12.33 Q 473.39 -12.93 473.04 -13.12 Q 472.69 -13.31 472.33 -13.31 L 472.33 -13.31 Q 471.89 -13.31 471.55 -13.07 Q 471.21 -12.84 470.96 -12.53 Q 470.71 -12.23 470.53 -11.93 Q 470.36 -11.63 470.24 -11.47 L 470.24 -11.47 L 470.24 -1.36 Q 470.24 -1.17 470.18 -0.89 Q 470.12 -0.61 469.88 -0.36 Q 469.65 -0.11 469.19 0.07 Q 468.72 0.24 467.92 0.24 L 467.92 0.24 Q 467.12 0.24 466.66 0.05 Q 466.2 -0.14 465.95 -0.39 Q 465.71 -0.65 465.65 -0.92 Q 465.59 -1.2 465.59 -1.36 L 465.59 -1.36 L 465.59 -13.05 Q 465.59 -13.49 465.39 -13.81 Q 465.18 -14.14 464.7 -14.14 L 464.7 -14.14 Q 464.44 -14.14 464.26 -14.05 Q 464.08 -13.96 463.86 -13.79 L 463.86 -13.79 Z M 487.18 -15.74 L 487.18 -15.74 Q 487.18 -17.51 488.15 -18.81 Q 489.13 -20.1 490.82 -20.96 Q 492.52 -21.81 494.77 -22.22 Q 497.03 -22.63 499.6 -22.63 L 499.6 -22.63 Q 500.83 -22.63 501.99 -22.61 Q 503.16 -22.58 504.12 -22.54 Q 505.08 -22.49 505.78 -22.43 Q 506.47 -22.37 506.79 -22.3 L 506.79 -22.3 Q 507.1 -22.22 507.28 -22.08 Q 507.46 -21.93 507.55 -21.75 Q 507.64 -21.57 507.67 -21.37 Q 507.7 -21.16 507.7 -20.95 L 507.7 -20.95 Q 507.7 -20.78 507.66 -20.56 Q 507.61 -20.34 507.52 -20.15 Q 507.43 -19.95 507.29 -19.81 Q 507.16 -19.68 506.96 -19.68 L 506.96 -19.68 Q 506.84 -19.68 506.71 -19.78 Q 506.58 -19.89 506.35 -20.04 Q 506.13 -20.19 505.74 -20.39 Q 505.35 -20.59 504.73 -20.75 Q 504.1 -20.92 503.18 -21.06 Q 502.27 -21.19 500.96 -21.24 L 500.96 -21.24 L 500.96 -1.98 Q 500.96 -0.82 500.36 -0.29 Q 499.75 0.24 498.5 0.24 L 498.5 0.24 Q 497.23 0.24 496.62 -0.29 Q 496.02 -0.82 496.02 -1.98 L 496.02 -1.98 L 496.02 -21.21 Q 495.53 -21.16 494.81 -21.03 Q 494.09 -20.9 493.31 -20.66 Q 492.52 -20.42 491.73 -20.08 Q 490.94 -19.74 490.32 -19.29 Q 489.7 -18.85 489.31 -18.29 Q 488.92 -17.73 488.92 -17.04 L 488.92 -17.04 Q 488.92 -16.56 489.04 -16.27 Q 489.17 -15.98 489.34 -15.84 Q 489.51 -15.7 489.68 -15.66 Q 489.85 -15.62 489.93 -15.62 L 489.93 -15.62 Q 490.31 -15.62 490.55 -15.75 Q 490.79 -15.88 490.99 -16.02 Q 491.19 -16.17 491.36 -16.29 Q 491.53 -16.42 491.76 -16.42 L 491.76 -16.42 Q 491.94 -16.42 492.15 -16.34 Q 492.35 -16.26 492.53 -16.08 Q 492.7 -15.89 492.82 -15.6 Q 492.94 -15.3 492.94 -14.88 L 492.94 -14.88 Q 492.94 -14.27 492.71 -13.83 Q 492.47 -13.4 492.1 -13.1 Q 491.73 -12.81 491.25 -12.66 Q 490.78 -12.52 490.31 -12.52 L 490.31 -12.52 Q 489.58 -12.52 489 -12.77 Q 488.42 -13.02 488.01 -13.46 Q 487.6 -13.9 487.39 -14.49 Q 487.18 -15.08 487.18 -15.74 Z M 505.22 -7.4 L 505.22 -7.4 Q 505.22 -8.78 505.57 -9.93 Q 505.91 -11.08 506.51 -12 Q 507.11 -12.93 507.91 -13.62 Q 508.7 -14.32 509.58 -14.78 Q 510.46 -15.24 511.37 -15.48 Q 512.29 -15.71 513.13 -15.71 L 513.13 -15.71 Q 514.25 -15.71 515.09 -15.47 Q 515.92 -15.23 516.47 -14.82 Q 517.02 -14.41 517.3 -13.87 Q 517.57 -13.34 517.57 -12.75 L 517.57 -12.75 Q 517.57 -12.03 517.16 -11.47 Q 516.75 -10.9 516.07 -10.47 L 516.07 -10.47 L 510.09 -6.95 Q 510.09 -6.46 510.24 -5.9 Q 510.38 -5.33 510.65 -4.75 Q 510.92 -4.18 511.33 -3.66 Q 511.73 -3.13 512.25 -2.72 Q 512.77 -2.32 513.41 -2.07 Q 514.04 -1.83 514.8 -1.83 L 514.8 -1.83 Q 515.33 -1.83 515.78 -1.95 Q 516.24 -2.07 516.63 -2.29 Q 517.02 -2.5 517.39 -2.78 Q 517.75 -3.06 518.11 -3.38 L 518.11 -3.38 L 518.49 -3.01 Q 518.15 -2.54 517.6 -1.98 Q 517.06 -1.42 516.28 -0.93 Q 515.51 -0.44 514.48 -0.11 Q 513.45 0.21 512.14 0.21 L 512.14 0.21 Q 510.82 0.21 509.57 -0.26 Q 508.32 -0.74 507.35 -1.7 Q 506.38 -2.65 505.8 -4.07 Q 505.22 -5.49 505.22 -7.4 Z M 509.94 -8.19 L 509.94 -8.19 L 513.13 -10.02 Q 513.33 -10.14 513.46 -10.26 Q 513.59 -10.37 513.66 -10.53 Q 513.74 -10.69 513.78 -10.92 Q 513.82 -11.16 513.82 -11.5 L 513.82 -11.5 Q 513.82 -11.88 513.73 -12.34 Q 513.65 -12.81 513.45 -13.21 Q 513.26 -13.62 512.95 -13.9 Q 512.65 -14.17 512.23 -14.17 L 512.23 -14.17 Q 511.68 -14.17 511.3 -13.84 Q 510.91 -13.52 510.66 -13 Q 510.41 -12.49 510.27 -11.83 Q 510.12 -11.17 510.05 -10.5 Q 509.97 -9.84 509.96 -9.23 Q 509.94 -8.61 509.94 -8.19 Z M 519.27 -7.28 L 519.27 -7.28 Q 519.27 -8.66 519.61 -9.82 Q 519.96 -10.97 520.56 -11.91 Q 521.16 -12.85 521.95 -13.56 Q 522.75 -14.27 523.62 -14.75 Q 524.5 -15.23 525.42 -15.47 Q 526.33 -15.71 527.18 -15.71 L 527.18 -15.71 Q 528.3 -15.71 529.13 -15.45 Q 529.97 -15.2 530.52 -14.77 Q 531.07 -14.35 531.34 -13.8 Q 531.62 -13.24 531.62 -12.65 L 531.62 -12.65 Q 531.62 -12.22 531.5 -11.81 Q 531.39 -11.41 531.17 -11.12 Q 530.95 -10.82 530.62 -10.65 Q 530.28 -10.47 529.85 -10.47 L 529.85 -10.47 Q 529.38 -10.47 529.06 -10.62 Q 528.74 -10.76 528.54 -11 Q 528.35 -11.25 528.26 -11.54 Q 528.17 -11.84 528.17 -12.15 L 528.17 -12.15 Q 528.17 -12.56 528.22 -12.94 Q 528.27 -13.32 528.23 -13.62 Q 528.2 -13.93 528 -14.11 Q 527.8 -14.29 527.3 -14.29 L 527.3 -14.29 Q 526.77 -14.29 526.18 -13.99 Q 525.59 -13.68 525.11 -13.03 Q 524.62 -12.38 524.31 -11.36 Q 523.99 -10.34 523.99 -8.9 L 523.99 -8.9 Q 523.99 -7.31 524.28 -6 Q 524.58 -4.69 525.17 -3.77 Q 525.76 -2.85 526.64 -2.34 Q 527.51 -1.83 528.7 -1.83 L 528.7 -1.83 Q 529.23 -1.83 529.7 -1.95 Q 530.18 -2.07 530.6 -2.29 Q 531.03 -2.5 531.41 -2.78 Q 531.8 -3.06 532.16 -3.38 L 532.16 -3.38 L 532.54 -3.01 Q 532.19 -2.54 531.65 -1.98 Q 531.1 -1.42 530.33 -0.93 Q 529.56 -0.44 528.53 -0.11 Q 527.5 0.21 526.18 0.21 L 526.18 0.21 Q 524.87 0.21 523.62 -0.3 Q 522.37 -0.8 521.4 -1.77 Q 520.43 -2.74 519.85 -4.12 Q 519.27 -5.51 519.27 -7.28 Z M 532.87 -21.65 L 532.57 -22.01 Q 532.92 -22.3 533.34 -22.58 Q 533.77 -22.86 534.27 -23.07 Q 534.78 -23.28 535.36 -23.42 Q 535.93 -23.55 536.57 -23.55 L 536.57 -23.55 Q 537.55 -23.55 538.1 -23.29 Q 538.64 -23.02 538.9 -22.64 Q 539.15 -22.25 539.21 -21.82 Q 539.26 -21.39 539.26 -21.06 L 539.26 -21.06 L 539.26 -12.84 Q 539.82 -13.64 540.53 -14.27 L 540.53 -14.27 Q 540.82 -14.55 541.18 -14.8 Q 541.53 -15.06 541.93 -15.27 Q 542.33 -15.47 542.78 -15.59 Q 543.23 -15.71 543.7 -15.71 L 543.7 -15.71 Q 544.71 -15.71 545.51 -15.32 Q 546.31 -14.92 546.86 -14 Q 547.4 -13.08 547.69 -11.56 Q 547.98 -10.04 547.98 -7.78 L 547.98 -7.78 Q 547.98 -5.59 547.59 -3.97 Q 547.19 -2.35 546.56 -1.21 Q 545.92 -0.08 545.12 0.64 Q 544.32 1.36 543.5 1.77 Q 542.68 2.18 541.92 2.34 Q 541.17 2.5 540.62 2.51 L 540.62 2.51 L 540.47 1.89 Q 541.15 1.73 541.68 1.27 Q 542.21 0.82 542.58 -0.22 Q 542.94 -1.26 543.13 -3.01 Q 543.32 -4.77 543.32 -7.54 L 543.32 -7.54 Q 543.32 -9.45 543.14 -10.59 Q 542.97 -11.73 542.69 -12.33 Q 542.41 -12.93 542.05 -13.12 Q 541.7 -13.31 541.33 -13.31 L 541.33 -13.31 Q 540.9 -13.31 540.56 -13.07 Q 540.23 -12.84 539.98 -12.53 Q 539.73 -12.23 539.56 -11.93 Q 539.38 -11.63 539.26 -11.47 L 539.26 -11.47 L 539.26 -1.36 Q 539.26 -1.17 539.2 -0.89 Q 539.14 -0.61 538.91 -0.36 Q 538.67 -0.11 538.21 0.07 Q 537.75 0.24 536.94 0.24 L 536.94 0.24 Q 536.14 0.24 535.67 0.05 Q 535.2 -0.14 534.97 -0.39 Q 534.73 -0.65 534.67 -0.92 Q 534.61 -1.2 534.61 -1.36 L 534.61 -1.36 L 534.61 -20.89 Q 534.61 -21.33 534.41 -21.65 Q 534.21 -21.98 533.72 -21.98 L 533.72 -21.98 Q 533.46 -21.98 533.27 -21.9 Q 533.08 -21.81 532.87 -21.65 L 532.87 -21.65 Z M 549.57 -13.79 L 549.25 -14.17 Q 549.6 -14.46 550.03 -14.74 Q 550.46 -15.02 550.96 -15.23 Q 551.46 -15.44 552.04 -15.58 Q 552.61 -15.71 553.25 -15.71 L 553.25 -15.71 Q 554.23 -15.71 554.78 -15.39 Q 555.32 -15.06 555.58 -14.61 Q 555.84 -14.15 555.89 -13.66 Q 555.94 -13.17 555.94 -12.84 L 555.94 -12.84 Q 556.5 -13.64 557.21 -14.27 L 557.21 -14.27 Q 557.5 -14.55 557.86 -14.8 Q 558.21 -15.06 558.61 -15.27 Q 559.01 -15.47 559.46 -15.59 Q 559.91 -15.71 560.38 -15.71 L 560.38 -15.71 Q 561.41 -15.71 562.2 -15.32 Q 563 -14.92 563.54 -14 Q 564.08 -13.08 564.37 -11.56 Q 564.66 -10.04 564.66 -7.78 L 564.66 -7.78 Q 564.66 -5.59 564.27 -3.97 Q 563.87 -2.35 563.24 -1.21 Q 562.6 -0.08 561.8 0.64 Q 561 1.36 560.18 1.77 Q 559.36 2.18 558.61 2.34 Q 557.86 2.5 557.32 2.51 L 557.32 2.51 L 557.15 1.89 Q 557.61 1.79 557.99 1.56 Q 558.38 1.33 558.7 0.89 Q 559.01 0.45 559.26 -0.22 Q 559.5 -0.89 559.67 -1.91 Q 559.85 -2.92 559.93 -4.31 Q 560.01 -5.69 560.01 -7.54 L 560.01 -7.54 Q 560.01 -9.45 559.84 -10.59 Q 559.67 -11.73 559.38 -12.33 Q 559.09 -12.93 558.74 -13.12 Q 558.39 -13.31 558.03 -13.31 L 558.03 -13.31 Q 557.59 -13.31 557.25 -13.07 Q 556.91 -12.84 556.66 -12.53 Q 556.41 -12.23 556.24 -11.93 Q 556.06 -11.63 555.94 -11.47 L 555.94 -11.47 L 555.94 -1.36 Q 555.94 -1.17 555.88 -0.89 Q 555.82 -0.61 555.59 -0.36 Q 555.35 -0.11 554.89 0.07 Q 554.43 0.24 553.63 0.24 L 553.63 0.24 Q 552.82 0.24 552.36 0.05 Q 551.9 -0.14 551.66 -0.39 Q 551.42 -0.65 551.35 -0.92 Q 551.29 -1.2 551.29 -1.36 L 551.29 -1.36 L 551.29 -13.05 Q 551.29 -13.49 551.09 -13.81 Q 550.89 -14.14 550.4 -14.14 L 550.4 -14.14 Q 550.14 -14.14 549.96 -14.05 Q 549.78 -13.96 549.57 -13.79 L 549.57 -13.79 Z M 566.82 -7.75 L 566.82 -7.75 Q 566.82 -9.73 567.4 -11.22 Q 567.98 -12.71 568.94 -13.71 Q 569.9 -14.71 571.17 -15.21 Q 572.44 -15.71 573.83 -15.71 L 573.83 -15.71 Q 575.23 -15.71 576.5 -15.25 Q 577.77 -14.79 578.73 -13.83 Q 579.69 -12.88 580.27 -11.42 Q 580.84 -9.96 580.84 -7.96 L 580.84 -7.96 Q 580.84 -5.98 580.27 -4.45 Q 579.69 -2.92 578.73 -1.88 Q 577.77 -0.83 576.5 -0.3 Q 575.23 0.24 573.83 0.24 L 573.83 0.24 Q 572.44 0.24 571.17 -0.26 Q 569.9 -0.77 568.94 -1.77 Q 567.98 -2.77 567.4 -4.27 Q 566.82 -5.77 566.82 -7.75 Z M 571.55 -7.75 L 571.55 -7.75 Q 571.55 -6.54 571.62 -5.38 Q 571.7 -4.22 571.94 -3.31 Q 572.18 -2.41 572.64 -1.85 Q 573.09 -1.3 573.83 -1.3 L 573.83 -1.3 Q 574.57 -1.3 575.03 -1.88 Q 575.48 -2.45 575.73 -3.39 Q 575.97 -4.33 576.05 -5.51 Q 576.13 -6.69 576.13 -7.9 L 576.13 -7.9 Q 576.13 -9.11 576.05 -10.24 Q 575.97 -11.37 575.73 -12.25 Q 575.48 -13.12 575.03 -13.65 Q 574.57 -14.17 573.83 -14.17 L 573.83 -14.17 Q 573.09 -14.17 572.64 -13.62 Q 572.18 -13.06 571.94 -12.16 Q 571.7 -11.26 571.62 -10.11 Q 571.55 -8.96 571.55 -7.75 Z M 581.96 -21.65 L 581.66 -22.01 Q 582.01 -22.3 582.43 -22.58 Q 582.85 -22.86 583.36 -23.07 Q 583.87 -23.28 584.44 -23.42 Q 585.02 -23.55 585.65 -23.55 L 585.65 -23.55 Q 586.64 -23.55 587.18 -23.29 Q 587.73 -23.02 587.99 -22.64 Q 588.24 -22.25 588.3 -21.82 Q 588.35 -21.39 588.35 -21.06 L 588.35 -21.06 L 588.35 -1.33 Q 588.35 -1.14 588.28 -0.86 Q 588.21 -0.59 587.96 -0.35 Q 587.71 -0.11 587.24 0.07 Q 586.76 0.24 585.96 0.24 L 585.96 0.24 Q 585.16 0.24 584.7 0.05 Q 584.25 -0.14 584.03 -0.39 Q 583.81 -0.65 583.76 -0.92 Q 583.7 -1.2 583.7 -1.36 L 583.7 -1.36 L 583.7 -20.89 Q 583.7 -21.33 583.5 -21.65 Q 583.29 -21.98 582.81 -21.98 L 582.81 -21.98 Q 582.55 -21.98 582.36 -21.9 Q 582.17 -21.81 581.96 -21.65 L 581.96 -21.65 Z M 591.19 -7.75 L 591.19 -7.75 Q 591.19 -9.73 591.77 -11.22 Q 592.35 -12.71 593.31 -13.71 Q 594.27 -14.71 595.54 -15.21 Q 596.81 -15.71 598.2 -15.71 L 598.2 -15.71 Q 599.6 -15.71 600.87 -15.25 Q 602.14 -14.79 603.1 -13.83 Q 604.06 -12.88 604.64 -11.42 Q 605.21 -9.96 605.21 -7.96 L 605.21 -7.96 Q 605.21 -5.98 604.64 -4.45 Q 604.06 -2.92 603.1 -1.88 Q 602.14 -0.83 600.87 -0.3 Q 599.6 0.24 598.2 0.24 L 598.2 0.24 Q 596.81 0.24 595.54 -0.26 Q 594.27 -0.77 593.31 -1.77 Q 592.35 -2.77 591.77 -4.27 Q 591.19 -5.77 591.19 -7.75 Z M 595.92 -7.75 L 595.92 -7.75 Q 595.92 -6.54 595.99 -5.38 Q 596.07 -4.22 596.31 -3.31 Q 596.55 -2.41 597.01 -1.85 Q 597.46 -1.3 598.2 -1.3 L 598.2 -1.3 Q 598.94 -1.3 599.4 -1.88 Q 599.85 -2.45 600.1 -3.39 Q 600.34 -4.33 600.42 -5.51 Q 600.5 -6.69 600.5 -7.9 L 600.5 -7.9 Q 600.5 -9.11 600.42 -10.24 Q 600.34 -11.37 600.1 -12.25 Q 599.85 -13.12 599.4 -13.65 Q 598.94 -14.17 598.2 -14.17 L 598.2 -14.17 Q 597.46 -14.17 597.01 -13.62 Q 596.55 -13.06 596.31 -12.16 Q 596.07 -11.26 595.99 -10.11 Q 595.92 -8.96 595.92 -7.75 Z M 607.07 4.62 L 607.07 4.62 Q 607.07 4.09 607.32 3.64 Q 607.56 3.19 607.96 2.82 Q 608.36 2.45 608.86 2.16 Q 609.36 1.86 609.87 1.6 L 609.87 1.6 Q 609.12 1.29 608.61 0.64 Q 608.1 0 608.1 -1.06 L 608.1 -1.06 Q 608.1 -1.62 608.3 -2.1 Q 608.5 -2.57 608.81 -2.97 Q 609.12 -3.38 609.49 -3.7 Q 609.86 -4.03 610.21 -4.25 L 610.21 -4.25 Q 609.59 -4.62 609.06 -5.14 Q 608.54 -5.66 608.17 -6.32 Q 607.8 -6.98 607.6 -7.78 Q 607.39 -8.58 607.39 -9.52 L 607.39 -9.52 Q 607.39 -11.06 607.93 -12.22 Q 608.47 -13.38 609.37 -14.16 Q 610.28 -14.94 611.48 -15.33 Q 612.67 -15.71 613.99 -15.71 L 613.99 -15.71 Q 615.31 -15.71 616.49 -15.36 Q 617.67 -15.02 618.58 -14.29 L 618.58 -14.29 Q 618.86 -14.73 619.05 -15.21 Q 619.23 -15.7 619.23 -16.18 L 619.23 -16.18 Q 619.23 -16.82 618.89 -17.2 Q 618.55 -17.57 618.02 -17.57 L 618.02 -17.57 L 618.02 -18.01 Q 618.35 -18.12 618.61 -18.2 Q 618.86 -18.29 619.08 -18.33 Q 619.29 -18.38 619.5 -18.4 Q 619.71 -18.42 619.97 -18.42 L 619.97 -18.42 Q 620.68 -18.42 621.06 -17.98 Q 621.44 -17.54 621.44 -16.77 L 621.44 -16.77 Q 621.44 -16.32 621.23 -15.87 Q 621.01 -15.42 620.7 -15.02 Q 620.38 -14.61 619.99 -14.24 Q 619.61 -13.88 619.26 -13.61 L 619.26 -13.61 Q 619.89 -12.88 620.24 -11.91 Q 620.59 -10.94 620.59 -9.7 L 620.59 -9.7 Q 620.59 -8.14 620.05 -6.95 Q 619.52 -5.75 618.61 -4.93 Q 617.7 -4.12 616.5 -3.7 Q 615.31 -3.28 613.99 -3.28 L 613.99 -3.28 Q 613.22 -3.28 612.48 -3.42 Q 611.74 -3.56 611.08 -3.81 L 611.08 -3.81 Q 610.84 -3.63 610.67 -3.36 Q 610.49 -3.09 610.49 -2.75 L 610.49 -2.75 Q 610.49 -2.19 610.98 -1.92 Q 611.46 -1.65 612.27 -1.53 Q 613.07 -1.41 614.08 -1.38 Q 615.1 -1.35 616.16 -1.28 Q 617.23 -1.21 618.24 -1.02 Q 619.26 -0.83 620.06 -0.4 Q 620.86 0.03 621.35 0.77 Q 621.83 1.51 621.83 2.69 L 621.83 2.69 Q 621.83 3.56 621.47 4.25 Q 621.1 4.93 620.49 5.46 Q 619.88 5.98 619.07 6.35 Q 618.26 6.72 617.36 6.96 Q 616.46 7.19 615.53 7.3 Q 614.6 7.4 613.75 7.4 L 613.75 7.4 Q 612.2 7.4 610.97 7.24 Q 609.74 7.08 608.87 6.75 Q 608.01 6.42 607.54 5.89 Q 607.07 5.36 607.07 4.62 Z M 609.5 4.28 L 609.5 4.28 Q 609.5 4.86 609.83 5.24 Q 610.16 5.63 610.73 5.86 Q 611.3 6.08 612.05 6.18 Q 612.79 6.27 613.63 6.27 L 613.63 6.27 Q 614.73 6.27 615.61 6.08 Q 616.49 5.89 617.09 5.56 Q 617.7 5.24 618.02 4.81 Q 618.33 4.39 618.33 3.91 L 618.33 3.91 Q 618.33 3.42 617.96 3.11 Q 617.58 2.8 616.97 2.61 Q 616.35 2.42 615.57 2.32 Q 614.79 2.23 613.99 2.17 Q 613.19 2.12 612.43 2.07 Q 611.67 2.03 611.11 1.95 L 611.11 1.95 Q 610.8 2.18 610.5 2.44 Q 610.21 2.71 609.99 3 Q 609.77 3.3 609.63 3.63 Q 609.5 3.95 609.5 4.28 Z M 611.95 -9.52 L 611.95 -9.52 Q 611.95 -8.63 612.04 -7.77 Q 612.13 -6.9 612.36 -6.22 Q 612.58 -5.54 612.98 -5.12 Q 613.37 -4.71 613.99 -4.71 L 613.99 -4.71 Q 614.61 -4.71 615 -5.15 Q 615.4 -5.59 615.63 -6.29 Q 615.85 -6.99 615.94 -7.87 Q 616.03 -8.75 616.03 -9.64 L 616.03 -9.64 Q 616.03 -10.52 615.94 -11.35 Q 615.85 -12.19 615.63 -12.84 Q 615.4 -13.49 615 -13.89 Q 614.61 -14.29 613.99 -14.29 L 613.99 -14.29 Q 613.37 -14.29 612.98 -13.87 Q 612.58 -13.46 612.36 -12.78 Q 612.13 -12.11 612.04 -11.25 Q 611.95 -10.4 611.95 -9.52 Z M 619.35 5.36 L 619.35 5.36 Q 619.35 5.07 619.44 4.8 Q 619.53 4.53 619.68 4.31 Q 619.83 4.1 620.05 3.97 Q 620.26 3.84 620.5 3.84 L 620.5 3.84 Q 620.79 3.84 620.98 4.13 Q 621.17 4.42 621.38 4.76 Q 621.59 5.1 621.89 5.39 Q 622.19 5.68 622.72 5.68 L 622.72 5.68 Q 623.41 5.68 624.15 5.44 Q 624.89 5.21 625.64 4.77 Q 626.39 4.33 627.14 3.7 Q 627.89 3.07 628.61 2.3 L 628.61 2.3 Q 628.19 0.77 627.64 -1.04 Q 627.08 -2.85 626.47 -4.68 Q 625.86 -6.51 625.21 -8.21 Q 624.57 -9.91 623.96 -11.23 Q 623.35 -12.55 622.78 -13.34 Q 622.21 -14.14 621.77 -14.14 L 621.77 -14.14 Q 621.48 -14.14 621.32 -14.05 Q 621.17 -13.96 620.95 -13.79 L 620.95 -13.79 L 620.65 -14.17 Q 620.95 -14.43 621.29 -14.7 Q 621.62 -14.97 622.07 -15.2 Q 622.53 -15.42 623.13 -15.57 Q 623.74 -15.71 624.59 -15.71 L 624.59 -15.71 Q 625.51 -15.71 626.3 -15.3 Q 627.1 -14.88 627.75 -13.76 L 627.75 -13.76 Q 628.22 -12.93 628.73 -11.76 Q 629.23 -10.6 629.75 -9.16 Q 630.26 -7.72 630.78 -6.05 Q 631.31 -4.37 631.84 -2.54 L 631.84 -2.54 Q 632.78 -4.51 633.35 -6.71 Q 633.93 -8.92 633.93 -11.25 L 633.93 -11.25 Q 633.93 -12.08 633.82 -12.67 Q 633.71 -13.26 633.58 -13.68 Q 633.44 -14.09 633.34 -14.39 Q 633.23 -14.68 633.23 -14.91 L 633.23 -14.91 Q 633.23 -15.14 633.41 -15.3 Q 633.59 -15.45 633.85 -15.55 Q 634.11 -15.64 634.37 -15.67 Q 634.64 -15.71 634.82 -15.71 L 634.82 -15.71 Q 635.23 -15.71 635.45 -15.55 Q 635.67 -15.38 635.77 -15.07 Q 635.88 -14.76 635.89 -14.32 Q 635.91 -13.88 635.91 -13.34 L 635.91 -13.34 Q 635.91 -10.57 635.37 -7.98 Q 634.83 -5.4 633.89 -3.14 Q 632.94 -0.88 631.64 0.99 Q 630.34 2.86 628.81 4.19 Q 627.28 5.52 625.58 6.27 Q 623.88 7.01 622.13 7.01 L 622.13 7.01 Q 620.8 7.01 620.08 6.56 Q 619.35 6.12 619.35 5.36 Z" stroke-linecap="round" />
</g>
</g>
</g>
</svg>