<svg xmlns="http://www.w3.org/2000/svg" viewBox="0 0 30.27 30.12"><defs><style>.cls-1{fill:#fff;}</style></defs><title>Asset 1</title><g id="Layer_2" data-name="Layer 2"><g id="Layer_1-2" data-name="Layer 1"><path class="cls-1" d="M17,30.12H10.75V10h6v2.64l.08,0,.18-.27a6.33,6.33,0,0,1,4.28-2.78,9.37,9.37,0,0,1,4.37.23,5.72,5.72,0,0,1,4.07,4.26,13,13,0,0,1,.5,3.39l.06,12.3c0,.09,0,.18,0,.29H24v-.45c0-3.44,0-6.89,0-10.33a9.4,9.4,0,0,0-.34-2.3,2.67,2.67,0,0,0-2.76-2,3.89,3.89,0,0,0-2.33.58A3.51,3.51,0,0,0,17.16,18,11.73,11.73,0,0,0,17,19.91c0,3.25,0,6.5,0,9.74Z"/><path class="cls-1" d="M6.78,30.12H.54V10H6.78Z"/><path class="cls-1" d="M0,3.63A3.65,3.65,0,1,1,3.54,7.27,3.64,3.64,0,0,1,0,3.63Z"/></g></g></svg>