<?xml version="1.0" encoding="utf-8"?>
<!-- Generator: Adobe Illustrator 24.0.1, SVG Export Plug-In . SVG Version: 6.00 Build 0)  -->
<svg version="1.1" id="Layer_1" xmlns="http://www.w3.org/2000/svg" xmlns:xlink="http://www.w3.org/1999/xlink" x="0px" y="0px"
	 viewBox="0 0 283.7 271.6" style="enable-background:new 0 0 283.7 271.6;" xml:space="preserve">
<style type="text/css">
	.st0{fill:#0199C7;}
</style>
<g id="Layer_1_1_">
	<path class="st0" d="M38.7,84.8l3.3,35.1c-6.5,2.7-9.5,10.1-6.9,16.6c1.9,4.7,6.5,7.8,11.6,7.8c2,0,3.9-0.5,5.7-1.4l28.4,17.7
		c1.2,5.8,6.3,10,12.2,10c4.3,0,8.3-2.3,10.5-6l44.9-7.3c3.6,5.7,11.1,7.5,16.9,3.9c0.3-0.2,0.5-0.4,0.8-0.6l22.5,8.8l34.7,29
		c0.8,0.7,1.8,1,2.8,1c0.9,0,1.7-0.3,2.4-0.8c1.6-1.2,2.2-3.2,1.6-5.1L216.7,156l5.7-10.8c6.8,1.5,13.6-2.8,15-9.7
		c0.9-4.1-0.3-8.4-3.2-11.4l4.7-18.6c6.7-2,10.5-9.1,8.5-15.8c-1.6-5.2-6.3-8.8-11.7-9h-0.9l-8.3-16.4c1.8-2.3,2.8-5.1,2.8-8
		c0-6.9-5.6-12.6-12.5-12.6c0,0,0,0,0,0c-2.7,0-5.4,0.9-7.5,2.6L155.3,12c-0.2-6.9-5.9-12.2-12.8-12C137.1,0.2,132.5,3.8,131,9
		l-34.1,6.8c-2.3-3.2-6-5.2-10-5.2c-6.9,0.1-12.5,5.7-12.5,12.7c0,1.8,0.4,3.6,1.2,5.3L45.2,60.3c-6.9-1.2-13.4,3.5-14.6,10.4
		c-1,6.1,2.5,12,8.3,14.1L38.7,84.8z M86.9,35.8h0.5l17.7,45.8c-2.3,1.3-4.2,3.2-5.4,5.6L55.3,72.5c-0.1-2.7-1-5.3-2.6-7.4l29-30.4
		C83.4,35.4,85.1,35.8,86.9,35.8z M204.9,59.1l-24.3,12.3c-2.3-2.4-5.5-3.8-8.9-3.8h-0.3l-18.9-46.6l0.2-0.2l52.2,32.9
		c-0.2,0.9-0.3,1.7-0.3,2.6c0,1,0,1.9,0.2,2.8H204.9z M224.9,99.2c1.3,2.3,3.2,4.2,5.6,5.3l-4.2,15.7h-1c-1.5,0-3.1,0.3-4.5,0.9
		l-28.4-29.3L224.9,99.2z M214.6,126.9c-0.9,1.7-1.4,3.5-1.4,5.4L170,144.8c-1-2.1-2.6-3.9-4.5-5.2l9.8-47.3c1.4-0.4,2.7-1.1,3.8-2
		L214.6,126.9z M146.5,148.7l-41.4,6.7c-0.6-3-2.3-5.7-4.7-7.6l11.2-42.3c1.1-0.1,2.2-0.3,3.2-0.6l36.2,35.6
		C148.4,142.5,146.8,145.4,146.5,148.7L146.5,148.7z M82.2,151.2l-24.1-15c0.6-1.5,0.9-3.1,0.9-4.7c0-5.4-3.4-10.2-8.4-12l-3.2-35.1
		c1.9-0.8,3.6-2.1,5-3.7l46.4,15.4c0.7,2.7,2.3,5,4.5,6.7L92,145.2C87.9,145.5,84.3,147.8,82.2,151.2z M162.8,89.2
		c1.1,1.1,2.3,1.9,3.7,2.6l-8.9,43l-36.1-35.5c0.2-0.3,0.4-0.7,0.6-1.1L162.8,89.2z M170.3,76.9c0.3-0.1,0.6-0.3,0.9-0.5h0.3
		c2.1,0,3.9,1.7,3.9,3.8c0,2.1-1.7,3.9-3.8,3.9c-2.1,0-3.9-1.7-3.9-3.8c0,0,0,0,0-0.1c0-1.2,0.5-2.3,1.4-3
		C169.6,77.1,170,77,170.3,76.9L170.3,76.9z M110.8,96.7c-2.1,0-3.9-1.7-3.9-3.8c0-2.1,1.7-3.9,3.8-3.9c2.1,0,3.9,1.7,3.9,3.8
		c0,0,0,0,0,0.1C114.6,94.9,112.9,96.7,110.8,96.7C110.8,96.7,110.8,96.7,110.8,96.7L110.8,96.7z M163.2,70.7
		c-2.6,2.4-4.1,5.9-4.1,9.5c0,0.3,0,0.5,0,0.8L122.6,89c-1-3.1-3-5.7-5.8-7.3l26.9-56.4c0.4,0,0.8-0.1,1.2-0.1L163.2,70.7z
		 M135.2,22.7l-24,50.9L95.3,32.4c2.3-2.1,3.7-5,3.9-8.2l32.3-6.4C132.3,19.7,133.6,21.4,135.2,22.7z M42.8,131.6
		c0-2.1,1.7-3.9,3.8-3.9l0,0c2.1,0,3.8,1.8,3.8,4c0,0.9-0.3,1.8-0.9,2.5c-0.2,0.2-0.4,0.4-0.6,0.6c-0.7,0.5-1.5,0.8-2.4,0.8
		C44.4,135.4,42.8,133.7,42.8,131.6L42.8,131.6z M92.8,161.8c-2.1,0-3.9-1.7-3.9-3.8c0-2.1,1.7-3.9,3.8-3.9s3.9,1.7,3.9,3.8
		c0,0,0,0,0,0.1C96.6,160,94.9,161.7,92.8,161.8L92.8,161.8z M154.9,150.3c0-2.1,1.8-3.8,3.9-3.7c2.1,0,3.8,1.8,3.7,3.9
		c0,2.1-1.7,3.7-3.8,3.7C156.6,154.1,154.9,152.4,154.9,150.3z M193.5,162.1c-0.4-0.3-0.8-0.5-1.2-0.7l-20.4-7.9l43-12.4l-6.7,12.6
		c-0.6,1.1-0.7,2.4-0.3,3.6l8.6,24.2L193.5,162.1z M225.5,136.8c-2.1,0-3.9-1.7-3.9-3.8c0-2.1,1.7-3.9,3.8-3.9s3.9,1.7,3.9,3.8
		c0,0,0,0,0,0.1C229.3,135,227.6,136.7,225.5,136.8C225.5,136.8,225.5,136.8,225.5,136.8L225.5,136.8z M239.6,93.3
		c0,2.1-1.8,3.8-3.9,3.7c-2.1,0-3.8-1.8-3.7-3.9c0-2.1,1.7-3.7,3.8-3.7C237.9,89.5,239.5,91.2,239.6,93.3L239.6,93.3z M223.8,90.1
		l-39.7-9.5c0-0.2,0-0.4,0-0.5s0-0.5,0-0.8l25.6-12.9c2.1,1.6,4.7,2.4,7.3,2.4c0.7,0,1.5-0.1,2.2-0.2l7.8,15.6
		C225.4,85.7,224.3,87.8,223.8,90.1L223.8,90.1z M216.9,52.4c2.1,0,3.9,1.7,3.9,3.8c0,2.1-1.7,3.9-3.8,3.9c-2.1,0-3.9-1.7-3.9-3.8
		c0,0,0-0.1,0-0.1C213.1,54.1,214.8,52.4,216.9,52.4C216.9,52.4,216.9,52.4,216.9,52.4z M142.9,8.8c2.1,0,3.8,1.8,3.8,3.9
		c0,0,0,0,0,0c0,1.2-0.6,2.4-1.6,3.1l-0.5,0.3c-0.5,0.3-1.1,0.5-1.7,0.5c-2.1,0-3.9-1.7-3.9-3.9C139,10.6,140.7,8.8,142.9,8.8
		L142.9,8.8z M86.9,19.3c2.1,0,3.9,1.7,3.9,3.8c0,2.1-1.7,3.9-3.8,3.9c-2.1,0-3.9-1.7-3.9-3.8c0,0,0,0,0-0.1
		C83.1,21,84.8,19.3,86.9,19.3z M42.8,68.9c2.1,0,3.9,1.7,3.9,3.8c0,2.1-1.7,3.9-3.8,3.9c-2.1,0-3.9-1.7-3.9-3.8c0,0,0,0,0-0.1
		c0-2.1,1.6-3.8,3.7-3.9L42.8,68.9z"/>
	<path class="st0" d="M174.8,237c-0.8-0.8-1.9-1.2-3-1.2h-67.7c-1.1,0-2.2,0.4-3,1.2l-27.7,27.1c-1.2,1.2-1.6,3.1-1,4.7
		c0.6,1.7,2.2,2.8,4,2.8h123.1c1.8,0,3.4-1.1,4-2.8c0.6-1.6,0.2-3.5-1-4.7L174.8,237z M87.2,263l18.7-18.4H170l18.7,18.3L87.2,263z"
		/>
	<path class="st0" d="M71.7,246.5l-2.9-4.2c-1.3-2-4-2.5-5.9-1.1c0,0-0.1,0-0.1,0.1c-1.9,1.4-2.4,4.1-1.1,6.1l2.9,4.2
		c0.8,1.2,2.1,1.9,3.5,1.9c0.9,0,1.8-0.3,2.5-0.8C72.6,251.2,73.1,248.5,71.7,246.5z"/>
	<path class="st0" d="M18.4,168.8c-1.3-2-4-2.5-5.9-1.1c0,0,0,0-0.1,0c-2,1.4-2.4,4.1-1.1,6.1L51.9,233c0.8,1.2,2.1,1.9,3.5,1.9
		c0.9,0,1.7-0.3,2.4-0.8c2-1.4,2.4-4.1,1.1-6.1L18.4,168.8z"/>
	<path class="st0" d="M10.7,157.6L8.9,155c-1.3-2-4-2.5-5.9-1.1c0,0-0.1,0-0.1,0.1C1,155.3,0.5,158,1.8,160l1.8,2.7
		c0.8,1.2,2.1,1.9,3.5,1.9c0.9,0,1.7-0.3,2.4-0.8C11.5,162.4,12,159.6,10.7,157.6z"/>
	<path class="st0" d="M279.2,159.6c-1.9-1.4-4.6-1-6,0.8c0,0,0,0.1-0.1,0.1l-1.8,2.6c-1.4,2-1,4.7,0.9,6.1c0.7,0.6,1.6,0.9,2.6,0.9
		c1.4,0,2.7-0.7,3.5-1.8l1.9-2.6C281.5,163.8,281.1,161,279.2,159.6z"/>
	<path class="st0" d="M265.7,177.9c-1.9-1.4-4.6-1-6,0.9c0,0,0,0,0,0l-55.9,76.5c-1.4,1.9-1,4.7,0.9,6.1c0.7,0.6,1.6,0.9,2.6,0.9
		c1.4,0,2.7-0.7,3.5-1.8l55.8-76.4C268,182.2,267.6,179.4,265.7,177.9z"/>
	<path class="st0" d="M85,231.1c0.7,1.4,2.2,2.3,3.8,2.4c0.7,0,1.4-0.2,2-0.5c2.1-1.2,2.9-3.8,1.8-6l-1-2c-1.1-2.1-3.7-2.9-5.8-1.9
		c0,0-0.1,0-0.1,0.1c-2.1,1.2-2.9,3.8-1.8,6L85,231.1z"/>
	<path class="st0" d="M73.2,190.1c-1.1-2.1-3.7-2.9-5.8-1.9c0,0-0.1,0-0.1,0c-2.1,1.2-2.9,3.8-1.8,6l11.1,21.1
		c0.7,1.4,2.2,2.3,3.8,2.4c0.7,0,1.4-0.2,2-0.5c2.1-1.2,2.9-3.8,1.8-6L73.2,190.1z"/>
	<path class="st0" d="M195.2,199l-14.7,28.4c-1.2,2.1-0.4,4.7,1.7,5.9c0.7,0.4,1.4,0.5,2.1,0.5c1.6,0,3.1-0.9,3.8-2.4l14.7-28.3
		c1.1-2.1,0.3-4.8-1.8-6C198.8,196.1,196.3,196.9,195.2,199z"/>
</g>
</svg>
