<?xml version="1.0" encoding="utf-8"?>
<!-- Generator: Adobe Illustrator 24.0.1, SVG Export Plug-In . SVG Version: 6.00 Build 0)  -->
<svg version="1.1" id="Layer_1" xmlns="http://www.w3.org/2000/svg" xmlns:xlink="http://www.w3.org/1999/xlink" x="0px" y="0px"
	 viewBox="0 0 283.7 271.6" style="enable-background:new 0 0 283.7 271.6;" xml:space="preserve">
<style type="text/css">
	.st0{fill:#0199C7;}
</style>
<g id="Layer_1_1_">
	<path class="st0" d="M105.3,97.8l-7.6,44.6c-0.4,2.4,1.3,4.6,3.7,5c0.9,0.1,1.9,0,2.7-0.4l40.1-21l40.1,21.1
		c0.6,0.3,1.3,0.5,2.1,0.5c2.4,0,4.4-2,4.4-4.4c0-0.2,0-0.5-0.1-0.7l-7.7-44.6l32.5-31.6c1.2-1.2,1.7-3,1.1-4.6
		c-0.5-1.6-1.9-2.8-3.6-3l-44.8-6.5l-20-40.6c-0.7-1.5-2.3-2.4-3.9-2.4c-1.8-0.1-3.4,0.9-4.1,2.5l-20,40.6l-44.8,6.5
		c-2.4,0.4-4.1,2.6-3.7,5.1c0.1,0.9,0.6,1.8,1.2,2.4L105.3,97.8z M123.7,60.6c1.4-0.2,2.6-1,3.3-2.3l17.1-34.7l17.1,34.7
		c0.7,1.3,1.9,2.1,3.3,2.3l38.2,5.6l-27.7,27c-1,1-1.5,2.5-1.3,3.9l6.5,38.1l-34.2-18c-0.6-0.3-1.3-0.5-2-0.5
		c-0.7,0-1.4,0.2-2.1,0.5l-34.2,18l6.5-38.1c0.2-1.4-0.2-2.9-1.3-3.9l-27.7-27L123.7,60.6z"/>
	<path class="st0" d="M282.4,185.4c-3.7-7.8-13-11.1-20.8-7.4c-0.2,0.1-0.3,0.2-0.5,0.3L203,208.6l-0.6,0.1h-0.2c-0.3,0-0.5,0-0.8,0
		l-66.6-6.5c-1.8-0.1-3.2-1.7-3.1-3.5c0.1-1.8,1.7-3.2,3.5-3.1c0.1,0,0.2,0,0.3,0l23,2.4l20.8,2.1c9.8,1,18.6-6.2,19.6-16
		c0-0.2,0-0.4,0.1-0.6c0.1-2.5-0.3-5.1-1.2-7.5l13.7-6.6c1.8-0.9,4-0.5,5.4,1.1c1.7,1.7,4.5,1.7,6.2,0c1.6-1.6,1.7-4.1,0.3-5.8
		c-4-4.5-10.4-5.7-15.8-3.1l-15.1,7.3c-2.8-2.4-6.3-3.9-9.9-4.2l-56-5.7c-2-0.2-3.9,0-5.8,0.4c-9.9,1.3-30.6,13.4-52.8,26.7
		c-3.6,2.1-6.8,4.1-9.3,5.5l-50.8-18c-2.3-0.8-4.8,0.4-5.6,2.7c-0.8,2.3,0.4,4.8,2.7,5.6l52.8,18.6c1.2,0.4,2.5,0.3,3.6-0.3
		c2.7-1.6,6.6-3.9,11.2-6.6c14.3-8.6,40.9-24.5,49.6-25.5l0.6-0.1c1-0.3,2.1-0.3,3.1-0.2l56,5.7c4.9,0.4,8.6,4.7,8.4,9.6
		c-0.2,2.4-1.3,4.7-3.2,6.3c-1.9,1.6-4.4,2.4-6.8,2.1l-20.8-2.1l-23-2.4c-6.7-0.7-12.6,4.2-13.3,10.8c-0.7,6.6,4.1,12.6,10.8,13.3
		c0,0,0,0,0.1,0l66.6,6.5c0.9,0.1,1.8,0.1,2.6,0c1.3-0.1,2.5-0.5,3.7-1h0.2l58.2-30.6c3.4-1.7,7.5-0.4,9.2,3c0,0.1,0.1,0.1,0.1,0.2
		c1.5,3.4,0.1,7.5-3.3,9.1l-0.3,0.2L212,236.1c-1.6,0.9-3.4,1.5-5.2,1.7c-12.7,1.8-64.6,11.4-86.3,15.5c-4.4,0.8-9,0.8-13.4,0
		L7.2,228.3c-2.3-0.7-4.8,0.6-5.5,2.9c-0.7,2.3,0.6,4.8,2.9,5.5c0.2,0,0.3,0.1,0.5,0.1l99.9,24.8h0.3c5.5,1,11.2,1,16.8,0
		c21.7-4.1,73.4-13.7,85.9-15.4c2.9-0.4,5.8-1.4,8.4-2.8l0.2-0.1l58.8-37.4C282.7,201.9,285.8,193,282.4,185.4z"/>
	<path class="st0" d="M235.2,170.7l-29.7,14.4c-2.2,1.1-3.1,3.7-2,5.9c0.7,1.5,2.3,2.4,3.9,2.5c0.7,0,1.3-0.2,1.9-0.5l29.7-14.4
		c1.8-0.9,4-0.5,5.4,1.1c1.7,1.7,4.5,1.7,6.2,0c1.6-1.6,1.7-4.1,0.3-5.8C247.1,169.4,240.6,168.1,235.2,170.7z"/>
</g>
</svg>
