<?xml version="1.0" encoding="utf-8"?>
<!-- Generator: Adobe Illustrator 24.0.1, SVG Export Plug-In . SVG Version: 6.00 Build 0)  -->
<svg version="1.1" id="Layer_1" xmlns="http://www.w3.org/2000/svg" xmlns:xlink="http://www.w3.org/1999/xlink" x="0px" y="0px"
	 viewBox="0 0 283.7 271.6" style="enable-background:new 0 0 283.7 271.6;" xml:space="preserve">
<style type="text/css">
	.st0{fill:#0199C7;}
</style>
<g id="Layer_1_1_">
	<path class="st0" d="M42.2,201c12.6,0,22.7-10.1,22.7-22.7c0-12.6-10.1-22.7-22.7-22.7s-22.7,10.1-22.7,22.7
		C19.5,190.8,29.6,201,42.2,201z M42.2,164.2c7.7,0,14.1,6.2,14.1,14.1c0,7.7-6.2,14.1-14.1,14.1s-14.1-6.2-14.1-14.1l0,0
		C28.2,170.6,34.6,164.2,42.2,164.2z"/>
	<path class="st0" d="M42.3,204.6c-18.6,0-33.7,15.1-33.8,33.8v15.4c0,2.4,2,4.4,4.4,4.4s4.4-2,4.4-4.4v-15.4
		c-0.4-13.7,10.3-25.2,24.1-25.7c13.7-0.4,25.2,10.3,25.7,24.1c0,0.5,0,1.1,0,1.6v15.4c0.2,2.5,2.3,4.3,4.8,4.1
		c2.2-0.2,3.9-1.9,4.1-4.1v-15.4C76,219.7,60.9,204.6,42.3,204.6z"/>
	<path class="st0" d="M42.6,216.1c-2.4,0-4.4,2-4.4,4.4l0,0v1.2c0,2.4,2,4.4,4.4,4.4s4.4-2,4.4-4.4v-1.2
		C47,218.1,45.1,216.1,42.6,216.1L42.6,216.1z"/>
	<path class="st0" d="M42.6,227.9c-2.4,0-4.4,2-4.4,4.4l0,0V253c0,2.4,2,4.4,4.4,4.4s4.4-2,4.4-4.4v-20.7
		C47,229.9,45.1,227.9,42.6,227.9L42.6,227.9z"/>
	<path class="st0" d="M218.6,178.6c0,12.7,10.3,23.1,23.1,23.1s23.1-10.3,23.1-23.1c0-12.7-10.3-23.1-23.1-23.1
		C229,155.6,218.6,165.9,218.6,178.6z M255.9,178.6c0,7.8-6.4,14.2-14.2,14.2s-14.2-6.4-14.2-14.2s6.4-14.2,14.2-14.2l0,0
		C249.5,164.4,255.9,170.8,255.9,178.6L255.9,178.6z"/>
	<path class="st0" d="M241.7,204.6c-18.6,0.1-33.6,15.2-33.7,33.8v15.4c0,2.4,2,4.4,4.4,4.4s4.4-2,4.4-4.4v-15.4
		c-0.4-13.7,10.3-25.2,24.1-25.7c13.7-0.4,25.2,10.3,25.7,24.1c0,0.5,0,1.1,0,1.6v15.4c0.2,2.5,2.3,4.3,4.8,4.1
		c2.2-0.2,3.9-1.9,4.1-4.1v-15.4C275.5,219.7,260.4,204.6,241.7,204.6L241.7,204.6z"/>
	<path class="st0" d="M240.8,216.1c-2.5,0-4.4,2-4.5,4.4v1.2c0.2,2.5,2.3,4.3,4.8,4.1c2.2-0.2,3.9-1.9,4.1-4.1v-1.2
		C245.2,218.1,243.2,216.1,240.8,216.1L240.8,216.1z"/>
	<path class="st0" d="M240.8,227.9c-2.5,0-4.4,2-4.5,4.4V253c0.2,2.5,2.3,4.3,4.8,4.1c2.2-0.2,3.9-1.9,4.1-4.1v-20.7
		C245.2,229.9,243.2,228,240.8,227.9z"/>
	<path class="st0" d="M142.9,46.1c12.7,0,23.1-10.3,23.1-23S155.7,0,143,0s-23.1,10.3-23.1,23l0,0C119.9,35.8,130.2,46.1,142.9,46.1
		z M142.9,8.9c7.8,0,14.2,6.3,14.2,14.2c0,7.8-6.3,14.2-14.2,14.2s-14.2-6.3-14.2-14.2c0,0,0,0,0-0.1
		C128.8,15.3,135.1,8.9,142.9,8.9L142.9,8.9z"/>
	<path class="st0" d="M113.5,102.7c2.4,0,4.4-2,4.4-4.4V82.8c-0.4-13.7,10.3-25.2,24.1-25.7c13.7-0.4,25.2,10.3,25.7,24.1
		c0,0.5,0,1.1,0,1.6v15.4c0,2.4,2,4.4,4.4,4.4s4.4-2,4.4-4.4V82.8c0-18.7-15.1-33.8-33.8-33.8S109,64.1,109,82.8l0,0v15.4
		C109,100.7,111,102.7,113.5,102.7L113.5,102.7z"/>
	<path class="st0" d="M147,64.4c0-2.4-2-4.4-4.4-4.4s-4.4,2-4.4,4.4l0,0v3c0,2.4,2,4.4,4.4,4.4s4.4-2,4.4-4.4l0,0V64.4z"/>
	<path class="st0" d="M142.6,72.3c-2.5,0-4.4,2-4.4,4.5v21.3c0,2.4,2,4.4,4.4,4.4s4.4-2,4.4-4.4l0,0V76.8
		C147,74.4,145,72.4,142.6,72.3z"/>
	<path class="st0" d="M184,58.4c34,14.4,58.1,45.3,63.7,81.8c0.3,2.2,2.2,3.8,4.4,3.8h0.7c2.4-0.4,4-2.6,3.7-5
		c-6.1-39.5-32.2-73.1-69.1-88.7c-2.3-1-4.9,0.1-5.8,2.4c-1,2.3,0.1,4.9,2.4,5.8L184,58.4L184,58.4z"/>
	<path class="st0" d="M32.3,144.5H33c2.2,0,4.1-1.6,4.4-3.8c5.3-35.8,28.5-66.5,61.5-81.4c2.2-1,3.2-3.6,2.2-5.9
		c-1-2.2-3.6-3.2-5.9-2.2c-35.8,16.1-60.9,49.3-66.7,88.2C28.2,141.8,29.9,144.1,32.3,144.5L32.3,144.5z"/>
	<path class="st0" d="M187.2,253c-28.6,13.2-61.5,13-90-0.4c-2.2-1-4.9-0.1-5.9,2.1s-0.1,4.9,2.1,5.9c30.9,14.5,66.5,14.7,97.5,0.4
		c2.3-0.9,3.4-3.5,2.5-5.8s-3.5-3.4-5.8-2.5C187.5,252.9,187.3,252.9,187.2,253z"/>
	<path class="st0" d="M229.8,149.5h0.6c2.4-0.3,4.1-2.6,3.8-5l0,0c-3.6-27.3-19.3-51.5-42.8-66c-2.1-1.2-4.8-0.4-6,1.7
		c-1.1,2-0.5,4.5,1.3,5.8c21.2,13.1,35.4,34.9,38.7,59.6C225.7,147.9,227.5,149.5,229.8,149.5z"/>
	<path class="st0" d="M95.3,77.9c-23.7,14.2-39.7,38.3-43.6,65.6c-0.3,2.4,1.3,4.7,3.8,5h0.7c2.2,0,4.1-1.6,4.4-3.8
		c3.6-24.7,18-46.5,39.4-59.3c1.9-1.5,2.2-4.3,0.7-6.2C99.4,77.6,97.2,77.1,95.3,77.9L95.3,77.9z"/>
</g>
</svg>
